<svg version="1.2" xmlns="http://www.w3.org/2000/svg" viewBox="0 0 300 153" width="300" height="153">
	<title>clouds</title>
	<defs>
		<linearGradient id="g1" x1="136.7" y1="32" x2="136.7" y2="86.1" gradientUnits="userSpaceOnUse">
			<stop offset="0" stop-color="#29db74"/>
			<stop offset=".3" stop-color="#25ca8b"/>
			<stop offset="1" stop-color="#1da1c9"/>
			<stop offset="1" stop-color="#1da1ca"/>
		</linearGradient>
		<linearGradient id="g2" x1="206.3" y1="101.3" x2="206.3" y2="135.3" gradientUnits="userSpaceOnUse">
			<stop offset="0" stop-color="#29db74"/>
			<stop offset=".3" stop-color="#25ca8b"/>
			<stop offset="1" stop-color="#1da1c9"/>
			<stop offset="1" stop-color="#1da1ca"/>
		</linearGradient>
	</defs>
	<style>
		.s0 { fill: url(#g1) } 
		.s1 { fill: url(#g2) } 
	</style>
	<g id="Group 985" style="opacity: .3">
		<g id="Group 984">
			<path id="Path 5530" class="s0" d="m228.8 86.1h-184.1c-7.2 0-11.1-8.2-6.8-13.8 5.5-7.1 14-14.8 25.9-17.5 24.1-5.6 36.7 9.9 36.7 9.9 0 0 18.7-35 60.7-32.6 35.1 2.1 46.4 32.3 46.4 32.3 0 0 15.1-4.2 27 6.9 5.7 5.3 2 14.8-5.8 14.8z"/>
			<path id="Path 5531" class="s1" d="m264.1 135.3h-115.7c-4.5 0-7-5.2-4.2-8.7 3.4-4.4 8.8-9.2 16.2-11 15.2-3.5 23.1 6.3 23.1 6.3 0 0 11.8-22 38.1-20.5 22.1 1.3 29.2 20.3 29.2 20.3 0 0 9.4-2.7 17 4.3 3.5 3.3 1.2 9.3-3.7 9.3z"/>
		</g>
	</g>
</svg>