<svg version="1.2" xmlns="http://www.w3.org/2000/svg" viewBox="0 0 141 82" width="141" height="82">
	<title>ring</title>
	<defs>
		<linearGradient id="g1" x1="68.2" y1="28.3" x2="76.2" y2="52.9" gradientUnits="userSpaceOnUse">
			<stop offset="0" stop-color="#29db74"/>
			<stop offset=".3" stop-color="#25ca8b"/>
			<stop offset="1" stop-color="#1da1c9"/>
			<stop offset="1" stop-color="#1da1ca"/>
		</linearGradient>
		<linearGradient id="g2" x1="65.8" y1="21.1" x2="78.5" y2="60.1" gradientUnits="userSpaceOnUse">
			<stop offset="0" stop-color="#29db74"/>
			<stop offset=".3" stop-color="#25ca8b"/>
			<stop offset="1" stop-color="#1da1c9"/>
			<stop offset="1" stop-color="#1da1ca"/>
		</linearGradient>
		<linearGradient id="g3" x1="63.5" y1="13.9" x2="80.9" y2="67.4" gradientUnits="userSpaceOnUse">
			<stop offset="0" stop-color="#29db74"/>
			<stop offset=".3" stop-color="#25ca8b"/>
			<stop offset="1" stop-color="#1da1c9"/>
			<stop offset="1" stop-color="#1da1ca"/>
		</linearGradient>
		<linearGradient id="g4" x1="61.1" y1="6.6" x2="83.2" y2="74.6" gradientUnits="userSpaceOnUse">
			<stop offset="0" stop-color="#29db74"/>
			<stop offset=".3" stop-color="#25ca8b"/>
			<stop offset="1" stop-color="#1da1c9"/>
			<stop offset="1" stop-color="#1da1ca"/>
		</linearGradient>
		<linearGradient id="g5" x1="58.8" y1="-0.6" x2="85.6" y2="81.9" gradientUnits="userSpaceOnUse">
			<stop offset="0" stop-color="#29db74"/>
			<stop offset=".3" stop-color="#25ca8b"/>
			<stop offset="1" stop-color="#1da1c9"/>
			<stop offset="1" stop-color="#1da1ca"/>
		</linearGradient>
	</defs>
	<style>
		.s0 { fill: url(#g1) } 
		.s1 { fill: url(#g2) } 
		.s2 { fill: url(#g3) } 
		.s3 { fill: url(#g4) } 
		.s4 { fill: url(#g5) } 
	</style>
	<g id="Group 987" style="opacity: .2">
		<g id="Group 848">
			<path id="Path 3888" fill-rule="evenodd" class="s0" d="m53.3 36.2c1.2-5.1 10.6-7.3 21-4.9 10.5 2.5 18 8.6 16.8 13.7-1.2 5.1-10.7 7.3-21.1 4.9-10.4-2.4-17.9-8.6-16.7-13.7zm1.6 0.4c-1.1 4.7 5.8 10.3 15.3 12.5 9.5 2.2 18.2 0.2 19.3-4.5 1.1-4.6-5.8-10.3-15.3-12.5-9.6-2.2-18.2-0.2-19.3 4.5z"/>
		</g>
		<g id="Group 849">
			<path id="Path 3889" fill-rule="evenodd" class="s1" d="m42.2 33.6c1.9-8.1 16.9-11.6 33.4-7.7 16.6 3.8 28.5 13.6 26.6 21.7-1.9 8.1-16.9 11.6-33.5 7.8-16.5-3.9-28.4-13.6-26.5-21.8zm2.5 0.6c-1.7 7.5 9.2 16.4 24.3 19.9 15.2 3.6 28.9 0.4 30.7-7.1 1.7-7.4-9.2-16.4-24.4-19.9-15.1-3.5-28.9-0.3-30.6 7.1z"/>
		</g>
		<g id="Group 850">
			<path id="Path 3890" fill-rule="evenodd" class="s2" d="m31 31c2.6-11.1 23.2-15.9 45.9-10.6 22.7 5.3 39 18.6 36.4 29.8-2.5 11.2-23.1 15.9-45.8 10.6-22.7-5.2-39.1-18.6-36.5-29.8zm3.5 0.8c-2.4 10.3 12.6 22.5 33.4 27.3 20.8 4.9 39.6 0.5 42-9.7 2.3-10.2-12.6-22.5-33.4-27.3-20.8-4.8-39.6-0.5-42 9.7z"/>
		</g>
		<g id="Group 851">
			<path id="Path 3891" fill-rule="evenodd" class="s3" d="m19.9 28.4c3.3-14.1 29.4-20.2 58.3-13.5 28.8 6.7 49.6 23.7 46.3 37.9-3.3 14.2-29.5 20.2-58.3 13.5-28.8-6.7-49.6-23.7-46.3-37.9zm4.4 1.1c-3 12.9 16 28.5 42.4 34.6 26.4 6.2 50.3 0.6 53.4-12.3 3-13-16-28.6-42.4-34.7-26.4-6.2-50.4-0.6-53.4 12.4z"/>
		</g>
		<g id="Group 852">
			<path id="Path 3892" fill-rule="evenodd" class="s4" d="m8.7 25.9c4-17.2 35.8-24.6 70.7-16.5 35 8.2 60.2 28.8 56.2 46-4 17.2-35.7 24.5-70.7 16.4-35-8.1-60.2-28.8-56.2-45.9zm5.4 1.2c-3.7 15.7 19.4 34.6 51.4 42.1 32.1 7.4 61.1 0.7 64.8-15.1 3.6-15.7-19.4-34.6-51.5-42-32-7.5-61-0.7-64.7 15z"/>
		</g>
	</g>
</svg>