<svg version="1.2" xmlns="http://www.w3.org/2000/svg" viewBox="0 0 238 109" width="238" height="109">
	<title>clouds</title>
	<style>
		.s0 { fill: #f9f9f9 } 
	</style>
	<g id="Group 985">
		<g id="Group 984">
			<path id="Path 5530" class="s0" d="m195.4 57.1h-184.2c-7.1 0-11.1-8.2-6.7-13.9 5.5-7 13.9-14.7 25.9-17.4 24.1-5.6 36.7 9.9 36.7 9.9 0 0 18.7-35 60.6-32.6 35.2 2 46.4 32.3 46.4 32.3 0 0 15.1-4.3 27.1 6.9 5.7 5.2 1.9 14.8-5.8 14.8z"/>
			<path id="Path 5531" class="s0" d="m230.6 106.3h-115.6c-4.5 0-7-5.2-4.3-8.7 3.5-4.4 8.8-9.3 16.3-11 15.2-3.5 23.1 6.2 23.1 6.2 0 0 11.7-22 38.1-20.4 22 1.2 29.1 20.3 29.1 20.3 0 0 9.5-2.7 17 4.3 3.6 3.3 1.2 9.3-3.7 9.3z"/>
		</g>
	</g>
</svg>