<svg version="1.2" xmlns="http://www.w3.org/2000/svg" viewBox="0 0 1920 1122" width="1920" height="1122">
	<title>layout</title>
	<defs>
		<filter x="-50%" y="-50%" width="200%" height="200%" id="f1" ><feDropShadow dx="-3.061616997868383e-16" dy="5" stdDeviation="9.583333333333334" flood-color="#000000" flood-opacity=".2"/></filter>
		<linearGradient id="g1" x1="959" y1="-54" x2="1084.8" y2="893.9" gradientUnits="userSpaceOnUse">
			<stop offset="0" stop-color="#120648"/>
			<stop offset="0" stop-color="#120648"/>
			<stop offset=".6" stop-color="#493eff"/>
			<stop offset="1" stop-color="#00ded3"/>
		</linearGradient>
	</defs>
	<style>
		.s0 { fill: #f8f4f4 } 
		.s1 { filter: url(#f1);fill: url(#g1) } 
		.s2 { opacity: .3;fill: #f9fafd } 
	</style>
	<g id="Header BG">
		<path id="Path 3874" class="s0" d="m0-2h1922v962c0 0-98 84-250 62-152-22-226 42-604 0-378-42-496 66-674 30-178-36-394 58-394 58z"/>
		<path id="Path 3873" class="s1" d="m0 0c0 0 1567.9 0 1918 0-14 284-90 968-712 912-622-56-1206 108-1206 108z"/>
		<g id="Group 840" style="opacity: .5">
			<path id="Path 3875" class="s2" d="m1921 463.1c-54.5 127.5-175.4 237.1-329.5 296.3-74.1 28.5-163.5 45.2-238.2 17.7-42.2-15.5-74.6-43.3-105.3-70.7-30.8-27.4-62-55.7-103-73-41-17.3-94.7-21.2-132.3 0.3-66.2 37.7-55.7 133-131.8 156.7-55.2 17.3-113.7-17.6-173-21.1-69.1-4.2-132.4 36.7-162.3 85.8-29.9 49.1-348.9 10.2-365.3 124.9l-181.3 34.6v-1010.9l263.6-2c78.6-10.2 156.1 27.2 207.2 75.1 51.1 47.9 83.2 106.3 126.3 158.8 43.1 52.6 102.7 102 180.5 115.1 74.9 12.6 151.8-10.6 219.7-38.4 67.9-27.8 134.4-61.2 209.9-71.2 96.4-12.7 194.6 14.8 279.7 52.4 85.2 37.7 162.6 85.9 250.1 120.3 55.8 21.9 118 38 179.9 40.6q1.2 2.2 2.4 4.3 1.3 2.2 2.7 4.4z"/>
			<path id="Path 3876" class="s2" d="m1897.7 212c-5.7-1.4-13.3 2-18.7 0-39.3-14.6-46.3-37.1-77.9-64.7-31.5-27.5-64.3-55.5-103.9-69.2-53.2-18.5-111.9-8.7-166.7 4.7-54.7 13.4-110.1 30.3-166.3 25.7-70-5.8-134.8-48.7-171-108.5h727.8z"/>
			<path id="Path 3877" class="s2" d="m1885.5 1020h-728.3c37.9-94 138.3-159 239.6-155.2 96.2 3.7 189.1 63 283.4 43.5 49.1-10.2 92-41.2 125.1-78.8 33.2-37.6 57.8-81.8 82.2-125.6z"/>
		</g>
	</g>
</svg>