<svg version="1.2" xmlns="http://www.w3.org/2000/svg" viewBox="0 0 318 384" width="318" height="384">
	<title>overlay</title>
	<style>
		.s0 { fill: #ffffff } 
	</style>
	<g id="Group 1681" style="opacity: .1">
		<g id="Group 1677">
			<path id="Path 6923" class="s0" d="m185.5 90.8c-6.9 0-10.5-4.6-13.4-8.3-3-3.9-5-6.3-9.1-6.3-4.1 0-6.2 2.4-9.1 6.3-2.9 3.7-6.5 8.3-13.5 8.3-6.9 0-10.5-4.6-13.4-8.3-3-3.9-5-6.3-9.1-6.3-4.1 0-6.1 2.4-9.1 6.3-2.9 3.7-6.5 8.3-13.4 8.3-7 0-10.6-4.6-13.5-8.3-3-3.9-5-6.3-9.1-6.3-1.5 0-2.7-1.2-2.7-2.7 0-1.5 1.2-2.7 2.7-2.7 7 0 10.6 4.6 13.4 8.3 3 3.9 5.1 6.2 9.2 6.2 4 0 6.1-2.3 9.1-6.2 2.8-3.7 6.4-8.3 13.4-8.3 7 0 10.5 4.6 13.4 8.3 3 3.9 5 6.2 9.1 6.2 4.1 0 6.2-2.3 9.1-6.2 2.9-3.7 6.5-8.3 13.5-8.3 7 0 10.5 4.6 13.4 8.3 3 3.9 5 6.2 9.1 6.2 1.5 0 2.8 1.3 2.8 2.8 0 1.5-1.3 2.7-2.8 2.7z"/>
		</g>
		<g id="Group 1678">
			<path id="Path 6924" class="s0" d="m316.5 184.9c-4 0-6.1-2.7-7.8-4.9-1.8-2.3-2.9-3.6-5.3-3.6-2.4 0-3.6 1.3-5.4 3.6-1.7 2.2-3.7 4.9-7.8 4.9-4.1 0-6.2-2.7-7.9-4.9-1.7-2.3-2.9-3.6-5.3-3.6-2.4 0-3.6 1.3-5.3 3.6-1.7 2.2-3.8 4.9-7.9 4.9-4 0-6.1-2.7-7.8-4.9-1.8-2.3-3-3.6-5.3-3.6-0.9 0-1.6-0.7-1.6-1.6 0-0.9 0.7-1.6 1.6-1.6 4 0 6.1 2.7 7.8 4.8 1.7 2.3 2.9 3.7 5.3 3.7 2.4 0 3.6-1.4 5.4-3.7 1.6-2.1 3.7-4.8 7.8-4.8 4.1 0 6.2 2.7 7.9 4.8 1.7 2.3 2.9 3.7 5.3 3.7 2.4 0 3.6-1.4 5.3-3.7 1.7-2.1 3.8-4.8 7.9-4.8 4 0 6.1 2.7 7.8 4.8 1.8 2.3 3 3.7 5.3 3.7 0.9 0 1.6 0.7 1.6 1.6 0 0.9-0.7 1.6-1.6 1.6z"/>
		</g>
		<g id="Group 1679">
			<path id="Path 6925" class="s0" d="m319.6 33.8c-4.1 0-6.2-2.7-7.9-4.8-1.7-2.3-2.9-3.7-5.3-3.7-2.4 0-3.6 1.4-5.3 3.7-1.7 2.1-3.8 4.8-7.9 4.8-4 0-6.1-2.7-7.8-4.8-1.8-2.3-2.9-3.7-5.3-3.7-2.4 0-3.6 1.4-5.4 3.7-1.6 2.1-3.7 4.8-7.8 4.8-4.1 0-6.2-2.7-7.9-4.8-1.7-2.3-2.9-3.7-5.3-3.7-0.9 0-1.6-0.7-1.6-1.6 0-0.8 0.7-1.5 1.6-1.5 4.1 0 6.2 2.7 7.9 4.8 1.7 2.3 2.9 3.7 5.3 3.7 2.4 0 3.6-1.4 5.3-3.7 1.7-2.1 3.8-4.8 7.9-4.8 4 0 6.1 2.7 7.8 4.8 1.8 2.3 2.9 3.7 5.3 3.7 2.4 0 3.6-1.4 5.4-3.7 1.6-2.1 3.7-4.8 7.8-4.8 4.1 0 6.2 2.7 7.9 4.8 1.7 2.3 2.9 3.7 5.3 3.7 0.9 0 1.6 0.7 1.6 1.6 0 0.8-0.7 1.5-1.6 1.5z"/>
		</g>
		<g id="Group 1680">
			<path id="Path 6926" class="s0" d="m221.8 269.2c-5.6 0-8.5-3.7-10.8-6.6-2.4-3.1-4-5-7.3-5-3.2 0-4.9 1.9-7.3 5-2.3 2.9-5.1 6.6-10.7 6.6-5.6 0-8.4-3.7-10.7-6.6-2.4-3.1-4.1-5-7.3-5-3.3 0-4.9 1.9-7.3 5-2.3 2.9-5.2 6.6-10.8 6.6-5.5 0-8.4-3.7-10.7-6.6-2.4-3.1-4-5-7.3-5-1.2 0-2.2-1-2.2-2.2 0-1.2 1-2.2 2.2-2.2 5.6 0 8.4 3.7 10.7 6.7 2.4 3.1 4.1 5 7.3 5 3.3 0 4.9-1.9 7.3-5 2.3-3 5.2-6.7 10.8-6.7 5.5 0 8.4 3.7 10.7 6.7 2.4 3.1 4 5 7.3 5 3.3 0 4.9-1.9 7.3-5 2.3-3 5.2-6.7 10.7-6.7 5.6 0 8.5 3.7 10.8 6.7 2.4 3.1 4 5 7.3 5 1.2 0 2.2 1 2.2 2.2 0 1.2-1 2.1-2.2 2.1z"/>
		</g>
		<circle id="Path 6927" class="s0" cx="316.7" cy="125.6" r="4.8"/>
		<circle id="Path 6928" class="s0" cx="133.7" cy="23.5" r="4.8"/>
		<circle id="Ellipse 354" class="s0" cx="111.3" cy="220.8" r="4.8"/>
	</g>
</svg>