<svg version="1.2" xmlns="http://www.w3.org/2000/svg" viewBox="0 0 344 564" width="344" height="564">
	<title>rocket</title>
	<defs>
		<linearGradient id="g1" x1="320.4" y1="539" x2="322.1" y2="535.5" gradientUnits="userSpaceOnUse">
			<stop offset="0" stop-color="#e1473d"/>
			<stop offset="1" stop-color="#e9605a"/>
		</linearGradient>
		<linearGradient id="g2" x1="137.8" y1="491.3" x2="238.1" y2="276.1" gradientUnits="userSpaceOnUse">
			<stop offset="0" stop-color="#e1473d"/>
			<stop offset="1" stop-color="#e9605a"/>
		</linearGradient>
		<linearGradient id="g3" x1="76.9" y1="197" x2="79" y2="192.6" gradientUnits="userSpaceOnUse">
			<stop offset="0" stop-color="#e1473d"/>
			<stop offset="1" stop-color="#e9605a"/>
		</linearGradient>
		<linearGradient id="g4" x1="35.7" y1="173.8" x2="90.8" y2="219.6" gradientUnits="userSpaceOnUse">
			<stop offset="0" stop-color="#ff928e"/>
			<stop offset="1" stop-color="#fe7062"/>
		</linearGradient>
		<linearGradient id="g5" x1="3.9" y1="62.1" x2="-126.6" y2="-57.5" gradientUnits="userSpaceOnUse">
			<stop offset="0" stop-color="#4f52ff"/>
			<stop offset="1" stop-color="#4042e2"/>
		</linearGradient>
		<linearGradient id="g6" x1="-39.7" y1="-39.5" x2="9.3" y2="9.6" gradientUnits="userSpaceOnUse">
			<stop offset="0" stop-color="#ff928e"/>
			<stop offset="1" stop-color="#fe7062"/>
		</linearGradient>
		<linearGradient id="g7" x1="623.8" y1="1132.5" x2="639.3" y2="1099.4" gradientUnits="userSpaceOnUse">
			<stop offset="0" stop-color="#09005d"/>
			<stop offset="1" stop-color="#1a0f91"/>
		</linearGradient>
		<linearGradient id="g8" x1="665.5" y1="1145.4" x2="675.7" y2="1123.4" gradientUnits="userSpaceOnUse">
			<stop offset="0" stop-color="#09005d"/>
			<stop offset="1" stop-color="#1a0f91"/>
		</linearGradient>
	</defs>
	<style>
		.s0 { fill: #25cb89 } 
		.s1 { fill: url(#g1) } 
		.s2 { fill: url(#g2) } 
		.s3 { fill: url(#g3) } 
		.s4 { fill: url(#g4) } 
		.s5 { fill: #7d97f4 } 
		.s6 { fill: #bdd0fb } 
		.s7 { fill: url(#g5) } 
		.s8 { fill: url(#g6) } 
		.s9 { fill: #91b3fa } 
		.s10 { fill: url(#g7) } 
		.s11 { fill: url(#g8) } 
	</style>
	<g id="Group 1736">
		<g id="Group 1703" style="opacity: .1">
			<g id="Group 1554">
				<path id="Rectangle 618" class="s0" d="m1483.3-201.5l3.4-3.3 3.3 3.3-3.3 3.4z"/>
				<path id="Rectangle 619" class="s0" d="m1483.3-221.2l3.4-3.3 3.3 3.3-3.3 3.4z"/>
				<path id="Rectangle 620" class="s0" d="m1483.3-240.8l3.4-3.4 3.3 3.4-3.3 3.3z"/>
				<path id="Rectangle 621" class="s0" d="m1483.3-260.5l3.4-3.4 3.3 3.4-3.3 3.3z"/>
				<path id="Rectangle 622" class="s0" d="m1483.3-280.2l3.4-3.3 3.3 3.3-3.3 3.4z"/>
				<path id="Rectangle 623" class="s0" d="m1483.3-181.8l3.4-3.4 3.3 3.4-3.3 3.3z"/>
			</g>
			<g id="Group 1555">
				<path id="Rectangle 624" class="s0" d="m1455.4-201.5l3.3-3.3 3.4 3.3-3.4 3.4z"/>
				<path id="Rectangle 625" class="s0" d="m1455.4-221.2l3.3-3.3 3.4 3.3-3.4 3.4z"/>
				<path id="Rectangle 626" class="s0" d="m1455.4-240.8l3.3-3.4 3.4 3.4-3.4 3.3z"/>
				<path id="Rectangle 627" class="s0" d="m1455.4-260.5l3.3-3.4 3.4 3.4-3.4 3.3z"/>
				<path id="Rectangle 628" class="s0" d="m1455.4-280.2l3.3-3.3 3.4 3.3-3.4 3.4z"/>
				<path id="Rectangle 629" class="s0" d="m1455.4-181.8l3.3-3.4 3.4 3.4-3.4 3.3z"/>
			</g>
			<g id="Group 1556">
				<path id="Rectangle 630" class="s0" d="m1427.4-201.5l3.4-3.3 3.3 3.3-3.3 3.4z"/>
				<path id="Rectangle 631" class="s0" d="m1427.4-221.2l3.4-3.3 3.3 3.3-3.3 3.4z"/>
				<path id="Rectangle 632" class="s0" d="m1427.4-240.8l3.4-3.4 3.3 3.4-3.3 3.3z"/>
				<path id="Rectangle 633" class="s0" d="m1427.4-260.5l3.4-3.4 3.3 3.4-3.3 3.3z"/>
				<path id="Rectangle 634" class="s0" d="m1427.4-280.2l3.4-3.3 3.3 3.3-3.3 3.4z"/>
				<path id="Rectangle 635" class="s0" d="m1427.4-181.8l3.4-3.4 3.3 3.4-3.3 3.3z"/>
			</g>
			<g id="Group 1557">
				<path id="Rectangle 636" class="s0" d="m1399.4-201.5l3.4-3.3 3.3 3.3-3.3 3.4z"/>
				<path id="Rectangle 637" class="s0" d="m1399.4-221.2l3.4-3.3 3.3 3.3-3.3 3.4z"/>
				<path id="Rectangle 638" class="s0" d="m1399.4-240.8l3.4-3.4 3.3 3.4-3.3 3.3z"/>
				<path id="Rectangle 639" class="s0" d="m1399.4-260.5l3.4-3.4 3.3 3.4-3.3 3.3z"/>
				<path id="Rectangle 640" class="s0" d="m1399.4-280.2l3.4-3.3 3.3 3.3-3.3 3.4z"/>
				<path id="Rectangle 641" class="s0" d="m1399.4-181.8l3.4-3.4 3.3 3.4-3.3 3.3z"/>
			</g>
			<g id="Group 1558">
				<path id="Rectangle 642" class="s0" d="m1371.5-201.5l3.3-3.3 3.4 3.3-3.4 3.4z"/>
				<path id="Rectangle 643" class="s0" d="m1371.5-221.2l3.3-3.3 3.4 3.3-3.4 3.4z"/>
				<path id="Rectangle 644" class="s0" d="m1371.5-240.8l3.3-3.4 3.4 3.4-3.4 3.3z"/>
				<path id="Rectangle 645" class="s0" d="m1371.5-260.5l3.3-3.4 3.4 3.4-3.4 3.3z"/>
				<path id="Rectangle 646" class="s0" d="m1371.5-280.2l3.3-3.3 3.4 3.3-3.4 3.4z"/>
				<path id="Rectangle 647" class="s0" d="m1371.5-181.8l3.3-3.4 3.4 3.4-3.4 3.3z"/>
			</g>
			<g id="Group 1559">
				<path id="Rectangle 648" class="s0" d="m1343.5-201.5l3.4-3.3 3.3 3.3-3.3 3.4z"/>
				<path id="Rectangle 649" class="s0" d="m1343.5-221.2l3.4-3.3 3.3 3.3-3.3 3.4z"/>
				<path id="Rectangle 650" class="s0" d="m1343.5-240.8l3.4-3.4 3.3 3.4-3.3 3.3z"/>
				<path id="Rectangle 651" class="s0" d="m1343.5-260.5l3.4-3.4 3.3 3.4-3.3 3.3z"/>
				<path id="Rectangle 652" class="s0" d="m1343.5-280.2l3.4-3.3 3.3 3.3-3.3 3.4z"/>
				<path id="Rectangle 653" class="s0" d="m1343.5-181.8l3.4-3.4 3.3 3.4-3.3 3.3z"/>
			</g>
			<g id="Group 1560">
				<path id="Rectangle 654" class="s0" d="m1315.5-201.5l3.4-3.3 3.3 3.3-3.3 3.4z"/>
				<path id="Rectangle 655" class="s0" d="m1315.5-221.2l3.4-3.3 3.3 3.3-3.3 3.4z"/>
				<path id="Rectangle 656" class="s0" d="m1315.5-240.8l3.4-3.4 3.3 3.4-3.3 3.3z"/>
				<path id="Rectangle 657" class="s0" d="m1315.5-260.5l3.4-3.4 3.3 3.4-3.3 3.3z"/>
				<path id="Rectangle 658" class="s0" d="m1315.5-280.2l3.4-3.3 3.3 3.3-3.3 3.4z"/>
				<path id="Rectangle 659" class="s0" d="m1315.5-181.8l3.4-3.4 3.3 3.4-3.3 3.3z"/>
			</g>
			<g id="Group 1561">
				<path id="Rectangle 660" class="s0" d="m1287.6-201.5l3.3-3.3 3.4 3.3-3.4 3.4z"/>
				<path id="Rectangle 661" class="s0" d="m1287.6-221.2l3.3-3.3 3.4 3.3-3.4 3.4z"/>
				<path id="Rectangle 662" class="s0" d="m1287.6-240.8l3.3-3.4 3.4 3.4-3.4 3.3z"/>
				<path id="Rectangle 663" class="s0" d="m1287.6-260.5l3.3-3.4 3.4 3.4-3.4 3.3z"/>
				<path id="Rectangle 664" class="s0" d="m1287.6-280.2l3.3-3.3 3.4 3.3-3.4 3.4z"/>
				<path id="Rectangle 665" class="s0" d="m1287.6-181.8l3.3-3.4 3.4 3.4-3.4 3.3z"/>
			</g>
			<g id="Group 1562">
				<path id="Rectangle 666" class="s0" d="m1259.6-201.5l3.4-3.3 3.3 3.3-3.3 3.4z"/>
				<path id="Rectangle 667" class="s0" d="m1259.6-221.2l3.4-3.3 3.3 3.3-3.3 3.4z"/>
				<path id="Rectangle 668" class="s0" d="m1259.6-240.8l3.4-3.4 3.3 3.4-3.3 3.3z"/>
				<path id="Rectangle 669" class="s0" d="m1259.6-260.5l3.4-3.4 3.3 3.4-3.3 3.3z"/>
				<path id="Rectangle 670" class="s0" d="m1259.6-280.2l3.4-3.3 3.3 3.3-3.3 3.4z"/>
				<path id="Rectangle 671" class="s0" d="m1259.6-181.8l3.4-3.4 3.3 3.4-3.3 3.3z"/>
			</g>
			<g id="Group 1563">
				<path id="Rectangle 672" class="s0" d="m1511.3-201.5l3.4-3.3 3.3 3.3-3.3 3.4z"/>
				<path id="Rectangle 673" class="s0" d="m1511.3-221.2l3.4-3.3 3.3 3.3-3.3 3.4z"/>
				<path id="Rectangle 674" class="s0" d="m1511.3-240.8l3.4-3.4 3.3 3.4-3.3 3.3z"/>
				<path id="Rectangle 675" class="s0" d="m1511.3-260.5l3.4-3.4 3.3 3.4-3.3 3.3z"/>
				<path id="Rectangle 676" class="s0" d="m1511.3-280.2l3.4-3.3 3.3 3.3-3.3 3.4z"/>
				<path id="Rectangle 677" class="s0" d="m1511.3-181.8l3.4-3.4 3.3 3.4-3.3 3.3z"/>
			</g>
			<g id="Group 1564">
				<path id="Rectangle 678" class="s0" d="m1231.6-201.5l3.4-3.3 3.3 3.3-3.3 3.4z"/>
				<path id="Rectangle 679" class="s0" d="m1231.6-221.2l3.4-3.3 3.3 3.3-3.3 3.4z"/>
				<path id="Rectangle 680" class="s0" d="m1231.6-240.8l3.4-3.4 3.3 3.4-3.3 3.3z"/>
				<path id="Rectangle 681" class="s0" d="m1231.6-260.5l3.4-3.4 3.3 3.4-3.3 3.3z"/>
				<path id="Rectangle 682" class="s0" d="m1231.6-280.2l3.4-3.3 3.3 3.3-3.3 3.4z"/>
				<path id="Rectangle 683" class="s0" d="m1231.6-181.8l3.4-3.4 3.3 3.4-3.3 3.3z"/>
			</g>
		</g>
		<g id="Group 1704">
			<g id="Group 1487">
				<path id="Path 6502" class="s1" d="m323.6 537.3c-0.2 0.3-0.4 0.5-0.7 0.6q-1.4 0.4-2.7 0.7c-0.6 0.2-1.2-0.2-1.3-0.7-0.1-0.6 0.2-1.2 0.8-1.3q1.3-0.4 2.6-0.7c0.6-0.2 1.2 0.2 1.3 0.7q0.1 0.4 0 0.7z"/>
				<path id="Path 6503" class="s2" d="m315.4 539.4c-0.1 0.2-0.3 0.5-0.7 0.5q-2.7 0.6-5.5 1.2c-0.5 0.1-1.1-0.3-1.2-0.9-0.1-0.6 0.3-1.1 0.8-1.2q2.8-0.5 5.5-1.1c0.5-0.1 1.1 0.2 1.2 0.8q0.1 0.3-0.1 0.7zm-10.9 2c-0.1 0.3-0.4 0.5-0.8 0.6q-2.8 0.4-5.6 0.7c-0.5 0.1-1.1-0.3-1.1-0.9-0.1-0.6 0.3-1.1 0.9-1.2q2.8-0.3 5.5-0.7c0.6-0.1 1.1 0.3 1.2 0.9q0 0.3-0.1 0.6zm-11.1 1.3c-0.1 0.3-0.4 0.5-0.8 0.6q-2.9 0.2-5.6 0.3c-0.6 0-1.1-0.4-1.1-1-0.1-0.6 0.4-1.1 1-1.1q2.7-0.1 5.5-0.3c0.6-0.1 1.1 0.4 1.1 0.9q0 0.3-0.1 0.6zm-11.1 0.4c-0.2 0.4-0.5 0.6-0.9 0.6q-2.9 0-5.7-0.1c-0.5 0-1-0.5-1-1.1 0-0.5 0.5-1 1.1-1q2.8 0.1 5.5 0.1c0.6 0 1.1 0.5 1.1 1.1q0 0.2-0.1 0.4zm-11.1-0.4c-0.2 0.4-0.6 0.7-1.1 0.6q-2.8-0.2-5.5-0.5c-0.6-0.1-1-0.6-1-1.2 0.1-0.5 0.6-1 1.2-0.9q2.7 0.3 5.5 0.5c0.6 0.1 1 0.6 1 1.2q0 0.1-0.1 0.3zm-11.1-1.3c-0.2 0.5-0.6 0.7-1.1 0.6q-2.8-0.4-5.5-0.9c-0.6-0.2-1-0.7-0.9-1.3 0.2-0.5 0.7-0.9 1.3-0.8q2.7 0.5 5.4 1c0.6 0 1 0.6 0.9 1.2q0 0.1-0.1 0.2zm-10.9-2.1c-0.2 0.4-0.7 0.7-1.2 0.5q-2.8-0.6-5.4-1.4c-0.6-0.2-0.9-0.7-0.8-1.3 0.2-0.6 0.8-0.9 1.3-0.7q2.7 0.7 5.4 1.4c0.5 0.1 0.9 0.7 0.8 1.3q-0.1 0.1-0.1 0.2zm-10.7-3.1c-0.2 0.5-0.8 0.7-1.3 0.5q-2.6-0.8-5.3-1.9c-0.5-0.2-0.8-0.8-0.6-1.3 0.2-0.6 0.8-0.8 1.4-0.6q2.6 1 5.2 1.8c0.5 0.2 0.8 0.8 0.6 1.4q0 0 0 0.1zm-10.4-4c-0.2 0.5-0.9 0.7-1.4 0.5q-1.9-0.8-3.9-1.7-0.6-0.3-1.2-0.6c-0.5-0.3-0.7-0.9-0.5-1.4 0.3-0.5 0.9-0.8 1.4-0.5q0.6 0.3 1.2 0.5 1.9 0.9 3.9 1.8c0.5 0.2 0.7 0.8 0.5 1.4q0 0 0 0zm-10.1-4.8q0 0 0 0c-0.3 0.6-0.9 0.8-1.4 0.5q-2.5-1.3-4.9-2.7c-0.5-0.3-0.7-0.9-0.4-1.4 0.3-0.5 0.9-0.7 1.4-0.4q2.4 1.3 4.9 2.6c0.5 0.3 0.7 0.9 0.4 1.4zm-9.7-5.5q0 0.1 0 0.1c-0.3 0.5-1 0.7-1.5 0.4q-2.3-1.5-4.7-3c-0.5-0.3-0.6-1-0.3-1.5 0.3-0.5 1-0.6 1.5-0.3q2.3 1.5 4.6 3c0.5 0.3 0.7 0.8 0.4 1.3zm-9.3-6.1q0 0.1-0.1 0.2c-0.3 0.4-1 0.6-1.4 0.2q-2.3-1.6-4.6-3.3c-0.4-0.3-0.5-1-0.2-1.4 0.4-0.5 1-0.6 1.5-0.2q2.2 1.6 4.5 3.2c0.4 0.3 0.5 0.9 0.3 1.3zm-8.9-6.7q0 0.1-0.1 0.2c-0.4 0.5-1 0.6-1.5 0.2q-2.2-1.7-4.3-3.6c-0.5-0.3-0.5-1-0.1-1.4 0.3-0.5 1-0.5 1.4-0.2q2.1 1.8 4.3 3.6c0.4 0.3 0.5 0.8 0.3 1.2zm-8.5-7.2q0 0.2-0.1 0.3c-0.4 0.4-1.1 0.4-1.5 0q-2.1-1.8-4.1-3.8c-0.4-0.4-0.4-1.1 0-1.5 0.4-0.4 1-0.4 1.5 0q1.9 1.9 4 3.8c0.3 0.3 0.4 0.8 0.2 1.2zm-8-7.7q0 0.1-0.2 0.3c-0.4 0.4-1.1 0.4-1.5-0.1q-1.9-2-3.8-4.1c-0.4-0.4-0.3-1.1 0.1-1.4 0.4-0.4 1.1-0.4 1.5 0q1.8 2.1 3.7 4.1c0.4 0.3 0.4 0.8 0.2 1.2zm-7.4-8.3q-0.1 0.2-0.3 0.3c-0.4 0.4-1.1 0.4-1.5-0.1q-1.8-2.1-3.5-4.4c-0.4-0.4-0.3-1.1 0.2-1.4 0.4-0.4 1.1-0.3 1.5 0.2q1.7 2.1 3.4 4.3c0.3 0.3 0.4 0.7 0.2 1.1zm34.2-86.2q-0.6 1.4-1.5 2.7c-0.3 0.5-0.9 0.6-1.4 0.3-0.5-0.4-0.6-1-0.3-1.5 1-1.4 1.7-3 2.2-4.7 0.2-0.6 0.8-0.9 1.3-0.7 0.6 0.1 0.9 0.7 0.7 1.3q-0.4 1.4-1 2.6zm1.9-8c-0.2 0.4-0.6 0.7-1 0.6-0.6 0-1.1-0.5-1-1q0-2.6-0.4-5.4c-0.1-0.5 0.2-1.1 0.8-1.2 0.6-0.1 1.1 0.3 1.2 0.9q0.6 2.9 0.5 5.7 0 0.3-0.1 0.4zm-7 14.6q-0.1 0.2-0.3 0.4-2.2 1.7-5 3c-0.5 0.3-1.2 0-1.4-0.5-0.2-0.5 0-1.1 0.5-1.4q2.6-1.2 4.5-2.8c0.5-0.3 1.2-0.2 1.5 0.2 0.3 0.3 0.3 0.8 0.2 1.1zm-36 70.8q-0.1 0.2-0.3 0.4c-0.5 0.3-1.1 0.2-1.5-0.2q-1.6-2.3-3.2-4.7c-0.3-0.5-0.1-1.1 0.3-1.4 0.5-0.3 1.2-0.2 1.5 0.3q1.5 2.3 3.1 4.5c0.3 0.3 0.3 0.7 0.1 1.1zm41.1-96.3q-0.2 0.4-0.6 0.6c-0.6 0.2-1.2-0.1-1.4-0.7q-0.9-2.5-2.2-4.9c-0.3-0.5-0.1-1.1 0.4-1.4 0.5-0.3 1.1-0.1 1.4 0.4q1.4 2.6 2.4 5.2c0.1 0.3 0.1 0.6 0 0.8zm-15.1 30.2c-0.2 0.3-0.4 0.5-0.7 0.6q-1.6 0.4-3.3 0.7-1.2 0.1-2.4 0.3c-0.5 0-1.1-0.4-1.1-1-0.1-0.5 0.3-1.1 0.9-1.1q1.2-0.1 2.3-0.3 1.6-0.3 3.1-0.6c0.5-0.2 1.1 0.2 1.2 0.7q0.1 0.4 0 0.7zm-32.1 56.8q-0.1 0.3-0.4 0.4c-0.5 0.3-1.2 0.2-1.5-0.3q-1.4-2.5-2.8-4.9c-0.2-0.5-0.1-1.1 0.5-1.4 0.5-0.3 1.1-0.1 1.4 0.4q1.3 2.4 2.7 4.8c0.2 0.3 0.2 0.7 0.1 1zm41.8-96.7q-0.1 0.3-0.3 0.4c-0.5 0.4-1.1 0.3-1.5-0.1q-1.7-2.1-3.8-3.8c-0.4-0.4-0.5-1-0.2-1.5 0.4-0.4 1.1-0.5 1.5-0.1q2.3 1.8 4.1 4c0.3 0.4 0.3 0.8 0.2 1.1zm-20.8 41.1c-0.2 0.4-0.5 0.7-0.9 0.6q-2.9 0-5.7-0.3c-0.6-0.1-1-0.6-0.9-1.2 0-0.6 0.6-1 1.1-0.9q2.8 0.3 5.5 0.3c0.6 0.1 1 0.5 1 1.1q0 0.2-0.1 0.4zm-26.3 45.8q-0.2 0.3-0.5 0.5c-0.6 0.2-1.2 0-1.4-0.5q-1.3-2.5-2.4-5.1c-0.2-0.5 0-1.2 0.6-1.4 0.5-0.2 1.1 0 1.3 0.6q1.1 2.5 2.3 5c0.2 0.3 0.2 0.6 0.1 0.9zm38.4-93.8q0 0.1 0 0.1c-0.2 0.5-0.9 0.7-1.4 0.4q-0.2-0.1-0.4-0.2-2.2-1-4.6-1.6c-0.6-0.1-0.9-0.7-0.8-1.2 0.2-0.6 0.7-0.9 1.3-0.8q2.5 0.6 5 1.7 0.2 0.1 0.4 0.3c0.6 0.2 0.8 0.8 0.5 1.3zm-23.1 46.7c-0.2 0.5-0.7 0.7-1.2 0.6q-2.8-0.6-5.5-1.6c-0.5-0.2-0.8-0.8-0.6-1.3 0.2-0.6 0.8-0.8 1.3-0.7q2.6 0.9 5.3 1.6c0.5 0.1 0.9 0.7 0.7 1.2q0 0.1 0 0.2zm-19.7 36.8c-0.1 0.3-0.4 0.5-0.6 0.6-0.6 0.2-1.2-0.1-1.4-0.6q-1-2.7-1.8-5.4c-0.2-0.5 0.2-1.1 0.7-1.3 0.6-0.2 1.1 0.2 1.3 0.7q0.8 2.6 1.8 5.2c0.1 0.3 0.1 0.6 0 0.8zm32.1-86c-0.2 0.4-0.6 0.6-1 0.6q-1.1 0-2.2 0.1-1.6 0.2-3.1 0.5c-0.6 0.1-1.1-0.2-1.2-0.8-0.1-0.6 0.2-1.1 0.8-1.2q1.6-0.4 3.2-0.6 1.3-0.1 2.5-0.1c0.6 0 1.1 0.5 1.1 1.1q0 0.2-0.1 0.4zm-35.4 75.4c-0.2 0.3-0.4 0.5-0.7 0.6-0.6 0.1-1.2-0.2-1.3-0.8q-0.7-2.6-1.2-5.3v-0.2c-0.1-0.5 0.2-1.1 0.8-1.2 0.6-0.1 1.1 0.3 1.2 0.8l0.1 0.2q0.5 2.6 1.1 5.2 0.1 0.4 0 0.7zm12.5-29.8c-0.3 0.5-0.9 0.8-1.4 0.5q-2.6-1.2-5-2.7c-0.5-0.3-0.7-0.9-0.4-1.4 0.3-0.5 0.9-0.7 1.4-0.4q2.4 1.4 4.9 2.6c0.5 0.2 0.7 0.9 0.5 1.4zm-14.6 18.9c-0.2 0.3-0.5 0.5-0.8 0.6-0.6 0-1.1-0.4-1.2-0.9q-0.4-2.9-0.5-5.7c-0.1-0.5 0.4-1 0.9-1.1 0.6 0 1.1 0.4 1.2 1q0.1 2.7 0.5 5.5 0 0.3-0.1 0.6zm26.6-62.2q-0.1 0.3-0.5 0.5-2.5 1-4.8 2.5c-0.5 0.3-1.1 0.1-1.4-0.4-0.4-0.5-0.2-1.1 0.3-1.4q2.5-1.6 5.1-2.7c0.5-0.2 1.1 0.1 1.4 0.6 0.1 0.3 0.1 0.6-0.1 0.9zm-27.3 51.1c-0.2 0.3-0.5 0.6-1 0.6-0.5 0-1-0.5-1-1.1q0-2.8 0.2-5.6c0-0.6 0.6-1 1.1-1 0.6 0 1 0.6 1 1.1q-0.2 2.7-0.2 5.5 0 0.3-0.1 0.5zm5.7-13.5q0 0.1-0.1 0.2c-0.3 0.4-1 0.5-1.5 0.2q-1.3-1-2.5-2-0.4 1.8-0.7 3.7c-0.1 0.5-0.6 0.9-1.2 0.9-0.6-0.1-1-0.7-0.9-1.2q0.4-2.6 0.9-5c-0.4-0.4-0.4-1.1 0-1.5 0.4-0.4 1-0.4 1.5-0.1q2 1.9 4.2 3.5c0.4 0.3 0.5 0.8 0.3 1.3zm12.2-31.8q-0.1 0.2-0.2 0.4-2.1 1.7-3.9 3.8c-0.4 0.4-1 0.5-1.5 0.1-0.4-0.4-0.5-1.1-0.1-1.5q2-2.2 4.1-4c0.4-0.4 1.1-0.4 1.5 0.1 0.2 0.3 0.3 0.8 0.1 1.1zm-7.4 8.3q0 0.1 0 0.2-1.6 2.2-2.9 4.6c-0.3 0.5-0.9 0.7-1.4 0.5-0.5-0.3-0.7-0.9-0.4-1.5q1.3-2.5 2.9-4.8c0.4-0.5 1-0.6 1.5-0.3 0.4 0.3 0.6 0.9 0.3 1.3zm-7.2 15c-0.2 0.5-0.7 0.7-1.3 0.6-0.5-0.2-0.8-0.8-0.6-1.3q0.8-2.8 1.9-5.4c0.3-0.5 0.9-0.7 1.4-0.5 0.5 0.2 0.8 0.8 0.6 1.4q-1.1 2.4-1.9 5.1-0.1 0.1-0.1 0.1zm-5.9 1.1q0 0.1-0.2 0.3c-0.4 0.4-1.1 0.4-1.5-0.1q-1.9-2-3.6-4.3c-0.4-0.4-0.3-1.1 0.1-1.5 0.5-0.3 1.2-0.2 1.5 0.2q1.7 2.2 3.6 4.2c0.3 0.3 0.3 0.8 0.1 1.2zm-6.8-8.8q-0.1 0.3-0.4 0.4c-0.5 0.4-1.1 0.2-1.5-0.3q-1.5-2.3-2.9-4.8c-0.3-0.5-0.1-1.1 0.4-1.4 0.5-0.3 1.1-0.1 1.4 0.4q1.4 2.4 2.9 4.7c0.2 0.3 0.2 0.7 0.1 1zm-5.5-9.7q-0.1 0.4-0.5 0.5c-0.5 0.3-1.2 0-1.4-0.5q-1.2-2.6-2.1-5.3c-0.1-0.5 0.2-1.1 0.7-1.3 0.6-0.2 1.2 0.1 1.3 0.7q0.9 2.5 2 5c0.2 0.3 0.1 0.7 0 0.9zm-3.5-10.5c-0.1 0.3-0.4 0.5-0.7 0.6-0.6 0.1-1.1-0.3-1.2-0.8q-0.6-2.8-0.9-5.7c-0.1-0.5 0.4-1 0.9-1.1 0.6-0.1 1.1 0.4 1.2 0.9q0.3 2.8 0.8 5.4 0.1 0.4-0.1 0.7zm-1.1-11.1c-0.2 0.4-0.5 0.6-0.9 0.6-0.6 0-1.1-0.4-1.1-1 0-1.8 0.1-3.7 0.2-5.7 0.1-0.5 0.6-1 1.1-0.9 0.6 0 1.1 0.5 1 1.1-0.1 1.9-0.2 3.7-0.2 5.5q0 0.2-0.1 0.4zm0.8-11.1c-0.2 0.4-0.6 0.7-1.1 0.6-0.6 0-1-0.6-0.9-1.2 0.2-1.6 0.5-3.4 0.9-5.5 0.1-0.6 0.6-0.9 1.2-0.9 0.6 0.1 1 0.7 0.9 1.3-0.4 2.1-0.7 3.8-0.9 5.4q0 0.2-0.1 0.3zm1.8-11c-0.1 0.5-0.6 0.7-1.1 0.6-0.6-0.1-0.9-0.6-0.8-1.2 0.3-1.7 0.6-3.6 0.9-5.5 0.1-0.5 0.6-0.9 1.2-0.8 0.6 0.1 0.9 0.6 0.9 1.2-0.3 1.8-0.7 3.7-1 5.5q0 0.1-0.1 0.2zm1.6-11c-0.2 0.4-0.6 0.7-1 0.6-0.6 0-1-0.5-1-1.1 0.2-2 0.2-3.8 0.1-5.4 0-0.6 0.4-1.1 1-1.1 0.6-0.1 1.1 0.4 1.1 1 0.1 1.7 0.1 3.6-0.1 5.7q0 0.2-0.1 0.3zm-0.8-11c-0.1 0.3-0.3 0.5-0.6 0.6-0.6 0.1-1.2-0.2-1.3-0.8-0.5-1.7-1.2-3.3-2-4.9-0.3-0.5-0.2-1.1 0.4-1.4 0.5-0.3 1.1-0.1 1.4 0.4q1.4 2.5 2.2 5.4 0.1 0.3-0.1 0.7zm-5.4-9.6q-0.1 0.2-0.2 0.3c-0.4 0.4-1.1 0.4-1.5 0-1.2-1.3-2.4-2.6-3.8-4-0.4-0.4-0.5-1.1 0-1.5 0.4-0.4 1-0.4 1.4 0 1.5 1.4 2.7 2.7 3.9 4.1 0.3 0.3 0.4 0.7 0.2 1.1zm-7.9-7.8q0 0.1-0.2 0.2c-0.3 0.5-1 0.5-1.4 0.1q-2.1-1.9-4.1-3.7c-0.5-0.4-0.5-1.1-0.1-1.5 0.4-0.5 1-0.5 1.5-0.1q2 1.9 4.1 3.8c0.3 0.3 0.4 0.8 0.2 1.2zm-8.2-7.5q-0.1 0.1-0.2 0.3c-0.4 0.4-1.1 0.4-1.5 0q-2.1-1.8-4.1-3.7c-0.5-0.4-0.5-1.1-0.1-1.5 0.4-0.4 1.1-0.4 1.5-0.1q2 1.9 4.1 3.8c0.4 0.3 0.4 0.8 0.3 1.2zm-8.2-7.6q-0.1 0.2-0.2 0.3c-0.4 0.4-1.1 0.4-1.5 0-1.4-1.4-2.7-2.7-3.9-4-0.4-0.4-0.4-1.1 0.1-1.5 0.4-0.4 1-0.4 1.4 0.1 1.2 1.3 2.5 2.6 3.9 3.9 0.3 0.4 0.4 0.8 0.2 1.2zm-7.5-8.2q-0.1 0.2-0.3 0.4c-0.5 0.4-1.1 0.3-1.5-0.1q-1.8-2.3-3.4-4.6c-0.3-0.4-0.2-1.1 0.3-1.4 0.4-0.3 1.1-0.2 1.4 0.2q1.5 2.2 3.3 4.4c0.3 0.3 0.3 0.8 0.2 1.1zm-6.4-9.1q-0.1 0.3-0.4 0.5c-0.5 0.3-1.1 0.1-1.4-0.4q-1.5-2.5-2.6-5c-0.3-0.6-0.1-1.2 0.5-1.4 0.5-0.3 1.1-0.1 1.4 0.5q1.1 2.4 2.5 4.8c0.2 0.3 0.2 0.7 0 1zm-4.6-10.1c-0.1 0.3-0.4 0.5-0.6 0.6-0.6 0.1-1.2-0.1-1.4-0.7q-0.7-2-1.2-4-0.2-0.7-0.4-1.4c-0.2-0.6 0.2-1.1 0.7-1.3 0.6-0.1 1.2 0.2 1.3 0.8q0.2 0.6 0.4 1.3 0.5 2 1.2 3.9 0.1 0.4 0 0.8zm-2.8-10.8c-0.2 0.3-0.5 0.6-0.8 0.6-0.6 0.1-1.1-0.2-1.2-0.8q-0.5-2.8-0.8-5.6c-0.1-0.6 0.4-1.1 0.9-1.2 0.6 0 1.1 0.4 1.2 1q0.3 2.7 0.7 5.4 0.1 0.3 0 0.6zm-1.1-11c-0.2 0.3-0.5 0.6-0.9 0.6-0.6 0-1.1-0.5-1.1-1.1q0-2.8 0.2-5.6c0-0.6 0.5-1 1.1-1 0.6 0 1 0.6 1 1.1q-0.2 2.7-0.2 5.5 0 0.3-0.1 0.5zm0.9-11.1c-0.2 0.4-0.7 0.6-1.2 0.6-0.5-0.1-0.9-0.7-0.8-1.3q0.4-2.8 1.2-5.5c0.1-0.5 0.7-0.9 1.3-0.7 0.5 0.1 0.9 0.7 0.7 1.3q-0.7 2.6-1.2 5.3 0 0.1 0 0.3zm2.9-10.8c-0.2 0.5-0.8 0.8-1.3 0.6-0.6-0.2-0.9-0.8-0.7-1.4q1.1-2.6 2.4-5.2c0.2-0.5 0.9-0.7 1.4-0.4 0.5 0.2 0.7 0.9 0.4 1.4q-1.2 2.4-2.2 5 0 0 0 0z"/>
				<path id="Path 6504" class="s3" d="m79.7 194.1q0 0.1-0.1 0.2-0.8 1.1-1.5 2.2c-0.4 0.5-1 0.6-1.5 0.3-0.5-0.3-0.6-0.9-0.3-1.4q0.8-1.2 1.6-2.4c0.4-0.4 1-0.5 1.5-0.2 0.4 0.3 0.5 0.9 0.3 1.3z"/>
			</g>
			<g id="Group 1490">
				<path id="Path 6505" class="s4" d="m91.1 193.6c0 0 24.2 6.7 21.2 25-3 18.3-10.6 36-5.6 43.2 0 0-44-22-24.3-66.7z"/>
				<path id="Path 6506" class="s5" d="m108 143.4c0 0 24.6-2.1 29.2 4.9 4.4 6.6 11 62.1 11.6 67.5 0 0.2-0.1 0.5-0.4 0.5-1.9 0.4-4-0.2-5.5-1.5-7.2-6.7-28.4-26.6-32.9-34.7-5.5-9.8-2-36.7-2-36.7z"/>
				<path id="Path 6507" class="s6" d="m142.8 196.8c-0.3 0-0.6-0.2-0.6-0.5-0.1-0.3-4.2-30.6-6.5-43.6-0.3-1.9-1.7-3.4-3.6-3.8-3.5-0.9-10.5-2.4-17.5-2.6-0.3 0-0.5-0.2-0.5-0.5 0-0.3 0.2-0.6 0.5-0.6 7.1 0.2 14.2 1.7 17.8 2.6 2.3 0.5 4 2.4 4.4 4.7 2.3 13 6.4 43.3 6.5 43.6q0 0.3-0.1 0.5-0.2 0.1-0.4 0.2z"/>
				<path id="Path 6508" class="s5" d="m64 189.2c-1.1 9.2-13.2 35.8-17.3 44.6-0.8 1.8-2.5 3.1-4.5 3.5-0.2 0.1-0.5-0.1-0.5-0.3-1.5-5.2-16.5-59-15-66.8 1.6-8.3 25.1-15.6 25.1-15.6 0 0 13.5 23.5 12.2 34.6z"/>
				<path id="Path 6509" class="s6" d="m40 217.1c-0.3 0.1-0.6-0.1-0.7-0.4-0.1-0.3-7.8-29.9-10.6-42.8-0.5-2.3 0.4-4.7 2.2-6 3.7-2.7 9.3-6.4 15.5-9.2 0.3-0.1 0.6 0 0.7 0.3 0.1 0.3 0 0.6-0.3 0.8-6.4 2.8-12.2 6.8-15.2 9-1.5 1.1-2.2 3-1.8 4.9 2.8 12.8 10.5 42.4 10.6 42.7q0 0.3-0.1 0.5-0.1 0.2-0.3 0.2z"/>
				<path id="Path 6510" class="s7" d="m91.6 62.2c5.9 10.4 11 22.9 13.9 37.3 9 44.7 7.8 79.2 7.2 89-0.1 1.7-1.1 3.3-2.7 4q-19 9-39.9 8.3c-2.6-0.1-5-1.7-6.1-4.1-4.9-10.3-18.2-40.9-26.6-83.7-2.8-14.4-2.8-27.7-1.4-39.5 20.9-10.6 43.1-11.5 55.6-11.3z"/>
				<path id="Path 6511" class="s8" d="m36 73.5c3.1-26.2 13.3-45.1 17-51.2 0.8-1.2 2.4-1.6 3.5-0.7 5.7 4.2 22.3 17.7 35.1 40.6-12.5-0.2-34.7 0.7-55.6 11.3z"/>
				<g id="Group 1488">
					<path id="Path 6512" class="s9" d="m66.8 82.3c12.4-2.5 24.3 4.9 26.6 16.5 2.3 11.6-5.9 23-18.3 25.5-12.5 2.4-24.4-5-26.7-16.6-2.3-11.6 5.9-23 18.4-25.4z"/>
					<path id="Path 6513" class="s10" d="m66.8 86.1c10-2 19.5 3.9 21.3 13.2 1.8 9.2-4.7 18.3-14.6 20.2-9.9 2-19.5-3.9-21.3-13.1-1.8-9.3 4.7-18.4 14.6-20.3z"/>
					<path id="Path 6514" class="s6" d="m82 97.3c-0.3 0.2-0.7 0.1-0.8-0.2-2.6-4.9-8.5-7.5-14.2-6.4q-2.2 0.4-4.1 1.5c-0.2 0.2-0.6 0.1-0.7-0.2-0.2-0.3-0.1-0.6 0.2-0.8q2-1.1 4.4-1.6c6.2-1.2 12.5 1.6 15.4 7 0.1 0.2 0.1 0.4-0.1 0.6q0 0.1-0.1 0.1z"/>
				</g>
				<g id="Group 1489">
					<path id="Path 6515" class="s9" d="m76.5 131.6c8.2-1.6 16.1 3.3 17.7 10.9 1.5 7.7-4 15.2-12.2 16.8-8.2 1.7-16.1-3.2-17.6-10.9-1.5-7.6 3.9-15.2 12.1-16.8z"/>
					<path id="Path 6516" class="s11" d="m76.6 134.1c6.5-1.3 12.8 2.6 14 8.7 1.2 6.1-3.1 12.1-9.6 13.4-6.6 1.3-12.9-2.6-14.1-8.7-1.2-6.1 3.1-12.1 9.7-13.4z"/>
					<path id="Path 6517" class="s6" d="m86.6 141.7c-0.2 0.2-0.6 0.1-0.7-0.2-1.7-3.2-5.5-4.9-9.2-4.1q-1.4 0.2-2.6 0.9c-0.3 0.2-0.6 0.1-0.8-0.2-0.1-0.3 0-0.6 0.2-0.8q1.4-0.7 3-1.1c4.2-0.8 8.4 1.2 10.4 4.8 0.1 0.2 0.1 0.4-0.1 0.6q0 0.1-0.2 0.1z"/>
				</g>
			</g>
		</g>
	</g>
</svg>