<svg version="1.2" xmlns="http://www.w3.org/2000/svg" viewBox="0 0 200 200" width="200" height="200">
	<title>serv1</title>
	<defs>
		<linearGradient id="g1" x1="42.9" y1="48.9" x2="42.9" y2="80" gradientUnits="userSpaceOnUse">
			<stop offset="0" stop-color="#29db74"/>
			<stop offset=".3" stop-color="#25ca8b"/>
			<stop offset="1" stop-color="#1da1c9"/>
			<stop offset="1" stop-color="#1da1ca"/>
		</linearGradient>
		<linearGradient id="g2" x1="95.1" y1="32.2" x2="95.1" y2="165" gradientUnits="userSpaceOnUse">
			<stop offset="0" stop-color="#120648"/>
			<stop offset=".6" stop-color="#493eff"/>
			<stop offset="1" stop-color="#00ded3"/>
		</linearGradient>
		<linearGradient id="g3" x1="91.9" y1="29.3" x2="91.9" y2="161.1" gradientUnits="userSpaceOnUse">
			<stop offset="0" stop-color="#29db74"/>
			<stop offset=".3" stop-color="#25ca8b"/>
			<stop offset="1" stop-color="#1da1c9"/>
			<stop offset="1" stop-color="#1da1ca"/>
		</linearGradient>
		<clipPath clipPathUnits="userSpaceOnUse" id="cp1">
			<path d="m24 38h132v132h-132z"/>
		</clipPath>
		<linearGradient id="g4" x1="90" y1="38.1" x2="90" y2="169.8" gradientUnits="userSpaceOnUse">
			<stop offset="0" stop-color="#00ded3"/>
			<stop offset=".6" stop-color="#493eff"/>
			<stop offset="1" stop-color="#120648"/>
		</linearGradient>
		<linearGradient id="g5" x1="123.8" y1="145.9" x2="123.8" y2="153.9" gradientUnits="userSpaceOnUse">
			<stop offset="0" stop-color="#29db74"/>
			<stop offset=".3" stop-color="#25ca8b"/>
			<stop offset="1" stop-color="#1da1c9"/>
			<stop offset="1" stop-color="#1da1ca"/>
		</linearGradient>
	</defs>
	<style>
		.s0 { opacity: .8;fill: url(#g1) } 
		.s1 { opacity: .7;fill: url(#g2) } 
		.s2 { opacity: .9;fill: url(#g3) } 
		.s3 { fill: url(#g4) } 
		.s4 { fill: url(#g5) } 
		.s5 { fill: #f8d323 } 
	</style>
	<g id="Group 951">
		<g id="Group 946" style="opacity: .1">
			<path id="Path 5472" class="s0" d="m54.5 52.9c4.4 3.7 12.5 14.1 9.7 20.3-3.7 8.5-20.2 7.1-27 6-6.2-1-13.1-4.1-15.3-10.6-6.4-19.1 22.3-24.3 32.6-15.7z"/>
			<path id="Path 5473" class="s1" d="m24.8 98.6c-2.3-3.6-1.8-8.4 0-12.2 1.8-3.8 4.8-6.9 7.7-10 12.1-12.3 9.3-37.8 28.3-43.3 14.9-4.3 30.5 9.3 45.7 9.2 12.2-0.2 24.7-0.2 36.2 4 11.5 4.2 21.9 13.4 23.9 25.5 2 11.4-3.9 22.8-11.3 31.7-7.4 8.9-16.5 16.4-23.2 25.8-5.9 8.5-9.7 18.3-16.6 26-6.9 7.6-18.5 12.7-27.5 7.8-7.2-3.9-10.4-12.5-16.3-18.1-5.5-5.3-13.2-7.6-19.7-11.6-9.1-5.7-8.3-12.1-11.5-20.8-2.7-7.4-11.8-7.6-15.7-14z"/>
			<path id="Path 5474" class="s2" d="m96.8 40.3q3.2-1 6.5-2c9.5-2.8 22.8-11.6 33.1-8.3 13 4 21.8 18.3 19.6 31.7-1.4 8.1-6.3 15.3-8 23.4-1.6 7.8-0.1 16 1.9 23.8 2 7.8 4.6 15.5 5.2 23.6 0.6 8-1 16.6-6.5 22.6-5.5 5.9-15.4 8.2-22 3.6-4.1-2.9-6.3-7.6-9.7-11.2-8.6-9.1-23.1-9.2-35.5-6.9-12.3 2.4-25 6.6-37.2 3.9-8-1.8-15.8-7.4-16.7-15.4-0.7-5.8 2.4-11.3 5.3-16.3 8.1-14 13.1-29.8 22.1-43.4 10.1-15.2 24.9-23.4 41.9-29.1z"/>
		</g>
		<g id="Group 585">
			<g id="Group 584">
				<g id="Group 583" clip-path="url(#cp1)">
					<path id="Path 5189" class="s3" d="m53.7 120.9l6.9 6.8 11.6-11.7c-11.2-13.4-13.6-31.1-8.3-46l15.5 15.5c-0.1 15.6 12.6 29.3 29.1 29.3 9.8 0 18.4-4.8 23.7-12.2l-17.6-17.6-12.2 12.2-45.5-45.4v10.3h-8v-24h23.9v8h-10.3l39.9 39.8 12.2-12.2 21.5 21.5c3.5-10.1 1.4-21.9-6.9-30.2-10.7-10.6-27.4-11.3-38.8-2.3l-12.8-12.8c18.5-16.2 46.7-15.5 64.4 2.3 8.9 8.9 13.9 20.8 13.9 33.4 0 26.1-21.3 47.3-47.4 47.3-11.3 0-22.1-4-30.6-11.3l-11.7 11.8 6.9 6.8-29.6 29.6-19.4-19.3z"/>
				</g>
			</g>
			<path id="Rectangle 73" class="s4" d="m91.9 145.9h63.8v8h-63.8z"/>
			<path id="Rectangle 74" class="s5" d="m68 161.9h47.9v8h-47.9z"/>
		</g>
	</g>
</svg>