<svg version="1.2" xmlns="http://www.w3.org/2000/svg" viewBox="0 0 200 200" width="200" height="200">
	<title>serv3</title>
	<defs>
		<linearGradient id="g1" x1="43.7" y1="48.7" x2="43.7" y2="80.6" gradientUnits="userSpaceOnUse">
			<stop offset="0" stop-color="#29db74"/>
			<stop offset=".3" stop-color="#25ca8b"/>
			<stop offset="1" stop-color="#1da1c9"/>
			<stop offset="1" stop-color="#1da1ca"/>
		</linearGradient>
		<linearGradient id="g2" x1="97.2" y1="31.7" x2="97.2" y2="167.5" gradientUnits="userSpaceOnUse">
			<stop offset="0" stop-color="#120648"/>
			<stop offset=".6" stop-color="#493eff"/>
			<stop offset="1" stop-color="#00ded3"/>
		</linearGradient>
		<linearGradient id="g3" x1="93.8" y1="28.7" x2="93.8" y2="163.6" gradientUnits="userSpaceOnUse">
			<stop offset="0" stop-color="#29db74"/>
			<stop offset=".3" stop-color="#25ca8b"/>
			<stop offset="1" stop-color="#1da1c9"/>
			<stop offset="1" stop-color="#1da1ca"/>
		</linearGradient>
		<linearGradient id="g4" x1="98.8" y1="48.6" x2="98.8" y2="150.1" gradientUnits="userSpaceOnUse">
			<stop offset="0" stop-color="#00ded3"/>
			<stop offset=".6" stop-color="#493eff"/>
			<stop offset="1" stop-color="#120648"/>
		</linearGradient>
		<linearGradient id="g5" x1="49.6" y1="48.6" x2="49.6" y2="150.1" gradientUnits="userSpaceOnUse">
			<stop offset="0" stop-color="#00ded3"/>
			<stop offset=".6" stop-color="#493eff"/>
			<stop offset="1" stop-color="#120648"/>
		</linearGradient>
		<linearGradient id="g6" x1="98.8" y1="48.6" x2="98.8" y2="70" gradientUnits="userSpaceOnUse">
			<stop offset="0" stop-color="#29db74"/>
			<stop offset=".3" stop-color="#25ca8b"/>
			<stop offset="1" stop-color="#1da1c9"/>
			<stop offset="1" stop-color="#1da1ca"/>
		</linearGradient>
		<linearGradient id="g7" x1="49.6" y1="48.6" x2="49.6" y2="70" gradientUnits="userSpaceOnUse">
			<stop offset="0" stop-color="#29db74"/>
			<stop offset=".3" stop-color="#25ca8b"/>
			<stop offset="1" stop-color="#1da1c9"/>
			<stop offset="1" stop-color="#1da1ca"/>
		</linearGradient>
	</defs>
	<style>
		.s0 { opacity: .8;fill: url(#g1) } 
		.s1 { opacity: .7;fill: url(#g2) } 
		.s2 { opacity: .9;fill: url(#g3) } 
		.s3 { fill: url(#g4) } 
		.s4 { fill: url(#g5) } 
		.s5 { fill: #144ed9 } 
		.s6 { fill: url(#g6) } 
		.s7 { fill: url(#g7) } 
		.s8 { fill: #28d67b } 
		.s9 { fill: #f8af23 } 
		.s10 { fill: #9e9e9e } 
		.s11 { fill: #3f3679 } 
	</style>
	<g id="Group 958">
		<g id="Group 946" style="opacity: .1">
			<path id="Path 5472" class="s0" d="m55.6 52.9c4.5 3.8 12.8 14.3 9.9 20.7-3.8 8.7-20.7 7.3-27.5 6.2-6.5-1.1-13.5-4.3-15.7-10.9-6.6-19.5 22.7-24.8 33.3-16z"/>
			<path id="Path 5473" class="s1" d="m25.2 99.6c-2.3-3.7-1.9-8.6 0-12.5 1.8-3.9 4.9-7.1 7.9-10.2 12.4-12.6 9.5-38.6 28.9-44.3 15.3-4.4 31.3 9.5 46.8 9.4 12.5-0.2 25.3-0.2 37 4.1 11.8 4.3 22.4 13.8 24.5 26.1 2 11.7-4 23.3-11.6 32.4-7.5 9.1-16.9 16.7-23.7 26.4-6 8.6-10 18.7-17 26.6-7 7.8-18.9 13-28.2 8-7.3-4-10.5-12.8-16.6-18.5-5.7-5.4-13.5-7.8-20.1-11.9-9.3-5.8-8.6-12.3-11.8-21.3-2.8-7.5-12.1-7.8-16.1-14.3z"/>
			<path id="Path 5474" class="s2" d="m98.9 40q3.2-1.1 6.6-2.1c9.7-2.8 23.4-11.8 33.8-8.5 13.3 4.2 22.4 18.8 20.1 32.4-1.4 8.3-6.4 15.7-8.1 23.9-1.7 8.1-0.2 16.5 1.9 24.5 2 7.9 4.7 15.8 5.3 24 0.6 8.3-1.1 17-6.7 23.1-5.6 6.1-15.7 8.5-22.5 3.7-4.1-2.9-6.4-7.7-9.9-11.4-8.8-9.3-23.6-9.4-36.3-7-12.6 2.4-25.5 6.7-38.1 3.9-8.1-1.8-16.1-7.6-17-15.7-0.7-5.9 2.4-11.5 5.4-16.7 8.3-14.3 13.5-30.5 22.6-44.3 10.4-15.6 25.5-24 42.9-29.8z"/>
		</g>
		<g id="Group 588">
			<rect id="Path 5213" class="s3" x="41.4" y="48.6" width="114.7" height="101.4" rx="6.5"></rect>
			<path id="Path 5214" class="s4" d="m57.7 150.1h-9.8c-3.5 0-6.5-3-6.5-6.5v-88.5c0-3.5 3-6.5 6.5-6.5h9.8c-3.6 0-6.5 3-6.5 6.5v88.5c0 3.5 2.9 6.5 6.5 6.5z"/>
			<path id="Path 5215" class="s5" d="m146.4 143.6v-88.5c0-3.5-2.9-6.5-6.5-6.5h9.8c3.5 0 6.5 3 6.5 6.5v88.5c0 3.5-3 6.5-6.5 6.5h-9.8c3.6 0 6.5-3 6.5-6.5z"/>
			<path id="Path 5216" class="s6" d="m156.2 70h-114.8v-14.9c0-3.5 3-6.5 6.5-6.5h101.8c3.5 0 6.5 3 6.5 6.5z"/>
			<path id="Path 5217" class="s7" d="m51.2 55.1v14.9h-9.8v-14.9c0-3.5 3-6.5 6.5-6.5h9.8c-3.6 0-6.5 3-6.5 6.5z"/>
			<path id="Path 5218" class="s8" d="m139.9 48.6h9.8c3.5 0 6.5 3 6.5 6.5v14.9h-9.8v-14.9c0-3.5-2.9-6.5-6.5-6.5z"/>
			<circle id="Path 5219" class="s9" cx="54.9" cy="59.3" r="4.5"/>
			<circle id="Path 5220" class="s9" cx="68.6" cy="59.3" r="4.5"/>
			<circle id="Path 5221" class="s9" cx="82.3" cy="59.3" r="4.5"/>
			<path id="Path 5222" class="s10" d="m145.2 61.3h-23.9c-1.1 0-2-0.9-2-2 0-1.1 0.9-1.9 2-1.9h23.9c1.1 0 2 0.8 2 1.9 0 1.1-0.9 2-2 2z"/>
			<path id="Path 5223" class="s9" d="m86 119.4h51.9v13.4c0 0.9-0.7 1.7-1.6 1.7h-50.3z"/>
			<path id="Path 5224" fill-rule="evenodd" class="s9" d="m59.7 126.9c0-8.7 7.1-15.9 15.9-15.9 8.8 0 15.9 7.2 15.9 15.9 0 8.8-7.1 15.9-15.9 15.9-8.8 0-15.9-7.1-15.9-15.9zm15.9 7.6c4.2 0 7.5-3.4 7.5-7.6 0-4.1-3.3-7.5-7.5-7.5-4.2 0-7.6 3.4-7.6 7.5 0 4.2 3.4 7.6 7.6 7.6z"/>
			<path id="Rectangle 86" class="s9" d="m126.8 95h7.3v24.4h-7.3z"/>
			<path id="Rectangle 87" class="s9" d="m115.1 99.6h7.3v19.8h-7.3z"/>
			<path id="Rectangle 88" class="s9" d="m103.6 104.2h7.3v15.2h-7.3z"/>
			<path id="Rectangle 89" class="s9" d="m91.9 107.1h7.3v12.3h-7.3z"/>
			<path id="Path 5225" class="s9" d="m131.9 75.9l1.2 2.5c0.2 0.5 0.7 0.8 1.2 0.9l2.7 0.4c1.3 0.2 1.9 1.8 0.9 2.7l-2 1.9c-0.3 0.4-0.5 0.9-0.4 1.5l0.4 2.7c0.3 1.3-1.1 2.3-2.3 1.7l-2.4-1.3c-0.5-0.3-1.1-0.3-1.5 0l-2.5 1.3c-1.1 0.6-2.5-0.4-2.3-1.7l0.5-2.7c0.1-0.6-0.1-1.1-0.5-1.5l-2-1.9c-0.9-0.9-0.4-2.5 0.9-2.7l2.8-0.4c0.5-0.1 0.9-0.4 1.2-0.9l1.2-2.5c0.6-1.2 2.3-1.2 2.9 0z"/>
			<path id="Path 5226" class="s11" d="m45.4 156.3c0 0.4-0.3 0.8-0.8 0.8h-9.8c-0.4 0-0.8-0.4-0.8-0.8 0-0.4 0.4-0.8 0.8-0.8h9.8c0.5 0 0.8 0.4 0.8 0.8z"/>
			<path id="Path 5227" class="s11" d="m163.6 156.3c0 0.4-0.4 0.8-0.8 0.8h-9.8c-0.5 0-0.8-0.4-0.8-0.8 0-0.4 0.3-0.8 0.8-0.8h9.8c0.4 0 0.8 0.4 0.8 0.8z"/>
			<path id="Path 5228" class="s11" d="m145.9 156.3c0 0.4-0.3 0.8-0.8 0.8h-92.6c-0.5 0-0.8-0.4-0.8-0.8 0-0.4 0.3-0.8 0.8-0.8h92.6c0.5 0 0.8 0.4 0.8 0.8z"/>
			<path id="Path 5229" fill-rule="evenodd" class="s11" d="m162.8 150.9h-128c-0.4 0-0.8-0.4-0.8-0.8 0-0.5 0.4-0.8 0.8-0.8h8.6c-1.7-1.4-2.8-3.4-2.8-5.7v-88.5c0-4 3.3-7.3 7.3-7.3h101.8c4 0 7.3 3.3 7.3 7.3v88.5c0 2.3-1.1 4.3-2.8 5.7h8.6c0.4 0 0.8 0.3 0.8 0.8 0 0.4-0.4 0.8-0.8 0.8zm-120.5-81.7h113v-14.1c0-3.1-2.5-5.6-5.6-5.6h-101.8c-3.1 0-5.6 2.5-5.6 5.6zm5.6 80.1h101.8c3.1 0 5.6-2.6 5.6-5.7v-72.8h-113v6.1h28.8c0.5 0 0.8 0.4 0.8 0.8 0 0.5-0.3 0.8-0.8 0.8h-28.8v65.1c0 3.1 2.5 5.7 5.6 5.7z"/>
			<path id="Path 5230" fill-rule="evenodd" class="s11" d="m60.2 59.3c0 2.9-2.4 5.3-5.3 5.3-2.9 0-5.3-2.4-5.3-5.3 0-2.9 2.4-5.2 5.3-5.2 2.9 0 5.3 2.3 5.3 5.2zm-1.6 0c0-2-1.7-3.6-3.7-3.6-2 0-3.7 1.6-3.7 3.6 0 2.1 1.7 3.7 3.7 3.7 2 0 3.7-1.6 3.7-3.7z"/>
			<path id="Path 5231" fill-rule="evenodd" class="s11" d="m73.9 59.3c0 2.9-2.4 5.3-5.3 5.3-2.9 0-5.3-2.4-5.3-5.3 0-2.9 2.4-5.2 5.3-5.2 2.9 0 5.3 2.3 5.3 5.2zm-1.6 0c0-2-1.7-3.6-3.7-3.6-2 0-3.6 1.6-3.6 3.6 0 2.1 1.6 3.7 3.6 3.7 2 0 3.7-1.6 3.7-3.7z"/>
			<path id="Path 5232" fill-rule="evenodd" class="s11" d="m87.6 59.3c0 2.9-2.4 5.3-5.3 5.3-2.9 0-5.3-2.4-5.3-5.3 0-2.9 2.4-5.2 5.3-5.2 2.9 0 5.3 2.3 5.3 5.2zm-1.6 0c0-2-1.7-3.6-3.7-3.6-2 0-3.6 1.6-3.6 3.6 0 2.1 1.6 3.7 3.6 3.7 2 0 3.7-1.6 3.7-3.7z"/>
			<path id="Path 5233" fill-rule="evenodd" class="s11" d="m148 59.3c0 1.5-1.3 2.8-2.8 2.8h-23.9c-1.5 0-2.8-1.3-2.8-2.8 0-1.5 1.3-2.8 2.8-2.8h23.9c1.5 0 2.8 1.3 2.8 2.8zm-1.6 0c0-0.6-0.6-1.1-1.2-1.1h-23.9c-0.6 0-1.1 0.5-1.1 1.1 0 0.6 0.5 1.2 1.1 1.2h23.9c0.6 0 1.2-0.6 1.2-1.2z"/>
			<path id="Path 5234" class="s11" d="m76.2 77.7c0-0.4 0.4-0.8 0.9-0.8h3.6c0.5 0 0.8 0.4 0.8 0.8 0 0.5-0.3 0.8-0.8 0.8h-3.6c-0.5 0-0.9-0.3-0.9-0.8z"/>
			<path id="Path 5235" fill-rule="evenodd" class="s11" d="m138.7 119.4v13.4c0 1.4-1.1 2.5-2.4 2.5h-46.3c-2.9 5-8.2 8.3-14.4 8.3-9.2 0-16.7-7.5-16.7-16.7 0-9.2 7.5-16.7 16.7-16.7 6.2 0 11.5 3.4 14.4 8.4h1.1v-11.5c0-0.5 0.4-0.8 0.8-0.8h7.3c0.5 0 0.9 0.3 0.9 0.8v11.5h2.7v-14.4c0-0.4 0.4-0.8 0.8-0.8h7.3c0.5 0 0.9 0.4 0.9 0.8v14.4h2.4v-19c0-0.5 0.4-0.8 0.9-0.8h7.3c0.4 0 0.8 0.3 0.8 0.8v19h2.8v-23.6c0-0.4 0.3-0.8 0.8-0.8h7.3c0.4 0 0.8 0.4 0.8 0.8v23.6h3c0.4 0 0.8 0.3 0.8 0.8zm-11.1-0.8h5.7v-22.8h-5.7zm-11.7 0h5.7v-18.2h-5.7zm-11.5 0h5.7v-13.5h-5.7zm-11.7 0h5.7v-10.7h-5.7zm-2 8.4c0-8.4-6.8-15.1-15.1-15.1-8.3 0-15.1 6.7-15.1 15.1 0 8.3 6.8 15 15.1 15 8.3 0 15.1-6.7 15.1-15zm46.4-6.8h-46.2c0.9 2.1 1.4 4.4 1.4 6.8 0 2.3-0.5 4.6-1.4 6.7h45.4c0.4 0 0.8-0.4 0.8-0.8z"/>
			<path id="Path 5236" fill-rule="evenodd" class="s11" d="m83.9 126.9c0 4.6-3.7 8.4-8.3 8.4-4.6 0-8.4-3.8-8.4-8.4 0-4.6 3.8-8.3 8.4-8.3 4.6 0 8.3 3.7 8.3 8.3zm-1.6 0c0-3.7-3-6.7-6.7-6.7-3.7 0-6.7 3-6.7 6.7 0 3.7 3 6.8 6.7 6.8 3.7 0 6.7-3.1 6.7-6.8z"/>
			<path id="Path 5237" fill-rule="evenodd" class="s11" d="m139.1 80.5c0.3 0.9 0 1.8-0.6 2.5l-2 1.9c-0.2 0.2-0.3 0.5-0.2 0.7l0.4 2.7c0.2 0.9-0.2 1.9-0.9 2.4-0.8 0.5-1.7 0.6-2.6 0.2l-2.4-1.3c-0.2-0.1-0.5-0.1-0.7 0l-2.5 1.3q-0.5 0.3-1.1 0.3c-0.5 0-1-0.2-1.4-0.5-0.8-0.5-1.1-1.5-1-2.4l0.5-2.7c0-0.2-0.1-0.5-0.3-0.7l-1.9-1.9c-0.7-0.7-0.9-1.6-0.6-2.5 0.3-0.9 1-1.5 1.9-1.6l2.7-0.4c0.3-0.1 0.5-0.2 0.6-0.5l1.3-2.4c0.4-0.9 1.2-1.4 2.1-1.4 1 0 1.8 0.5 2.2 1.4l1.2 2.4c0.1 0.3 0.4 0.4 0.6 0.5l2.7 0.4c1 0.1 1.7 0.7 2 1.6zm-1.6 0.5c-0.1-0.3-0.3-0.5-0.6-0.5l-2.7-0.4c-0.8-0.1-1.5-0.6-1.8-1.3l-1.3-2.5c-0.1-0.3-0.4-0.5-0.7-0.5-0.3 0-0.6 0.2-0.7 0.5l-1.2 2.5c-0.4 0.7-1 1.2-1.8 1.3l-2.8 0.4c-0.3 0-0.5 0.2-0.6 0.5-0.1 0.3 0 0.6 0.2 0.8l2 2c0.5 0.5 0.8 1.3 0.7 2.1l-0.5 2.7c0 0.3 0.1 0.6 0.3 0.8 0.3 0.2 0.6 0.2 0.9 0l2.4-1.2c0.7-0.4 1.5-0.4 2.2 0l2.5 1.2c0.3 0.2 0.6 0.2 0.8 0 0.3-0.2 0.4-0.5 0.3-0.8l-0.4-2.7c-0.2-0.8 0.1-1.6 0.7-2.1l1.9-2c0.3-0.2 0.3-0.5 0.2-0.8z"/>
		</g>
	</g>
</svg>