<svg version="1.2" xmlns="http://www.w3.org/2000/svg" viewBox="0 0 807 894" width="807" height="894">
	<title>vector-image</title>
	<defs>
		<linearGradient id="g1" x1="496.4" y1="83.4" x2="496.4" y2="585.4" gradientUnits="userSpaceOnUse">
			<stop offset="0" stop-color="#00ded3"/>
			<stop offset=".6" stop-color="#493eff"/>
			<stop offset="1" stop-color="#120648"/>
		</linearGradient>
		<linearGradient id="g2" x1="167.8" y1="264.6" x2="167.8" y2="286.1" gradientUnits="userSpaceOnUse">
			<stop offset="0" stop-color="#29db74"/>
			<stop offset=".3" stop-color="#25ca8b"/>
			<stop offset="1" stop-color="#1da1c9"/>
			<stop offset="1" stop-color="#1da1ca"/>
		</linearGradient>
		<linearGradient id="g3" x1="165.5" y1="140.2" x2="165.5" y2="247.1" gradientUnits="userSpaceOnUse">
			<stop offset="0" stop-color="#29db74"/>
			<stop offset=".3" stop-color="#25ca8b"/>
			<stop offset="1" stop-color="#1da1c9"/>
			<stop offset="1" stop-color="#1da1ca"/>
		</linearGradient>
		<linearGradient id="g4" x1="542.7" y1="452.6" x2="542.7" y2="645.5" gradientUnits="userSpaceOnUse">
			<stop offset="0" stop-color="#29db74"/>
			<stop offset=".3" stop-color="#25ca8b"/>
			<stop offset="1" stop-color="#1da1c9"/>
			<stop offset="1" stop-color="#1da1ca"/>
		</linearGradient>
		<linearGradient id="g5" x1="435.5" y1="119.8" x2="477.9" y2="119.9" gradientUnits="userSpaceOnUse">
			<stop offset="0" stop-color="#29db74"/>
			<stop offset=".3" stop-color="#25ca8b"/>
			<stop offset="1" stop-color="#1da1c9"/>
			<stop offset="1" stop-color="#1da1ca"/>
		</linearGradient>
		<linearGradient id="g6" x1="208.3" y1="385.3" x2="208.3" y2="432.4" gradientUnits="userSpaceOnUse">
			<stop offset="0" stop-color="#29db74"/>
			<stop offset=".3" stop-color="#25ca8b"/>
			<stop offset="1" stop-color="#1da1c9"/>
			<stop offset="1" stop-color="#1da1ca"/>
		</linearGradient>
		<linearGradient id="g7" x1="168.8" y1="400.2" x2="168.8" y2="539.7" gradientUnits="userSpaceOnUse">
			<stop offset="0" stop-color="#29db74"/>
			<stop offset=".3" stop-color="#25ca8b"/>
			<stop offset="1" stop-color="#1da1c9"/>
			<stop offset="1" stop-color="#1da1ca"/>
		</linearGradient>
	</defs>
	<style>
		.s0 { opacity: .6;fill: url(#g1) } 
		.s1 { opacity: .7;fill: #25cb89 } 
		.s2 { fill: #dadfe3 } 
		.s3 { fill: #3e5dae } 
		.s4 { fill: #6786d8 } 
		.s5 { fill: #33478d } 
		.s6 { fill: #25cb89 } 
		.s7 { fill: url(#g2) } 
		.s8 { fill: url(#g3) } 
		.s9 { fill: #f8bf93 } 
		.s10 { fill: #ffc73c } 
		.s11 { fill: #f0b028 } 
		.s12 { fill: #324b76 } 
		.s13 { fill: #ffffff } 
		.s14 { fill: #a9c8e4 } 
		.s15 { fill: #cadff1 } 
		.s16 { opacity: .1;fill: url(#g4) } 
		.s17 { fill: #698ce0 } 
		.s18 { fill: #7196f1 } 
		.s19 { fill: #96c1f6 } 
		.s20 { fill: url(#g5) } 
		.s21 { fill: #fbd1a9 } 
		.s22 { fill: #edb488 } 
		.s23 { fill: #1b1f4a } 
		.s24 { fill: url(#g6) } 
		.s25 { fill: #d0e1fa } 
		.s26 { fill: url(#g7) } 
	</style>
	<g id="Vector Object">
		<g id="Group 1420">
			<path id="Path 6361" class="s0" d="m368.3 121.1c71.8-58.2 176.7-47.9 234.2 23.1 15.6 19.3 14.9 47.5 31.7 63.6 30.9 29.7 81.6 31.4 110.7 67.3 67.4 83.2 53.8 206-30.4 274.3-82.4 66.8-177.9 21.9-282.1 12.3-78-7.2-139.6 4.6-188.8-56.2-50-61.6-59.8-103.1 22.4-203 79.1-96.1 53.6-141.9 102.3-181.4z"/>
			<path id="Path 6362" class="s1" d="m398.3 294.2c-7.8 0.7-43.1-31.1-52.7-44.2 4.2-3.2 12.8-16.4 10.6-15.8-2.2 0.7-17.3 2.2-20.6 3.1-4.1-1.9-16.7-20.1-16.9-23.6 3.3-2.1 8.7-5.2 19.3-17.3-8-1-20.6-0.1-27.3 1.1-2.3-2.9-20.1-29.5-20.9-43.9 7 0.5 19.6 0.2 30.9-0.4-8-11.2-21.1-14.2-34.1-20.2-0.2-7.8 0.4-25.8 10.4-35 2.6-2.3 13.5 13.7 22.1 27.5 2.8-6.7 0.8-14.5 3-20.4 23.9 8.9 32.2 26.5 38.4 33.4 0.9 11.2-5.9 30.7-3.2 29.9 7.4-6.2 7.6-8.5 13.5-16 2.9 1.9 9.1 11.7 15.8 26.1-3.1 11.1-4 10.9-8.2 26 8.5-3 8.9-4.4 15.6-10 14.5 25.1 19.2 81 4.3 99.7z"/>
			<path id="Path 6363" class="s1" d="m333.1 471.2c5.4-11.9 7.4-13 8.3-26.4-20 11.9-19.4 13.1-34.2 21.8-23.3-4-39.8-9.3-43.7-12.7 8.5-11.4 11.8-12.6 17.9-25.7 0.1-4.1-25.5 13.3-41.9 16.2-12.3-6.3-40.9-11.4-63-42.5 7.8-5.4 19.8-5.5 28.4-12.2-23.2-7-50.5-16.6-48.1-21.2 9.4-17.9 35.1-25.7 46.3-28.4 13.6 16.4 23.1 34.1 42.3 41.3-3.5-16.4-7.9-34.8-11.3-44.7 21-4.3 66.2 11 71.2 13.2 0.9 10.2 4.4 28.7 9 39.8 13.4-20 15.7-28.9 17.5-34.4 5.1-1.2 36.1 10 40.5 15.2-0.1 5.1 3.5 27.5 3.5 30.9-0.1 3.4 15.6-14 18.6-21.4 22.5 8.8 82 47.4 84 58.9-21.2 28.8-103.6 43.5-145.3 32.3z"/>
			<path id="Path 6364" class="s1" d="m557.3 245.6c5 7.1 5 8.7 12.4 13.8-0.1-15.7-1-15.7-1-27.3 10.2-12.1 18.9-19.8 22.2-20.9 3.7 8.7 3.3 11.1 8.8 19 2.3 1.5 0.9-19.2 4.8-29.7 7.8-5 20.5-19.8 46-22 0.4 6.3-3.5 13.3-2.6 20.5 11.9-11 26.7-23.6 28.6-20.6 7.1 11.5 3 29 0.7 36.5-14.1 2.3-27.6 1.7-38.2 10.4 10.7 3.5 22.8 7.2 29.6 8.6-4.6 13.6-28.8 34.6-31.8 36.7-6.1-2.9-18-7.2-26-8.3 7 14.6 11.3 18.9 14 21.8-1.1 3.4-18.1 17.5-22.6 18.3-2.9-1.8-17.1-7.3-19-8.5-2-1.2 2.8 13.8 6 18.1-12.7 10-55.2 31.3-62.5 28.6-9.5-22 9.9-74.7 30.6-95z"/>
			<path id="Path 6365" class="s1" d="m392.3 350.5c9.8 11.6 16.5 21 20.3 26.2 1.2 1.7 2.4 3.3 2.7 3.7 0.7 0.5 0.9 1.4 0.6 2.2-0.3 0.4-0.6 0.7-1.1 0.9-0.4 0.1-0.8 0.1-1.3-0.1-0.6-0.4-0.9-0.8-3.8-4.7q-9.6-13.5-19.9-25.6c-5 7.8-26.2 38.5-38.2 22.9-12.1-15.6 26.9-22.8 37-24.3q-11.9-14.1-24.5-26.3c-4.1 7.6-21.2 37.2-33.7 22-12.5-15 22.8-21.8 32.3-23.4q-12.7-12.2-26.1-22.5c-1.1 8.1-6.6 37.4-22.6 26.4-16.1-11.1 13.1-24.4 21-27.7q-12.9-9.9-26.4-18c-1.1 8-6.2 37.6-22.4 26.8-16.1-10.8 12.5-24.4 20.6-27.9q-14.8-8.7-30.1-15.2c-0.6 8.6-3.5 37.3-20.3 27.9-16.4-9.2 9.2-24.4 17.8-29q-14.3-5.9-29-9.8c-0.8 7-5 34-20.6 22.1-14.7-11.2 9-20.1 17.7-22.9q-9.8-2.5-19.8-4.1-0.3 0-0.5-0.2c-8.7 3.8-34.1 13.3-33.5-5.4 0.7-18.7 25.5-3.3 33.7 2.3q0.4-0.2 0.9-0.1 10 1.6 19.8 4.1c-5.6-7.5-19.2-28.1-0.9-28.6 19.2-0.5 7.9 22.6 4.1 29.5q15 4 29.5 10c-2.4-8.6-9.8-39.1 8.7-33.4 18.7 5.8-1.2 28.4-6.7 34.3q15.3 6.5 30.2 15.2c-1.3-10.1-3.7-38.5 13.2-30.8 17.1 7.9-3.3 26.6-10.4 32.5q13.3 8 26.2 17.9c0-8.4 1.1-40.8 17.5-30.1 16.6 10.7-9.5 27.4-16 31.2q7.4 5.7 14.7 12.1 6.3 5.4 12 10.9c0.4-10.2 3.1-45 19.3-34.6 16.6 10.6-10.6 31-17.7 36.1 9.3 9 17.4 17.8 24.1 25.7 1.4-11.3 7.2-48.2 22.8-37.1 15.9 11.3-13.2 33.3-21.2 38.9z"/>
			<path id="Path 6366" class="s1" d="m518 373.8c22.7-10.4 21.2 38.3 20.2 53.2 10.6-8.5 23.1-17.8 37.3-27.2-8-8.2-37.9-40.9-14.1-50.5 23.3-9.5 18.3 35.9 16.5 48.9q8.6-5.5 18-11 10.8-6.4 21.7-11.9c-7.4-6.5-36.9-34.2-13-44 23.7-9.7 17.2 32.2 15.2 42.9q18.9-9.5 38-16.6c-7.7-9.3-29.4-38.2-5.6-44.2 23.6-5.9 13.7 30.1 9.5 42.7q21.2-7.6 42.5-12.3c-5.7-8.8-25.7-42.7-0.4-45.5 25.2-2.9 8.3 34.5 3.1 44.9q20.1-4.2 40.2-5.8c-3.1-9.7-12-42.1 12.4-36.8 23.4 5.1 1 28.2-8 36.5q13.2-0.8 26.4-0.5 0.6 0.1 1.1 0.4c11.9-5.3 24-20.1 20.3 4-3.6 24.1-10.5 7-20.7 0q-0.4 0.2-0.8 0.2-13.2-0.4-26.4 0.5c10.6 5.6 38.8 22.7 17.2 33.5-22.9 11.5-21.7-24-21-33.3q-19.8 1.5-39.6 5.7c9.8 7.9 39.1 33.5 15.7 41.4-23.7 8.1-20.6-29.5-19.1-40.7q-21.3 4.7-42.3 12.3c9.5 6.5 42.9 30.7 19.6 40.7-23.4 10-22.8-29.2-22.2-39.7q-19.3 7.1-38.3 16.7c9.4 6.1 43.7 30.2 20.3 40.5-23.2 10.3-23.1-28.6-22.7-39.3q-19.6 10-38.8 22.6c11.8 4.3 55.3 21.5 35.8 37.8-19.8 16.5-34.6-25.7-38-36.4q-19.1 12.7-37.7 27.8c12.5 4.4 60.8 23.1 41.6 40.1-19.2 17.1-38.9-27.3-43.5-38.6q-16.1 13.1-31.8 28c-4.5 4.4-5.1 4.9-6 5.1-0.5 0.2-1.1 0.1-1.6-0.2-0.6-0.3-1-0.7-1.1-1.3-0.3-1.1 0.2-2.2 1.1-2.7 0.6-0.4 2.5-2.2 4.5-4.1 6.1-5.8 17-16.2 32.3-28.6-8.9-9.2-41-44.4-17.8-55.2z"/>
		</g>
		<g id="Group 1422">
			<path id="Path 6367" fill-rule="evenodd" class="s2" d="m372.3 631.1h-7.3v10.3l-13.5 7.9-5.5-3.2c-3.8 1.4-8 2.3-12.2 2.9v4.5h-19.2l-0.1-4.5c-4.2-0.6-8.4-1.5-12.2-2.9l-5.5 3.2-13.6-7.9v-10.3h-7.4v-10.4l-0.1-11.1h7.3v-10.3l13.5-7.9 5.5 3.2c3.9-1.4 8-2.3 12.3-2.9v-4.5h19.2v4.5c4.3 0.6 8.4 1.5 12.3 2.9l5.4-3.2 13.7 7.9h-0.1 0.2l-0.3 10.3h7.6v11.1zm-32.5-6.8c1.9-1.2 3.4-2.5 4.5-3.9-1.1-1.4-2.6-2.8-4.6-3.9-8.7-5-22.8-5-31.4 0-2 1.1-3.5 2.4-4.6 3.8 1.1 1.5 2.7 2.8 4.7 4 8.7 5 22.7 5 31.4 0zm-56.4 6.8l0.2 0.1zm81.1 0.3l0.4-0.3z"/>
			<g id="Group 1421">
				<path id="Path 6368" fill-rule="evenodd" class="s3" d="m349.8 639.2l5.5 3.2-13.6 7.8-5.5-3.1c-3.8 1.3-7.9 2.3-12.2 2.9v4.5h-19.2v-4.5c-4.3-0.6-8.4-1.6-12.3-2.9l-5.5 3.1-13.6-7.8 5.5-3.2c-2.4-2.2-4.1-4.6-5.1-7.1h-7.8v-11.1h7.7c1-2.5 2.7-4.9 5-7.2l-2.6-1.5h-2.9v-12l10.3-1.8 1.2 5.5 2.1-1.2 5.5 3.2c3.8-1.4 7.9-2.4 12.2-3v-4.5h19.2v4.5c4.3 0.6 8.5 1.6 12.3 3l5.5-3.2 1.7 1-0.8-1.9 12.9-1.6-0.4 10.3 0.2 0.1-0.2 0.1v2.4l-5.2 0.6h-0.1c2.4 2.3 4.1 4.7 5.2 7.2h7.7l0.1 11.1h-7.8c-1 2.5-2.7 4.9-5 7.1zm-19.9-21.8c-8.7-5-22.7-5-31.4 0-8.6 5.1-8.6 13.2 0.1 18.2 8.7 5 22.8 5 31.4 0 8.6-5 8.6-13.2-0.1-18.2z"/>
				<path id="Path 6369" fill-rule="evenodd" class="s4" d="m349.8 628.8l5.5 3.2-13.6 7.8-5.5-3.1c-3.8 1.3-7.9 2.3-12.2 2.9v4.5h-19.2v-4.5c-4.3-0.6-8.4-1.6-12.3-2.9l-5.5 3.1-13.6-7.8 5.5-3.2c-2.4-2.2-4.1-4.6-5.1-7.1h-7.8l-0.1-11.1h7.8c1-2.5 2.7-4.9 5-7.1l-5.5-3.2 13.6-7.9 5.5 3.2c3.8-1.4 7.9-2.4 12.2-3v-4.4h19.2v4.4c4.3 0.6 8.5 1.6 12.3 3l5.5-3.2 13.6 7.9-5.5 3.2c2.4 2.2 4.1 4.6 5.2 7.1h7.7l0.1 11.1h-7.8c-1 2.5-2.7 4.9-5 7.1zm-19.9-21.8c-8.7-5-22.7-5-31.4 0-8.6 5.1-8.6 13.2 0.1 18.2 8.7 5 22.8 5 31.4 0 8.6-5 8.6-13.1-0.1-18.2z"/>
				<path id="Path 6370" class="s5" d="m355.3 632v10.4l-13.6 7.8v-10.4z"/>
				<path id="Rectangle 164" class="s5" d="m354.8 621.7h7.8v10.4h-7.8z"/>
				<path id="Path 6371" class="s5" d="m287 639.8v10.4l-13.6-7.8v-10.4z"/>
				<path id="Rectangle 165" class="s5" d="m304.8 644.1h19.2v10.4h-19.2z"/>
			</g>
		</g>
		<g id="Group 1424">
			<path id="Path 6372" fill-rule="evenodd" class="s2" d="m113.7 791.3h-6.1v8.6l-11.4 6.6-4.6-2.7c-3.2 1.2-6.7 2-10.3 2.5v3.8h-16.1v-3.8c-3.6-0.5-7.1-1.3-10.3-2.5l-4.6 2.7-11.5-6.6v-8.6h-6.2v-8.8-9.3h6.1v-8.6l11.4-6.7 4.6 2.7c3.2-1.1 6.7-2 10.3-2.5l-0.1-3.7h16.2v3.7c3.6 0.5 7.1 1.4 10.3 2.5l4.6-2.7 11.4 6.7h0.2l-0.3 8.6h6.4v9.3zm-27.3-5.7c1.6-1 2.9-2.1 3.8-3.3-0.9-1.2-2.2-2.3-3.9-3.3-7.3-4.2-19.1-4.2-26.4 0-1.6 1-2.9 2.1-3.8 3.3 0.9 1.2 2.2 2.3 3.9 3.3 7.3 4.2 19.1 4.2 26.4 0zm-47.4 5.7l0.2 0.1zm68.1 0.2l0.3-0.2z"/>
			<g id="Group 1423">
				<path id="Path 6373" fill-rule="evenodd" class="s3" d="m94.8 798l4.6 2.7-11.4 6.6-4.6-2.7c-3.2 1.2-6.7 2-10.3 2.5v3.8h-16.1v-3.8c-3.6-0.5-7.1-1.3-10.3-2.5l-4.6 2.7-11.5-6.6 4.6-2.7c-2-1.8-3.4-3.8-4.3-5.9h-6.5v-9.3l6.5-0.1c0.8-2.1 2.2-4.1 4.2-5.9l-2.2-1.3h-2.4v-10.1l8.6-1.5 1 4.6 1.8-1 4.6 2.7c3.2-1.2 6.7-2 10.3-2.5l-0.1-3.8h16.2v3.8c3.6 0.5 7.1 1.3 10.3 2.5l4.6-2.7 1.4 0.8-0.6-1.6 10.8-1.3-0.3 8.6 0.1 0.1-0.1 0.1-0.1 2-4.3 0.5v0.1c2 1.8 3.4 3.8 4.3 5.9h6.5v9.4h-6.5c-0.8 2.1-2.2 4.1-4.2 5.9zm-16.7-18.2c-7.3-4.2-19.1-4.2-26.4 0-7.2 4.2-7.2 11 0.1 15.2 7.3 4.2 19.1 4.2 26.4 0 7.2-4.2 7.2-11-0.1-15.2z"/>
				<path id="Path 6374" fill-rule="evenodd" class="s4" d="m94.8 789.3l4.6 2.7-11.4 6.6-4.6-2.7c-3.2 1.2-6.7 2-10.3 2.5v3.8h-16.1v-3.8c-3.6-0.5-7.1-1.3-10.3-2.5l-4.6 2.7-11.5-6.6 4.6-2.7c-2-1.9-3.4-3.9-4.3-6h-6.5v-9.3h6.5c0.8-2.1 2.2-4.1 4.2-6l-4.6-2.6 11.4-6.6 4.6 2.6c3.2-1.1 6.7-2 10.3-2.4l-0.1-3.8h16.2v3.8c3.6 0.4 7.1 1.3 10.3 2.4l4.6-2.6 11.4 6.6-4.5 2.6c2 1.9 3.4 3.9 4.3 6h6.5v9.3h-6.5c-0.8 2.1-2.2 4.1-4.2 6zm-16.7-18.3c-7.3-4.2-19.1-4.2-26.4 0-7.2 4.3-7.2 11.1 0.1 15.3 7.3 4.2 19.1 4.2 26.4 0 7.2-4.2 7.2-11-0.1-15.3z"/>
				<path id="Path 6375" class="s5" d="m99.4 792v8.7l-11.4 6.6v-8.7z"/>
				<path id="Rectangle 166" class="s5" d="m99 783.3h6.5v8.8h-6.5z"/>
				<path id="Path 6376" class="s5" d="m42.1 798.6v8.7l-11.5-6.6v-8.7z"/>
				<path id="Rectangle 167" class="s5" d="m57 802.2h16.1v8.7h-16.1z"/>
			</g>
		</g>
		<g id="Group 1426">
			<path id="Path 6377" fill-rule="evenodd" class="s2" d="m575.5 684.4h-5.8v8.1l-10.7 6.3-4.4-2.5c-3 1.1-6.3 1.8-9.7 2.3v3.6h-15.2v-3.6c-3.4-0.5-6.7-1.2-9.7-2.3l-4.3 2.5-10.8-6.3v-8.1h-5.9v-8.2l-0.1-8.8h5.8v-8.2l10.7-6.2 4.4 2.5c3-1.1 6.3-1.9 9.7-2.3v-3.6h15.2v3.6c3.4 0.4 6.7 1.2 9.8 2.3l4.3-2.5 10.8 6.2h-0.1 0.2l-0.3 8.2h6l0.1 8.8zm-25.8-5.5q2.3-1.3 3.6-3c-0.9-1.1-2.1-2.2-3.7-3.1-6.9-4-18-4-24.8 0q-2.4 1.3-3.7 3c0.9 1.2 2.1 2.2 3.7 3.1 6.9 4 18 4 24.9 0zm-44.7 5.5l0.2 0.1zm64.3 0.1l0.2-0.1z"/>
			<g id="Group 1425">
				<path id="Path 6378" fill-rule="evenodd" class="s3" d="m557.6 690.8l4.4 2.5-10.7 6.2-4.4-2.5c-3 1.1-6.3 1.9-9.7 2.4v3.5h-15.2v-3.5c-3.4-0.5-6.7-1.3-9.8-2.4l-4.3 2.6-10.8-6.3 4.4-2.5c-1.9-1.8-3.3-3.7-4.1-5.6h-6.1v-8.8h6c0.8-2 2.2-3.9 4-5.7l-2-1.2h-2.3v-9.5l8.1-1.4 1 4.3 1.6-0.9 4.4 2.5c3-1.1 6.3-1.9 9.7-2.3v-3.6h15.2v3.6c3.4 0.4 6.7 1.2 9.7 2.3l4.3-2.5 1.4 0.8-0.6-1.6 10.2-1.2-0.3 8.1 0.1 0.1-0.1 0.1-0.1 1.9-4.1 0.5c1.9 1.8 3.3 3.7 4.1 5.7h6.1l0.1 8.8h-6.2c-0.8 1.9-2.1 3.8-4 5.6zm-15.7-17.2c-6.9-4-18-4-24.9 0-6.8 3.9-6.8 10.4 0.1 14.4 6.9 3.9 18 3.9 24.9 0 6.8-4 6.8-10.5-0.1-14.4z"/>
				<path id="Path 6379" fill-rule="evenodd" class="s4" d="m557.6 682.6l4.4 2.5-10.7 6.2-4.4-2.5c-3 1.1-6.3 1.9-9.7 2.3v3.6h-15.2v-3.6c-3.4-0.4-6.7-1.2-9.8-2.3l-4.3 2.5-10.8-6.2 4.4-2.5c-1.9-1.8-3.3-3.7-4.1-5.7h-6.1l-0.1-8.8h6.1c0.8-1.9 2.2-3.8 4-5.6l-4.3-2.5 10.7-6.2 4.4 2.5c3-1.1 6.3-1.9 9.7-2.4v-3.5h15.2v3.5c3.4 0.5 6.7 1.3 9.7 2.4l4.3-2.5 10.8 6.2-4.3 2.5c1.9 1.8 3.3 3.7 4.1 5.6h6.1l0.1 8.8h-6.2c-0.8 2-2.1 3.9-4 5.7zm-15.7-17.3c-6.9-3.9-18-3.9-24.9 0-6.8 4-6.8 10.5 0.1 14.4 6.9 4 18 4 24.9 0 6.8-3.9 6.8-10.4-0.1-14.4z"/>
				<path id="Path 6380" class="s5" d="m562 685.1v8.2l-10.7 6.2v-8.2z"/>
				<path id="Rectangle 168" class="s5" d="m561.6 676.9h6.2v8.3h-6.2z"/>
				<path id="Path 6381" class="s5" d="m507.9 691.3v8.3l-10.8-6.3v-8.2z"/>
				<path id="Rectangle 169" class="s5" d="m522 694.7h15.2v8.2h-15.2z"/>
			</g>
		</g>
		<g id="Group 1428">
			<path id="Path 6382" fill-rule="evenodd" class="s2" d="m499.5 807.8h-3.7v5.2l-6.9 4-2.8-1.6c-1.9 0.7-4 1.2-6.2 1.5v2.2h-9.7v-2.2c-2.2-0.3-4.3-0.8-6.2-1.5l-2.8 1.6-6.9-4v-5.2h-3.7v-5.3l-0.1-5.6h3.7v-5.2l6.9-4 2.8 1.6c1.9-0.7 4-1.2 6.2-1.5v-2.2h9.7v2.2c2.2 0.3 4.3 0.8 6.2 1.5l2.8-1.6 6.9 4h-0.1 0.2l-0.2 5.2h3.8l0.1 5.6zm-16.5-3.4q1.5-0.9 2.3-2-0.9-1.1-2.4-2c-4.4-2.5-11.5-2.5-15.9 0q-1.5 0.9-2.3 2 0.8 1.1 2.4 2c4.4 2.5 11.5 2.5 15.9 0zm-28.6 3.4l0.1 0.1zm41.1 0.1l0.2-0.1z"/>
			<g id="Group 1427">
				<path id="Path 6383" fill-rule="evenodd" class="s3" d="m488 811.9l2.8 1.6-6.8 4-2.8-1.6c-2 0.7-4.1 1.2-6.2 1.5v2.2h-9.7v-2.2c-2.2-0.3-4.3-0.8-6.3-1.5l-2.7 1.6-6.9-4 2.7-1.6q-1.8-1.7-2.5-3.6h-4v-5.6h3.9q0.8-1.9 2.6-3.6l-1.3-0.8h-1.5v-6.1l5.2-0.9 0.6 2.8 1-0.6 2.8 1.6c2-0.7 4.1-1.2 6.2-1.5v-2.3h9.7l0.1 2.3c2.1 0.3 4.2 0.8 6.2 1.5l2.7-1.6 0.9 0.5-0.4-1 6.5-0.8-0.2 5.2 0.1 0.1h-0.1v1.2l-2.6 0.4q1.8 1.7 2.6 3.6h3.9v5.6h-3.9q-0.8 1.9-2.6 3.6zm-10-11c-4.4-2.6-11.5-2.6-15.9 0-4.4 2.5-4.4 6.6 0 9.2 4.4 2.5 11.5 2.5 15.9 0 4.4-2.6 4.4-6.7 0-9.2z"/>
				<path id="Path 6384" fill-rule="evenodd" class="s4" d="m488 806.6l2.8 1.6-6.8 4-2.8-1.6c-2 0.7-4.1 1.2-6.2 1.5v2.3h-9.7v-2.3c-2.2-0.3-4.3-0.8-6.3-1.5l-2.7 1.6-6.9-4 2.7-1.6q-1.8-1.7-2.5-3.6h-4v-5.6h3.9q0.8-1.9 2.6-3.6l-2.8-1.6 6.8-4 2.8 1.6c2-0.7 4.1-1.2 6.2-1.5v-2.2h9.7l0.1 2.2c2.1 0.3 4.2 0.8 6.2 1.5l2.7-1.6 6.9 4-2.7 1.6q1.8 1.7 2.6 3.6h3.9v5.6h-3.9q-0.8 1.9-2.6 3.6zm-10-11c-4.4-2.5-11.5-2.5-15.9 0-4.4 2.6-4.4 6.7 0 9.2 4.4 2.6 11.5 2.6 15.9 0 4.4-2.5 4.4-6.6 0-9.2z"/>
				<path id="Path 6385" class="s5" d="m490.8 808.2v5.3l-6.8 4v-5.3z"/>
				<path id="Rectangle 170" class="s5" d="m490.6 803h3.9v5.3h-3.9z"/>
				<path id="Path 6386" class="s5" d="m456.3 812.2v5.3l-6.9-4v-5.3z"/>
				<path id="Rectangle 171" class="s5" d="m465.3 814.4h9.7v5.2h-9.7z"/>
			</g>
		</g>
		<g id="Group 1430">
			<path id="Path 6387" fill-rule="evenodd" class="s2" d="m113.7 598.3h-3.7v5.2l-6.9 4-2.7-1.6c-2 0.7-4.1 1.2-6.2 1.5v2.3h-9.7l-0.1-2.3c-2.1-0.3-4.2-0.8-6.2-1.5l-2.7 1.6-6.9-4v-5.2h-3.8v-5.2-5.7h3.7v-5.2l6.8-4 2.8 1.6c1.9-0.7 4-1.2 6.2-1.4v-2.3h9.7v2.3c2.2 0.2 4.3 0.7 6.2 1.4l2.8-1.6 6.9 4h0.1l-0.2 5.2h3.9v5.7zm-16.5-3.5q1.5-0.9 2.3-2-0.8-1.1-2.3-2c-4.4-2.5-11.6-2.5-15.9 0q-1.5 0.9-2.3 2 0.8 1.1 2.3 2c4.4 2.5 11.5 2.5 15.9 0zm-28.5 3.5h0.1zm41 0.1l0.2-0.1z"/>
			<g id="Group 1429">
				<path id="Path 6388" fill-rule="evenodd" class="s3" d="m102.3 602.4l2.8 1.6-6.9 4-2.8-1.6c-1.9 0.7-4 1.2-6.2 1.5v2.2h-9.7v-2.2c-2.2-0.3-4.3-0.8-6.2-1.5l-2.8 1.6-6.9-4 2.8-1.6q-1.8-1.7-2.6-3.6h-3.9v-5.6h3.9q0.7-1.9 2.5-3.6l-1.3-0.8h-1.5v-6.1l5.2-0.9 0.6 2.8 1.1-0.6 2.8 1.6c1.9-0.7 4-1.2 6.2-1.5v-2.3h9.7v2.3c2.2 0.3 4.3 0.8 6.2 1.5l2.8-1.6 0.8 0.5-0.4-1 6.6-0.8-0.2 5.2 0.1 0.1h-0.1l-0.1 1.3-2.6 0.3q1.8 1.7 2.6 3.6h3.9l0.1 5.6h-4q-0.7 1.9-2.5 3.6zm-10.1-11c-4.4-2.6-11.5-2.6-15.9 0-4.3 2.5-4.3 6.6 0.1 9.2 4.4 2.5 11.5 2.5 15.9 0 4.3-2.6 4.3-6.7-0.1-9.2z"/>
				<path id="Path 6389" fill-rule="evenodd" class="s4" d="m102.3 597.1l2.8 1.6-6.9 4-2.8-1.6c-1.9 0.7-4 1.2-6.2 1.5v2.3h-9.7v-2.3c-2.2-0.3-4.3-0.8-6.2-1.5l-2.8 1.6-6.9-4 2.8-1.6q-1.8-1.7-2.6-3.6h-3.9l-0.1-5.6h4q0.7-1.9 2.5-3.6l-2.8-1.6 6.9-4 2.8 1.6c1.9-0.7 4-1.2 6.2-1.5v-2.2h9.7v2.2c2.2 0.3 4.3 0.8 6.2 1.5l2.8-1.6 6.9 4-2.8 1.6q1.8 1.7 2.6 3.6h3.9l0.1 5.6h-4q-0.7 1.9-2.5 3.6zm-10.1-11c-4.4-2.5-11.5-2.5-15.9 0-4.3 2.6-4.3 6.7 0.1 9.2 4.4 2.6 11.5 2.6 15.9 0 4.3-2.5 4.3-6.6-0.1-9.2z"/>
				<path id="Path 6390" class="s5" d="m105.1 598.7v5.3l-6.9 4v-5.3z"/>
				<path id="Rectangle 172" class="s5" d="m104.8 593.5h4v5.3h-4z"/>
				<path id="Path 6391" class="s5" d="m70.5 602.7v5.3l-6.9-4v-5.3z"/>
				<path id="Rectangle 173" class="s5" d="m79.5 604.9h9.7v5.2h-9.7z"/>
			</g>
		</g>
		<g id="Group 1435">
			<g id="Group 1431">
				<path id="Path 6392" class="s6" d="m188.2 264.5q2.3 3.7 2.6 7.5 0.2 4.2-2.2 6.1c-0.2 0.1-0.4 0.2-0.6 0.3h0.1l-13.4 6.9-12.8-20.4 13.7-7.1v0.1c1.6-0.7 3.7-0.5 6.4 0.9q3.9 1.9 6.2 5.7z"/>
				<path id="Path 6393" class="s6" d="m208.1 193.6q1.4 24.2-19.5 28.5c-2 0.5-3.3 2.1-3.4 4.6l-0.6 13.2-14 7.2-7.2-21.4 7.2-2.1-1.7-9.3c-0.7-4.1 0.6-7.4 3.6-7.5q13.9-0.6 12.9-15.6-1.1-18.8-27.2-34.9c-3-1.8-5.4-5.2-6.6-8.6l-6.3 3-5.6-10.3 13.2-6.7c1.3-0.9 3.3-1 5.5 0.1q0.1 0.1 0.3 0.2 22.5 12 34.4 24.5 13.7 14.5 15 35.1z"/>
			</g>
			<g id="Group 1434">
				<g id="Group 1433">
					<g id="Group 1432">
						<path id="Path 6394" class="s7" d="m174.7 285.3q-2.5 1.8-7.1-0.4-3.9-2-6.2-5.8-2.4-3.9-2.6-7.7-0.3-4.2 2.1-6 2.5-1.8 7.2 0.5 3.9 2 6.2 5.7 2.3 3.7 2.5 7.6 0.3 4.2-2.1 6.1z"/>
						<path id="Path 6395" class="s8" d="m174.7 229.3c-2 0.4-3.3 2-3.4 4.6l-0.7 13.2-12-6-3.6-19.6c-0.7-4.2 0.6-7.4 3.6-7.6q13.8-0.6 12.9-15.6-1.1-18.7-27.2-34.9c-4.3-2.6-7.6-8.5-7.5-13l0.2-5.3c0.2-4.3 3.4-6.1 7.5-4.1q0.1 0 0.2 0.1 22.6 12.1 34.5 24.6 13.7 14.4 14.9 35 1.5 24.3-19.4 28.6z"/>
					</g>
				</g>
			</g>
		</g>
		<g id="Group 1437">
			<path id="Path 6396" class="s2" d="m554.4 861.4c-2.9 0.8-6.3 0.8-9.6 0h-0.1c-3.3-0.8-6.4-2.3-8.6-4.3-2.2-2.1-3-4.3-2.5-6.1q0-0.1 0-0.2l2.6-11.1q0.1-0.3 0.2-0.6l0.7-3.2 17.9-75.5q0.3-1.3 1.3-2.3l19.8-29.5 4.6 35.4q0.4 1.3 0.1 2.5l-17.8 75.3q-0.1 0.1-0.1 0.2l-0.7 3.2-2.8 11.7q0 0.1-0.1 0.2c-0.3 1.9-2 3.5-4.9 4.3z"/>
			<g id="Group 1436">
				<path id="Path 6397" class="s9" d="m568.4 722l4.7 36.8-25.5-6z"/>
				<path id="Path 6398" class="s10" d="m547.2 753.7c0.5-1.9 2.2-3.5 5-4.4 5.8-1.7 13.9 0.2 18.3 4.3 2.2 2.1 3 4.3 2.5 6.2l-17.5 74-26.1-4.5z"/>
				<path id="Path 6399" class="s11" d="m555.2 835.2l-7.3-2.7 19.3-81.2c1.2 0.6 2.3 1.4 3.3 2.3 2.2 2.1 3 4.3 2.5 6.2z"/>
				<path id="Path 6400" class="s11" d="m537 830.6l-7.6-1.3 17.8-75.6c0.5-1.9 2.2-3.5 5-4.4 1.3-0.4 2.7-0.6 4.1-0.6z"/>
				<path id="Path 6401" class="s12" d="m534.4 824.9c5.7-1.8 13.9 0.2 18.2 4.3 2.2 2 3 4.2 2.6 6.2l-0.8 3.2-1.2-0.3q-1.2 0.9-3 1.4c-5.7 1.8-13.9-0.2-18.3-4.3q-1.3-1.3-2-2.6l-1.3-0.3 0.8-3.2c0.4-2 2.1-3.6 5-4.4z"/>
				<path id="Path 6402" class="s10" d="m525.9 844.2l2.7-11.7 25.8 6.1-2.8 11.7z"/>
				<path id="Ellipse 321" class="s10" d="m554.3 839c-1 4.1-7.5 6-14.6 4.3-7.2-1.7-12.1-6.4-11.1-10.5 0.9-4.1 7.5-6.1 14.6-4.4 7.2 1.7 12.1 6.4 11.1 10.6z"/>
				<path id="Ellipse 322" class="s13" d="m551.6 850.3c-1 4.2-7.5 6.1-14.6 4.4-7.2-1.7-12.1-6.4-11.1-10.5 1-4.2 7.5-6.1 14.6-4.4 7.2 1.7 12.1 6.4 11.1 10.5z"/>
				<path id="Ellipse 323" class="s10" d="m551.6 850.6c-1 4-7.5 5.8-14.6 4.1-7.2-1.7-12.2-6.3-11.2-10.3 1-4 7.5-5.8 14.6-4.1 7.1 1.7 12.1 6.3 11.2 10.3z"/>
				<path id="Path 6403" class="s12" d="m569.7 732c-1.8 0.3-4.4 0.1-6.9-1.7l5.6-8.3z"/>
			</g>
		</g>
		<g id="Group 1443">
			<path id="Path 6404" class="s2" d="m145.8 674.6v9.4c0 2.5-1.7 4.9-4.9 6.8l-40.5 23.5c-2.4 1.5-5.5 2.4-8.7 2.7-5.4 0.6-11.1-0.3-15.3-2.7l-40.7-23.5c-3.4-1.9-5.1-4.5-5.1-7.1v-9.1q0-0.7 0.2-1.3c0.4-2.1 2-4.2 4.8-5.8l40.4-23.5c2.8-1.6 6.3-2.6 10-2.8 5-0.4 10.2 0.6 14.1 2.8l40.7 23.5c3 1.7 4.7 4 5 6.2q0 0.5 0 0.9z"/>
			<g id="Group 1442">
				<g id="Group 1438">
					<path id="Path 6405" class="s14" d="m128.3 682.2c0 2.4-1.7 4.9-4.9 6.8l-40.5 23.5c-2.5 1.4-5.5 2.3-8.7 2.7-5.4 0.6-11.2-0.3-15.4-2.7l-40.7-23.5c-3.4-2-5.1-4.6-5-7.2v-9.1l7 1.1 38.4-22.3c2.8-1.6 6.3-2.5 9.9-2.8 5.1-0.3 10.3 0.6 14.2 2.8l37.4 21.6-0.4-2.6 8.7 2.3z"/>
					<path id="Path 6406" class="s15" d="m123.4 679.6l-40.5 23.5c-2.5 1.4-5.5 2.3-8.7 2.7-5.4 0.6-11.2-0.3-15.4-2.7l-40.7-23.5c-3.8-2.2-5.5-5.3-4.9-8.2 0.5-2.1 2.1-4.1 4.9-5.8l40.4-23.5c2.8-1.6 6.3-2.5 9.9-2.8 5.1-0.3 10.3 0.6 14.2 2.8l40.7 23.5c3 1.8 4.7 4 5 6.3 0.3 2.7-1.3 5.6-4.9 7.7z"/>
				</g>
				<g id="Group 1441">
					<g id="Group 1440">
						<g id="Group 1439">
							<path id="Path 6407" fill-rule="evenodd" class="s5" d="m91.9 660.9c0 6.2-8 11.3-18.3 12.1v-1.2h-5.7v1.2c-4.7-0.3-8.9-1.6-12.1-3.4-3.8-2.3-6.2-5.3-6.2-8.7-0.1-6.8 9.4-12.3 21-12.3 5.9 0 11.2 1.4 15 3.6 3.9 2.3 6.2 5.3 6.3 8.7zm-4.9 0c0-2.6-1.8-5-4.8-6.7-3-1.7-7-2.8-11.5-2.8-9 0-16.3 4.3-16.3 9.5 0 2.6 1.8 5 4.8 6.7 3 1.7 7.1 2.8 11.6 2.8 9 0 16.3-4.3 16.2-9.5z"/>
							<path id="Path 6408" class="s5" d="m75.7 693.9c0 1.6-2.1 2.8-4.8 2.8-1.3 0-2.5-0.3-3.4-0.8-0.9-0.5-1.4-1.2-1.4-2l-0.1-12.5c0-0.9 0.8-1.7 2-2.2v4.1h5.7l-0.1-4.1q0.3 0.1 0.6 0.3c0.9 0.5 1.4 1.2 1.4 1.9z"/>
							<path id="Path 6409" class="s5" d="m73.7 683.3h-5.7v-4.1l-0.1-6.2v-1.2h5.7v1.2 6.2z"/>
						</g>
					</g>
				</g>
			</g>
		</g>
		<g id="Group 1446">
			<path id="Path 6410" class="s2" d="m396.3 843v9.4c0 2.5-1.7 5-4.9 6.9l-40.5 23.5c-2.5 1.4-5.5 2.3-8.7 2.7-5.4 0.6-11.2-0.3-15.3-2.7l-40.8-23.5c-3.4-2-5-4.6-5-7.2v-9.1q0-0.7 0.1-1.3c0.5-2.1 2.1-4.2 4.9-5.8l40.4-23.5c2.8-1.6 6.3-2.5 10-2.8 5-0.4 10.2 0.6 14.1 2.8l40.7 23.5c3 1.8 4.7 4 5 6.3q0 0.4 0 0.8z"/>
			<g id="Group 1445">
				<g id="Group 1444">
					<path id="Path 6411" class="s14" d="m378.2 850.8c-0.1 2.5-1.7 4.9-5 6.8l-40.4 23.5c-2.5 1.5-5.6 2.4-8.8 2.7-5.3 0.6-11.1-0.3-15.3-2.7l-40.7-23.5c-3.4-1.9-5.1-4.5-5-7.1v-9.1l7 1.1 38.4-22.3c2.8-1.6 6.3-2.6 9.9-2.8 5-0.4 10.3 0.6 14.1 2.8l37.4 21.6-0.3-2.6 8.7 2.2z"/>
					<path id="Path 6412" class="s15" d="m373.2 848.2l-40.4 23.5c-2.5 1.5-5.6 2.4-8.8 2.7-5.3 0.7-11.1-0.2-15.3-2.7l-40.7-23.5c-3.9-2.2-5.5-5.2-4.9-8.1 0.4-2.1 2-4.2 4.8-5.8l40.5-23.5c2.8-1.6 6.3-2.6 9.9-2.8 5-0.4 10.3 0.6 14.1 2.8l40.8 23.5c3 1.7 4.6 4 4.9 6.2 0.4 2.8-1.2 5.6-4.9 7.7z"/>
				</g>
				<path id="Path 6413" class="s5" d="m351.8 851.9c-0.7 0.6-2 1-3.5 0.9l-18.7-1.7c-0.8-0.1-1.5 0-2.2 0.2-0.7 0.2-1.2 0.5-1.6 0.9l-8.5 9.7c-0.7 0.8-2 1.2-3.3 1.2-0.9-0.1-1.8-0.3-2.5-0.6-0.5-0.3-0.8-0.7-1-1.2l-3-10.8c-0.1-0.4-0.5-0.8-1-1.1-0.5-0.4-1.2-0.6-2-0.6l-18.7-1.7q-1.2-0.2-1.9-0.6-0.8-0.5-1-1c-0.3-0.9 0.2-1.9 1.8-2.4l16.9-4.9c0.7-0.3 1.3-0.6 1.6-1q0.4-0.6 0.3-1.2l-3-10.8c-0.3-1 0.5-1.7 1.7-2.1 1.3-0.5 3-0.5 4.3 0.3l13.4 7.7c0.6 0.3 1.2 0.5 1.9 0.6 0.8 0.1 1.6 0 2.3-0.2l16.8-5c1.6-0.4 3.2-0.2 4.2 0.4q0.2 0.1 0.4 0.3c0.7 0.6 1 1.4 0.3 2.1l-8.5 9.8q-0.3 0.3-0.4 0.6c-0.2 0.7 0.2 1.3 1 1.8l13.4 7.8c1.4 0.7 1.4 1.8 0.5 2.6z"/>
			</g>
		</g>
		<g id="Group 1449">
			<path id="Path 6414" class="s2" d="m463.5 722.2v9.4c-0.1 2.4-1.7 4.9-5 6.8l-40.4 23.5c-2.5 1.4-5.6 2.3-8.8 2.7-5.3 0.6-11.1-0.3-15.3-2.7l-40.7-23.5c-3.4-2-5.1-4.6-5-7.1v-9.2q-0.1-0.6 0.1-1.3c0.4-2.1 2-4.1 4.8-5.7l40.5-23.6c2.7-1.6 6.3-2.5 9.9-2.8 5-0.3 10.3 0.6 14.1 2.8l40.7 23.6c3.1 1.7 4.7 3.9 5 6.2q0.1 0.4 0.1 0.9z"/>
			<g id="Group 1448">
				<g id="Group 1447">
					<path id="Path 6415" class="s14" d="m447.6 728.5c0 2.5-1.7 4.9-4.9 6.8l-40.5 23.5c-2.4 1.5-5.5 2.4-8.7 2.7-5.4 0.6-11.2-0.3-15.3-2.7l-40.7-23.5c-3.4-1.9-5.1-4.5-5.1-7.1v-9.2l7.1 1.2 38.3-22.3c2.8-1.6 6.3-2.6 10-2.8 5-0.4 10.2 0.5 14.1 2.8l37.4 21.6-0.4-2.6 8.7 2.2z"/>
					<path id="Path 6416" class="s15" d="m442.7 725.9l-40.5 23.5c-2.4 1.5-5.5 2.4-8.7 2.7-5.4 0.6-11.2-0.3-15.3-2.7l-40.7-23.5c-3.9-2.2-5.5-5.2-4.9-8.1 0.4-2.2 2-4.2 4.8-5.8l40.4-23.5c2.8-1.6 6.3-2.6 10-2.8 5-0.4 10.2 0.5 14.1 2.8l40.7 23.5c3 1.7 4.7 4 5 6.2 0.4 2.8-1.3 5.6-4.9 7.7z"/>
				</g>
				<path id="Path 6417" class="s5" d="m410.1 728c-1.2 1-3.6 1.7-6.1 1.1l-37-7.9q-1.3-0.3-2.2-0.9c-0.9-0.5-1.5-1.1-1.7-1.7-0.5-1.2 0-2.5 1.6-3.5l23.9-13.8c1.2-0.7 2.6-1 4-0.9 1.3 0 2.5 0.3 3.4 0.8q0.9 0.5 1.3 1.2l13.3 23.1c0.5 0.9 0.3 1.8-0.5 2.5z"/>
			</g>
		</g>
		<path id="Path 6418" class="s16" d="m708.1 600.5l-70.9 40.4c-10.6 6.1-28 6.1-38.7 0l-221.2-121.3c-10.7-6.1-10.7-15.9-0.1-22l71-40.5c10.6-6 27.9-6 38.6 0l221.2 121.4c10.7 6 10.8 15.9 0.1 22z"/>
		<g id="Group 1452">
			<g id="Group 1450">
				<path id="Path 6419" class="s3" d="m556.6 179l-1.2 422.4c0 12.2-8.7 17.2-19.4 11l-150.4-86.8c-10.6-6.1-19.3-21.1-19.2-33.4l1.2-422.4c0-12.2 8.7-17.2 19.4-11l150.4 86.8c10.6 6.1 19.3 21.1 19.2 33.4z"/>
				<path id="Path 6420" class="s3" d="m571.7 170.3l-1.2 422.4c-0.1 11.5-15.7 17.8-20.5 20.9l-149.3-96.7c-10.7-6.2-19.3-21.1-19.3-33.4l-8-426.1c2.7-1.8 7.7-4.5 10.3-5.9 6.6-3.8 10.5-6 18.3-1.4l150.4 86.8c10.6 6.1 19.3 21.1 19.3 33.4z"/>
				<path id="Path 6421" class="s13" d="m550.4 588.4c0 5.8 1.1 18-3.2 21.1-4 3.1-10.2-1.5-15.2-4.4l-143-82.6c-5.4-3.1-10.2-8.5-13.6-14.7-3-5.5-4.8-11.8-4.8-23.2l1.2-408c0-5.3-1.2-11 3.9-14 4.6-2.7 9 0.3 14.5 3.5l143 82.6c5.3 3 10.1 8.4 13.4 14.4 3.1 5.6 5 11.7 5 17.3z"/>
				<path id="Path 6422" class="s17" d="m570.4 592.7c0 0-3.9 10.3-14.4 15.5 0.5-89.6 0.9-428.1 0.6-433.7-0.1-1.8-1-5.6-2.5-8.8-1.8-4.3 8.6-14.4 11.7-11.9 4.3 3.5 4.5 15.4 4.6 20.7 0.9 104.6 0 418.2 0 418.2z"/>
			</g>
			<g id="Group 1451">
				<path id="Path 6423" class="s3" d="m508.2 222.4c-0.1 1.5-0.8 2.2-1.8 1.7l-119.6-67.7c-1-0.6-1.7-2.3-1.7-3.7 0-1.5 0.8-2.2 1.7-1.7l119.6 67.7c1 0.6 1.8 2.3 1.8 3.7z"/>
				<path id="Path 6424" class="s4" d="m538.6 264.8c0 1.5-0.8 2.3-1.8 1.7l-150.1-85.3c-0.9-0.6-1.7-2.2-1.7-3.7 0-1.5 0.8-2.2 1.8-1.7l150 85.4c1 0.5 1.8 2.2 1.8 3.6z"/>
				<path id="Path 6425" class="s4" d="m538.5 280.7c0 1.5-0.8 2.2-1.8 1.7l-150-85.3c-1-0.6-1.8-2.3-1.8-3.7 0-1.5 0.8-2.2 1.8-1.7l150.1 85.3c0.9 0.6 1.7 2.3 1.7 3.7z"/>
				<path id="Path 6426" class="s3" d="m507.9 309.1c0 1.4-0.8 2.2-1.8 1.6l-119.5-67.7c-1-0.6-1.8-2.2-1.8-3.7 0-1.5 0.8-2.2 1.8-1.7l119.5 67.8c1 0.5 1.8 2.2 1.8 3.7z"/>
				<path id="Path 6427" class="s4" d="m538.3 351.5c0 1.4-0.8 2.2-1.8 1.6l-150-85.3c-1-0.6-1.8-2.2-1.8-3.7 0-1.5 0.8-2.2 1.8-1.6l150.1 85.3c0.9 0.5 1.7 2.2 1.7 3.7z"/>
				<path id="Path 6428" class="s4" d="m538.3 367.4c0 1.4-0.8 2.2-1.8 1.6l-150-85.3c-1-0.6-1.8-2.2-1.8-3.7 0-1.5 0.8-2.2 1.8-1.7l150 85.4c1 0.5 1.8 2.2 1.8 3.7z"/>
				<path id="Path 6429" class="s3" d="m507.7 395.7c0 1.5-0.8 2.2-1.8 1.6l-119.6-67.7c-1-0.6-1.7-2.2-1.7-3.7 0-1.5 0.8-2.2 1.7-1.6l119.6 67.7c1 0.6 1.8 2.2 1.8 3.7z"/>
				<path id="Path 6430" class="s4" d="m538.1 438.1c0 1.5-0.8 2.2-1.8 1.6l-150-85.3c-1-0.5-1.8-2.2-1.8-3.7 0-1.4 0.8-2.2 1.8-1.6l150 85.3c1 0.6 1.8 2.2 1.8 3.7z"/>
				<path id="Path 6431" class="s4" d="m538 454c0 1.5-0.8 2.2-1.7 1.6l-150.1-85.3c-1-0.6-1.8-2.2-1.7-3.7 0-1.5 0.7-2.2 1.7-1.6l150.1 85.3c0.9 0.6 1.7 2.2 1.7 3.7z"/>
				<path id="Path 6432" class="s3" d="m507.6 482.3c0 1.5-0.8 2.2-1.7 1.7l-119.6-67.8c-1-0.5-1.8-2.2-1.8-3.7 0-1.4 0.8-2.2 1.8-1.6l119.6 67.7c1 0.6 1.7 2.2 1.7 3.7z"/>
				<path id="Path 6433" class="s4" d="m538 524.7c0 1.5-0.8 2.2-1.7 1.7l-150.1-85.3c-0.9-0.6-1.7-2.3-1.7-3.7 0-1.5 0.8-2.2 1.7-1.7l150.1 85.3c1 0.6 1.7 2.3 1.7 3.7z"/>
				<path id="Path 6434" class="s4" d="m538 540.6c0 1.5-0.8 2.2-1.8 1.7l-150-85.4c-1-0.5-1.8-2.2-1.8-3.7 0-1.4 0.8-2.2 1.8-1.6l150 85.3c1 0.6 1.8 2.2 1.8 3.7z"/>
			</g>
		</g>
		<g id="Group 1457">
			<path id="Path 6435" fill-rule="evenodd" class="s18" d="m468.8 160.3c-0.6 0.9-1.6 2.7-4.4 4.2-1 0.6-1.9 1.1-4 1.6-0.4 0.1-2 0.4-4.1 0.4-3-0.1-5.9-0.8-8.1-2.2q-1.4-0.8-2.3-1.7c-1-1-1.4-1.7-1.8-2.4l-4.9-8.9c0.9 1.5 2.3 2.9 4.3 4.1 7 4.2 18.4 4.3 25.6 0.3 2.2-1.3 3.7-2.8 4.6-4.3q-2.5 4.4-4.9 8.9zm-29.6-9q0 0 0 0zm5.8 10.1q0.2 0.2 0.3 0.4-0.1-0.2-0.3-0.4zm-0.6-0.8q0.1 0.2 0.2 0.4-0.1-0.2-0.2-0.4zm1.5 1.7q0.1 0.1 0.3 0.2-0.2-0.1-0.3-0.2zm20.7 0.4q0.1-0.2 0.3-0.3-0.2 0.1-0.3 0.3zm0.9-0.8q0.1-0.2 0.3-0.3-0.2 0.1-0.3 0.3zm0.7-0.8q0.2-0.2 0.3-0.4-0.1 0.2-0.3 0.4z"/>
			<g id="Group 1453">
				<path id="Path 6436" fill-rule="evenodd" class="s18" d="m479.2 144.7q-0.1 1.5-0.5 2.7c-0.2 0.8-0.7 2-1.4 3-1.4 2-3 3.4-5.6 4.9-1.1 0.6-1.9 1-3.1 1.5-0.8 0.3-2 0.7-3.9 1.2-3.7 0.9-7.1 0.9-8 0.9-1.6-0.1-6.4-0.1-11.5-2-4.4-1.7-6.9-3.9-8.2-5.5-0.4-0.4-1.5-1.7-2.1-3.5-0.7-1.8-0.6-3.4-0.6-3.8 0.1-0.8 0.2-2.1 1.1-4 0.9-1.8 2.2-3.1 2.7-3.5 1.4-1.3 3.2-2.4 4.3-3 0.8-0.4 1.6-0.8 3.1-1.3 1.2-0.5 2.6-0.9 3.2-1 1.3-0.3 1.9-0.4 3.4-0.6 1.8-0.3 3.3-0.3 3.3-0.3 2 0 2.5 0 4.8 0.2 0.9 0 2.5 0.3 3.2 0.4 2.9 0.6 5 1.4 6 1.9 0.6 0.2 1.6 0.7 2.8 1.4 1.4 0.8 2.4 1.6 2.4 1.7 0.7 0.6 1.2 1 2.1 2.1 0.3 0.3 0.8 1 1.3 2 1.1 2 1.2 3.9 1.2 4.6zm-10-10c-6.7-4.1-17.7-4.2-24.6-0.3-6.9 3.9-7.1 10.3-0.4 14.3 6.7 4 17.8 4.1 24.7 0.3 6.9-3.9 7.1-10.3 0.3-14.3z"/>
				<path id="Path 6437" class="s19" d="m440.9 134.4c-1.4 1.8-1.9 3.8-1.4 5.8-0.8 3 0.8 6.1 4.7 8.5 6.7 4 17.8 4.1 24.7 0.3 4.2-2.4 5.9-5.7 5.1-8.8 0.5-1.9 0-3.9-1.5-5.7 1.3 0.8 2.1 1.4 2.1 1.5 0.7 0.6 1.2 1 2.1 2.1 0.3 0.3 0.8 1 1.3 2 0.6 1.2 0.9 2.2 1 3.1q-0.1 0.7-0.3 1.3c-0.2 0.8-0.7 1.9-1.4 2.9-1.4 2-3 3.5-5.6 5-1.1 0.5-1.9 1-3.1 1.4-0.8 0.3-2 0.8-3.9 1.2-3.7 0.9-7.1 0.9-8 0.9-1.6 0-6.4-0.1-11.5-2-4.4-1.7-6.9-3.9-8.2-5.5-0.4-0.4-1.5-1.6-2.1-3.5q-0.4-1-0.5-1.8c0.1-0.8 0.4-1.8 1-3 0.9-1.8 2.2-3.1 2.7-3.5 0.9-0.8 1.9-1.6 2.8-2.2z"/>
			</g>
			<g id="Group 1454">
				<path id="Path 6438" fill-rule="evenodd" class="s18" d="m479.2 138.6q-0.1 1.5-0.5 2.8c-0.2 0.7-0.7 1.9-1.4 2.9-1.4 2-3 3.4-5.6 4.9-1.1 0.6-1.9 1-3.1 1.5-0.8 0.3-2 0.7-3.9 1.2-3.7 0.9-7.1 0.9-8 0.9-1.6-0.1-6.4-0.1-11.5-2-4.4-1.7-6.9-3.9-8.2-5.5-0.4-0.4-1.5-1.7-2.1-3.5-0.7-1.8-0.6-3.4-0.6-3.8 0.1-0.8 0.2-2.1 1.1-4 0.9-1.8 2.2-3.1 2.7-3.5 1.4-1.3 3.2-2.4 4.3-3 0.8-0.4 1.6-0.8 3.1-1.3 1.2-0.5 2.6-0.9 3.2-1 1.3-0.3 1.9-0.4 3.4-0.6 1.8-0.3 3.3-0.3 3.3-0.3 2 0 2.5 0 4.8 0.2 0.9 0 2.5 0.3 3.2 0.4 2.9 0.6 5 1.4 6 1.9 0.6 0.2 1.6 0.7 2.8 1.4 1.4 0.8 2.4 1.6 2.4 1.7 0.7 0.6 1.2 1 2.1 2.1 0.3 0.3 0.8 1 1.3 2 1.1 2 1.2 3.9 1.2 4.6zm-10-10c-6.7-4.1-17.7-4.2-24.6-0.3-6.9 3.9-7.1 10.3-0.4 14.3 6.7 4 17.8 4.1 24.7 0.3 6.9-3.9 7.1-10.3 0.3-14.3z"/>
				<path id="Path 6439" class="s19" d="m440.9 128.3c-1.4 1.8-1.9 3.8-1.4 5.8-0.8 3 0.8 6.1 4.7 8.5 6.7 4 17.8 4.1 24.7 0.3 4.2-2.4 5.9-5.7 5.1-8.8 0.5-1.9 0-3.9-1.5-5.7 1.3 0.8 2.1 1.4 2.1 1.5 0.7 0.6 1.2 1 2.1 2.1 0.3 0.3 0.8 1 1.3 2 0.6 1.2 0.9 2.3 1 3.1q-0.1 0.7-0.3 1.3c-0.2 0.8-0.7 1.9-1.4 2.9-1.4 2-3 3.5-5.6 5-1.1 0.5-1.9 1-3.1 1.4-0.8 0.3-2 0.8-3.9 1.2-3.7 0.9-7.1 0.9-8 0.9-1.6 0-6.4-0.1-11.5-2-4.4-1.7-6.9-3.9-8.2-5.5-0.4-0.4-1.5-1.6-2.1-3.5q-0.4-1-0.5-1.8c0.1-0.7 0.4-1.8 1-3 0.9-1.8 2.2-3.1 2.7-3.5 0.9-0.8 1.9-1.6 2.8-2.2z"/>
			</g>
			<g id="Group 1455">
				<path id="Path 6440" fill-rule="evenodd" class="s18" d="m479.2 132.5q-0.1 1.5-0.5 2.7c-0.2 0.8-0.7 1.9-1.4 3-1.4 2-3 3.4-5.6 4.9-1.1 0.6-1.9 1-3.1 1.5-0.8 0.2-2 0.7-3.9 1.2-3.7 0.8-7.1 0.9-8 0.8-1.6 0-6.4 0-11.5-2-4.4-1.6-6.9-3.9-8.2-5.4-0.4-0.4-1.5-1.7-2.1-3.6-0.7-1.8-0.6-3.3-0.6-3.7 0.1-0.8 0.2-2.2 1.1-4 0.9-1.8 2.2-3.1 2.7-3.5 1.4-1.3 3.2-2.5 4.3-3 0.8-0.4 1.6-0.8 3.1-1.4 1.2-0.4 2.6-0.8 3.2-0.9 1.3-0.3 1.9-0.4 3.4-0.6 1.8-0.3 3.3-0.3 3.3-0.3 2 0 2.5 0 4.8 0.1 0.9 0.1 2.5 0.4 3.2 0.5 2.9 0.6 5 1.4 6 1.8 0.6 0.3 1.6 0.7 2.8 1.4 1.4 0.9 2.4 1.7 2.4 1.8 0.7 0.6 1.2 1 2.1 2.1 0.3 0.3 0.8 1 1.3 2 1.1 2 1.2 3.9 1.2 4.6zm-10-10.1c-6.7-4-17.7-4.1-24.6-0.2-6.9 3.9-7.1 10.3-0.4 14.3 6.7 4 17.8 4.1 24.7 0.2 6.9-3.8 7.1-10.2 0.3-14.3z"/>
				<path id="Path 6441" class="s19" d="m440.9 122.2c-1.4 1.8-1.9 3.8-1.4 5.8-0.8 3 0.8 6.1 4.7 8.5 6.7 4 17.8 4.1 24.7 0.2 4.2-2.3 5.9-5.6 5.1-8.7 0.5-1.9 0-3.9-1.5-5.7 1.3 0.8 2.1 1.4 2.1 1.5 0.7 0.6 1.2 1 2.1 2.1 0.3 0.3 0.8 1 1.3 2 0.6 1.2 0.9 2.2 1 3.1q-0.1 0.7-0.3 1.3c-0.2 0.7-0.7 1.9-1.4 2.9-1.4 2-3 3.4-5.6 4.9-1.1 0.6-1.9 1-3.1 1.5-0.8 0.3-2 0.7-3.9 1.2-3.7 0.9-7.1 0.9-8 0.9-1.6 0-6.4-0.1-11.5-2-4.4-1.7-6.9-3.9-8.2-5.5-0.4-0.4-1.5-1.7-2.1-3.5q-0.4-1-0.5-1.8c0.1-0.8 0.4-1.8 1-3 0.9-1.8 2.2-3.1 2.7-3.5 0.9-0.8 1.9-1.6 2.8-2.2z"/>
			</g>
			<g id="Group 1456">
				<path id="Path 6442" fill-rule="evenodd" class="s18" d="m479.2 126.4q-0.1 1.5-0.5 2.7c-0.2 0.8-0.7 1.9-1.4 3-1.4 2-3 3.4-5.6 4.9-1.1 0.6-1.9 1-3.1 1.5-0.8 0.2-2 0.7-3.9 1.2-3.7 0.8-7.1 0.9-8 0.8-1.6 0-6.4 0-11.5-2-4.4-1.6-6.9-3.9-8.2-5.4-0.4-0.4-1.5-1.7-2.1-3.6-0.7-1.8-0.6-3.3-0.6-3.7 0.1-0.8 0.2-2.2 1.1-4 0.9-1.8 2.2-3.1 2.7-3.5 1.4-1.3 3.2-2.5 4.3-3 0.8-0.4 1.6-0.8 3.1-1.4 1.2-0.4 2.6-0.8 3.2-0.9 1.3-0.3 1.9-0.4 3.4-0.6 1.8-0.3 3.3-0.3 3.3-0.3 2 0 2.5 0 4.8 0.1 0.9 0.1 2.5 0.4 3.2 0.5 2.9 0.6 5 1.4 6 1.8 0.6 0.3 1.6 0.7 2.8 1.4 1.4 0.9 2.4 1.7 2.4 1.8 0.7 0.6 1.2 1 2.1 2.1 0.3 0.3 0.8 1 1.3 2 1.1 2 1.2 3.9 1.2 4.6zm-10-10.1c-6.7-4-17.7-4.1-24.6-0.2-6.9 3.9-7.1 10.3-0.4 14.3 6.7 4 17.8 4.1 24.7 0.2 6.9-3.8 7.1-10.2 0.3-14.3z"/>
				<path id="Path 6443" class="s19" d="m440.9 116.1c-1.4 1.8-1.9 3.8-1.4 5.8-0.8 3 0.8 6.1 4.7 8.5 6.7 4 17.8 4.1 24.7 0.2 4.2-2.3 5.9-5.6 5.1-8.7 0.5-1.9 0-3.9-1.5-5.7 1.3 0.8 2.1 1.4 2.1 1.5 0.7 0.6 1.2 1 2.1 2.1 0.3 0.3 0.8 1 1.3 2 0.6 1.2 0.9 2.2 1 3.1q-0.1 0.7-0.3 1.3c-0.2 0.7-0.7 1.9-1.4 2.9-1.4 2-3 3.5-5.6 4.9-1.1 0.6-1.9 1-3.1 1.5-0.8 0.3-2 0.7-3.9 1.2-3.7 0.9-7.1 0.9-8 0.9-1.6 0-6.4-0.1-11.5-2-4.4-1.7-6.9-3.9-8.2-5.5-0.4-0.4-1.5-1.7-2.1-3.5q-0.4-1-0.5-1.8c0.1-0.8 0.4-1.8 1-3 0.9-1.8 2.2-3.1 2.7-3.5 0.9-0.8 1.9-1.6 2.8-2.2z"/>
			</g>
			<path id="Path 6444" class="s6" d="m508.6 63.8c-0.1 1.3-0.2 3-0.3 4.3-0.2 1-0.4 2.3-0.6 3.2-0.2 1.3-0.6 2.9-0.9 4-0.2 1-0.6 2.2-0.9 3.1-0.4 1.1-1 2.5-1.4 3.6-0.4 0.9-0.9 2-1.3 2.8-1.1 2.2-1.1 2.4-3.2 5.8-1.1 1.9-1.2 2-3.4 5.1-1.1 1.5-1.2 1.6-3.5 4.4-1 1.3-1.2 1.5-3.3 3.8-0.8 1-1.2 1.5-3 3.4q-1.1 1.2-2.2 2.4-0.1 0.1-0.2 0.3c-0.1 0.3-0.2 0.3-0.5 1-0.2 0.5-0.2 0.5-0.6 1.5-0.2 0.5-0.3 0.6-0.7 1.7-0.2 0.6-0.2 0.6-0.6 1.8q-0.4 0.9-0.7 1.8-0.2 0.9-0.5 1.8-0.3 0.9-0.5 1.7-0.2 0.8-0.4 1.5-0.6 2.1-2.4 4.1-1.7 1.9-4.5 3.5c-9.3 5.3-24.3 5.1-33.4-0.3q-2.5-1.5-4-3.3-1.8-2-2.4-4.1-0.2-0.8-0.4-1.5-0.2-0.9-0.5-1.7-0.2-0.9-0.5-1.8-0.3-0.9-0.6-1.8-0.3-1-0.7-1.9c-0.2-0.6-0.2-0.6-0.6-1.7-0.2-0.5-0.3-0.6-0.6-1.4-0.3-0.6-0.4-0.9-0.6-1.1q0-0.1-0.1-0.2c-0.5-0.6-1-1.1-2.2-2.5q-1.5-1.7-3-3.3c-1.2-1.4-1.2-1.4-3.3-3.9-1.3-1.6-1.3-1.6-3.5-4.4-1.3-1.9-1.3-1.9-3.4-5.1-1.2-2.2-1.2-2.2-3.1-5.8-0.5-1.1-1.1-2.5-1.5-3.6-0.4-0.8-0.8-2-1.1-2.9-0.4-1.2-0.9-2.7-1.2-3.9-0.2-0.9-0.4-2.2-0.7-3.1-0.2-1.3-0.4-3-0.6-4.3-0.1-1-0.1-2.3-0.2-3.3 0-1.3 0-3.1 0.1-4.5 0-1 0.2-2.4 0.3-3.4 0.2-1.7 0.7-3.9 1-5.6 0.3-1.1 0.8-2.6 1.1-3.7 0.5-1.6 1.4-3.8 2-5.4 0.5-1 1.2-2.4 1.7-3.4 0.9-1.6 2.2-3.7 3.2-5.2 0.6-0.9 1.5-2 2.2-2.9 1.3-1.6 3.2-3.6 4.6-5.1 0.8-0.7 1.8-1.6 2.6-2.3 1.5-1.1 3.5-2.6 5.1-3.7 0.8-0.6 2-1.2 2.8-1.7 1-0.5 2.3-1.2 3.3-1.7 0.8-0.4 1.9-0.8 2.7-1.2 2-0.8 2.1-0.8 5.5-1.8 1.7-0.5 1.7-0.5 5-1.2 1.5-0.2 1.5-0.2 4.7-0.5 1.5-0.2 1.5-0.2 4.5-0.2 1.6 0 1.6 0 4.6 0.3 1.6 0.1 1.6 0.1 4.8 0.6 1.7 0.4 1.7 0.4 5 1.3 2 0.6 2 0.6 5.5 2 1 0.4 2.3 1.1 3.3 1.6 0.9 0.4 2 1.1 2.8 1.5 1.3 0.8 3 2 4.2 2.8 0.8 0.6 1.9 1.5 2.7 2.1 1.5 1.4 3.4 3.3 4.8 4.7 0.8 0.8 1.7 1.9 2.4 2.7 1.1 1.5 2.5 3.4 3.4 5 0.7 0.9 1.3 2.2 1.9 3.2 0.8 1.5 1.7 3.6 2.4 5.2 0.4 1 0.9 2.5 1.3 3.6 0.4 1.6 1 3.8 1.4 5.4 0.2 1.2 0.4 2.7 0.6 3.9 0.1 1.4 0.3 3.2 0.3 4.5 0.1 1.1 0 2.4 0 3.4z"/>
			<ellipse id="Ellipse 324" class="s20" cx="456.7" cy="119.9" rx="21.2" ry="12.3"/>
			<path id="Path 6445" fill-rule="evenodd" class="s13" d="m473.2 69.2c-2.9 15-6 32.7-5.2 45.3q0.1 0.3-0.1 0.7c-0.4 0.5-1.3 1-2 0.9-0.3 0-0.6-0.2-0.6-0.4h-0.1c-0.8-13.1 2.4-30.4 5.3-45.7 2.7-14.7 5.3-28.6 2.5-31.6q-1.1-1.1-3.5 0-0.2 0.1-0.4 0.3c-1.1 0.6-2.1 1.5-3 2.6 1.3 2.6 1.3 6.3 0 9.3-0.6 1.5-1.6 2.7-2.7 3.3q-0.1 0.1-0.3 0.2c-2.3 1.1-3.7-0.1-3.5-3.1 0.2-2.2 1.3-5.3 2.9-8.3-1.2-1-3.4-1.4-7.1 0.7-2.5 1.5-4.3 4.4-5.3 6.5 1.9 1.6 3.2 5 2.1 8.5-0.6 1.7-1.7 3.1-3.1 3.9v0.1c-1.4 0.7-2.5 0.7-3.2-0.3-1.1-1.5-0.8-5.4 0.7-9.7-0.6-0.1-1.3 0-2 0.4q-0.3 0.2-0.6 0.5c-7.2 6.2-5 16.8-0.9 33.6 2.8 11.3 6 24.5 5.7 38.5q0.2 0.3-0.1 0.8c-0.4 0.5-1.2 0.9-1.9 0.9-0.5 0-0.7-0.3-0.7-0.6h-0.1c0.3-13.6-2.8-26.1-5.6-37.3-2-8.1-3.7-15.2-3.9-21.5-0.2-7.4 2-13.1 6.8-17.2q0.6-0.5 1.3-0.9c1.2-0.7 2.3-0.9 3.4-0.7 2-4 4.6-7.1 7.4-8.7 4.9-2.8 7.7-2.1 9.3-0.7 1.3-1.7 2.8-3.1 4.4-4q0.3-0.2 0.7-0.4 3.6-1.7 5.4 0.2c3.6 3.7 1.1 17-2 33.9zm-24.6-15.3c-0.7 2.5-0.7 4.6-0.3 5.2 0.2 0.2 0.3 0.3 0.8 0.1 0.4-0.3 0.5-0.5 0.6-0.7 0.4-1.2 0-3.3-1.1-4.6zm15.3-9c-0.9 1.8-1.4 3.6-1.5 4.8-0.1 1.5 0.4 1.3 1 1q0 0 0 0c0.1 0 0.2-0.1 0.4-0.5 0.6-1.4 0.7-3.5 0.1-5.3z"/>
		</g>
		<g id="Group 1461">
			<ellipse id="Ellipse 325" class="s2" cx="202.8" cy="758.7" rx="80.4" ry="46.5"/>
			<g id="Group 1460">
				<path id="Path 6446" class="s21" d="m174 334.4c4.9-0.4 23.7 5.1 24.9 22.7 1.2 17.6-1.5 34.6-8 37.1-6.6 2.4-24.9-4.9-27.1-9.5-2.2-4.7-9.3-15.9-9.6-25.9-0.2-10 6.1-23.4 19.8-24.4z"/>
				<path id="Path 6447" class="s22" d="m170 389.6c-3.2-1.7-5.5-3.4-6.2-4.9-1.2-2.6-3.9-7-6.1-12.2l29.9-10.5c-0.8 4.5-1.8 25.3 5.4 30.7q-0.4 0.4-0.8 0.7c-3.9 3.5-14-1.7-22.2-3.8z"/>
				<path id="Path 6448" class="s22" d="m188.6 387.1c0 0 1.4 7.8 2.2 11.6 0.7 3.8 1.5 3.8 1.5 3.8l-19 16.3c0 0-22-14.9-19.1-17.3 3-2.4 8.5-7.3 8-19.8 8.7-11.5 26.4 5.4 26.4 5.4z"/>
				<path id="Path 6449" class="s23" d="m200 355.3c-2.1 1.8-3.7 1.1-4.3 1.8-0.4 5.3-1.2 9.9-1.1 11.2-1-0.7-6-5.7-8.9 2.9-2.9 8.6-2.5 7.2-3.3 7.9-0.7 0.8-11.7 4.7-20.5 2.9-1.6-2.5-8.2-17.4-8.9-26.8-0.7-9.5 0.7-15.5 4.7-18.5 3.3-2.4 6.1-5 16.8-5.1 6.4-0.1 13.9 0.5 16.7 0 14.4-3 20.3 14.2 8.8 23.7z"/>
				<path id="Path 6450" class="s21" d="m182.1 402c6.1-5.5 37.5-8.6 43.6-12.3 6-3.7 27.3-8 31.7-7.7 4.3-5.8 15.4-28.7 16.5-31.7 1-3 2.7-19.2 4.7-20.6 2-1.3 8.7-15.1 10.8-15.1 2 0-1.7 7.7-2.7 10.4 4.7-1 8 0 10.7 1.4 2.7 1.3 8.1 9.4 5.4 10.7-2.7 1.4-4-5-5-5 0.3 3.4 1.3 7.1-1 6.7-2.4-0.3-1-6.9-2.4-4.4 0 4.1-5.4 14.9-6.1 15.9-0.6 1-9.4 43-19.8 50.1-10.5 7.2-54.3 15.2-60.3 18.4-6.1 3.2-22 4.3-25.5-3.2-3.5-7.4-3.2-11.4-0.6-13.6z"/>
				<path id="Path 6451" class="s21" d="m134.7 446.1c0 0-10.1 38.6-10.1 41.8 0 3.2 29.4 28.2 29.4 28.2 0 0-3.6 17.9-6.8 13.2-3.3-4.6-35-19.4-42-30.6-4.9-7.8 6.1-56.6 7.9-66.3 1.8-9.6 4.5-10.2 11.2-16.4z"/>
				<path id="Path 6452" class="s21" d="m186 532.7c0 0-0.4 90.5-2.6 104.9-2.1 14.3-15.7 53.7-15.9 76.8-0.1 4.1 4 3.9 7.2 4.4 3.1 0.5 17.2-3.8 20.8 0.2 3.5 4.1-5.3 11.6-8.2 12.9-2.9 1.2-13.3 0.6-15.4 1.5-2.1 0.9-3.1 2.8-3.1 2.8-4.9 4.7-10.7 5.4-14.8 3.2-3.4-1.8-2.7-6.1-2-12.3 0.8-6.2-4.3-47.1-3.5-56.5 0.8-9.4 9-26.3 7.2-33.4-5.9-22.3-5-55.6-12.4-71.5-6.1-13.3-1.4-25.4 0-33z"/>
				<path id="Path 6453" class="s22" d="m144.6 507.9l-0.5 2.7c0 0-22.4-20.4-22.5-22.2-0.1-1.7 1.5-8.3 2.4-11.7l2.9 0.2c-1.3 5.6-2.3 10-2.3 11 0 2 11.4 12.4 20 20z"/>
				<path id="Path 6454" class="s24" d="m234.8 385.3c2.9 2.7 8.5 25.8 7.2 28-1.3 2.2-19.7 5.5-25.1 16.8-3.6 7.7-42.4-6-42.4-6 0 0 1.1-20.3 7.3-23.7 6.6-3.7 28.5-7.3 33.2-8.9 4.8-1.6 19.8-6.2 19.8-6.2z"/>
				<path id="Path 6455" class="s6" d="m141.5 420.6v28.7c0 0-8.4 19.7-12 30.6-5.7 3.6-22.8-0.3-26.5-6 0.8-5.9 3.2-12.8 6-29.5 5.8-32.4 21-29.3 24.1-30.4z"/>
				<path id="Path 6456" class="s4" d="m170.9 714c-5.5 5.6-18.3 7.8-22.8 4.5-1.2-14.7-0.2-41.3 0.4-47.9 0.8-9.4 5.5-25.5 3.6-32.6-5.9-22.4-6.3-53.4-11.2-71.5-3.8-14.1 1-26.2 2.4-33.8h42.7c0 0-0.4 90.5-2.6 104.9-2.1 14-11.6 53.2-12.5 76.4z"/>
				<path id="Path 6457" class="s3" d="m154 739.4c-3.4-1.8-2.9-6.1-2.2-12.3 0.1-0.7 0.2-1.8 0.1-3.4 4.9 0.6 13.5 1.4 19.7-5.3 1 0.1 2.1 0.2 3.1 0.4 3.1 0.5 17.2-3.8 20.8 0.2 3.5 4.1-3.8 11.4-8.2 12.9-5.5 1.8-13.3 0.7-15.4 1.5-2 0.8-3.1 2.8-3.1 2.8-4.9 4.7-10.7 5.4-14.8 3.2z"/>
				<g id="Group 1458">
					<path id="Path 6458" class="s25" d="m196.2 723c1.5 4.2-4.9 10.3-8.9 11.6-5.5 1.8-13.3 0.6-15.4 1.6-1.3 0.6-2.1 1.8-3.1 2.7-4.6 4.5-10.7 5.5-14.8 3.3-2.4-1.3-2.8-3.7-2.6-7.1 0.3 1.9 0.9 3.4 2.6 4.3 4.1 2.2 9.8 1.3 14.6-3.3 0.7-0.7 1.2-1.8 3.3-2.7 2.1-0.9 9.9 0.3 15.4-1.5 3.2-1.1 7.8-5.2 8.9-8.9z"/>
				</g>
				<path id="Path 6459" class="s21" d="m212.6 524.5c14.4 49.9 5.2 134.9 4 139.6-1.1 4.7-2.4 14.7-5.3 20.6-2.9 5.8-15.1 75.9-14.8 78.5 0.4 2.5 1.3 6.1 7 5.6 5.5 1.6 13.2 2.7 13.7 6.6 0.8 6.6 0.1 7-6.8 7.7-7 0.6-15.8-4.7-18.6-5-2.7-0.3-7.6 3.9-11.3 2.7-3.7-1.1-6.6-3.3-6.6-7.8 0-2.8 4-11.7 4.7-15.3 1.9-10.1-1.8-43.6-1.1-56.5 0.7-12.8 6.1-36.4 6.5-42.1 0.3-5.8-1.1-84.4-11.8-93.3-10.4-8.7-10.1-30.4-8.1-37.6q0.1-0.4 0.2-0.7c0 0 37.3-2.9 48.3-3z"/>
				<path id="Path 6460" class="s4" d="m175.2 753.7c0.7-13 1.7-41 2.3-52.5 0.7-12.8 4.4-38.7 4.7-44.4 0.4-5.7-4-78.5-12.3-90.1-7.9-10.9-7.8-31.3-5.8-38.5q0.1-0.4 0.2-0.7c0 0 37.3-2.9 48.3-3 14.4 49.9 5.2 134.9 4 139.6-1.1 4.7-1.9 16.3-4.8 22.1-2.5 4.9-9.3 54.5-11.8 71.6-3.7 2.7-21.8 1.6-24.8-4.1z"/>
				<path id="Path 6461" class="s3" d="m172.3 777c-2.3-3.1 0-6.8 3.2-12.1 0.3-0.6 1-1.6 1.6-3.1 4.2 2.6 11.6 6.9 19.9 3.3 0.9 0.6 1.9 1.1 2.7 1.7 2.7 1.7 20.1 3.8 21.7 8.9 1.5 5.1-11 8.7-15.6 8.2-5.8-0.7-12.4-4.8-14.7-4.9-2.1-0.2-3.9 1.2-3.9 1.2-6.5 2.2-12.1 0.5-14.9-3.2z"/>
				<g id="Group 1459">
					<path id="Path 6462" class="s25" d="m220.9 778.4c-0.3 4.4-12.1 8.5-16.3 8-5.7-0.7-12.4-5-14.6-4.9-1.4 0-2.8 0.8-3.9 1.2-6.1 2.2-12.1 0.5-14.9-3.2-1.6-2.1-1.1-4.5 0.5-7.5-0.5 1.8-0.5 3.5 0.6 5 2.8 3.7 8.4 5.2 14.7 3 0.9-0.3 1.8-1.1 4.1-1 2.3 0 8.9 4.2 14.7 4.9 3.3 0.4 12.6-2.5 15.1-5.5z"/>
				</g>
				<path id="Path 6463" class="s22" d="m291.6 343.7c-1.5 3.2-2.9 6.1-3.3 6.6-0.6 1-9.4 43-19.8 50.1-5.2 3.5-18.5 7.3-31.4 10.6l2.5-5.2c3.8-1.2 23.9-5.8 27.7-11.1 3.7-5.3 18.7-38.9 19.1-44.4 1.3-2.9 3.4-5 5.2-6.6z"/>
				<path id="Path 6464" class="s6" d="m136.5 461.3c-2.4 6.1-5.3 13.4-7 18.6-1.3 0.9-3.3 1.3-5.5 1.4 2.5-5.6 6.5-24.7 8.8-28.9 1.2 2.4 2.5 5.4 3.7 8.9z"/>
				<path id="Path 6465" class="s6" d="m216.9 430.1c-1.1 2.2-5.2 2.6-10.4 2.1 0.7-4.4 1.4-8.1 1.8-10 1.6-5.8 19.8-12.9 33-16.9 0.8 4 1.1 7.3 0.7 8-1.3 2.2-19.7 5.5-25.1 16.8z"/>
				<path id="Path 6466" class="s18" d="m152.9 669.3c-1.2 5.9-1.1 39.2-1 50.6-1.5-0.3-2.9-0.7-3.8-1.4-1.2-14.7-0.2-41.3 0.4-47.9 0.8-9.4 5.5-25.5 3.6-32.6-5.9-22.4-6.3-53.4-11.2-71.5-3.3-12.2-0.1-23 1.7-30.5l2.6 2.1c-2 6.2-2.6 17.6-1.7 24.4 0.9 6.9 8.7 61.3 10.5 67.1 1.8 5.8 3.2 9.5 3.2 12.2 0 2.8-2.9 20.4-4.3 27.5z"/>
				<path id="Path 6467" class="s18" d="m178.4 578.2c1.6 7.7 8.5 69.6 7.6 78.9-0.9 9.2-4.4 31.9-5.1 44.7-0.5 10.6-1.7 42.4-1.7 55.1-1.9-0.9-3.3-1.9-4-3.2 0.7-13 1.7-41 2.3-52.5 0.7-12.8 4.4-38.7 4.7-44.4 0.4-5.7-4-78.5-12.3-90.1-7.5-10.4-7.8-29.2-6.1-37.3l4.5 0.7c0.8 8.2-1.5 25.7 3 30.2 4.5 4.5 5.5 10.2 7.1 17.9z"/>
				<path id="Path 6468" class="s26" d="m119.9 418.8c6.8-6.8 14.1-16.4 49.9-18.4 35.7-1.9 48.1 11.9 48.8 18.4 0.7 6.6-3.7 31.2-6.1 42.3-2.3 11.1-0.6 61.7 2.4 70.8 3 9.1-69.4 9.7-73.8 4.7 0.7-7.4 1.7-33.4 0-44.1-1.7-10.8-8.7-34.7-11.4-38.4-2.7-3.8-13.9-31.1-9.8-35.3z"/>
				<path id="Path 6469" class="s6" d="m141.1 536.6c0.7-7.4 1.7-33.4 0-44.1-1.4-9.2-6.8-28-10-35.6 0.6-2 1.2-3.6 1.7-4.5 8.3 16.5 20.5 63.9 12.4 85.7-2.1-0.4-3.6-0.9-4.1-1.5z"/>
				<path id="Path 6470" class="s6" d="m217.1 414.8c0.9 1.5 1.4 2.9 1.5 4 0.7 6.6-3.7 31.2-6.1 42.3-2.3 11.1-0.6 61.7 2.4 70.8 0.7 2.1-2.6 3.7-8.1 4.9-1.7-6.6-4.3-17-4.7-21.6-0.7-7.2-0.7-51.1 0-54 0.6-2.9 4.5-32.5 6.2-39 0.7-2.3 4.1-4.9 8.8-7.4z"/>
				<path id="Path 6471" class="s5" d="m155.7 338.7q0.9-1.2 2-2c3.3-2.4 6.1-5 16.8-5.1 6.4-0.1 13.9 0.5 16.7 0 4.9-1 8.9 0.3 11.5 2.9 3.4 9.2-49.6 11.4-47 4.2z"/>
				<path id="Path 6472" class="s22" d="m192.3 375.7c-1.8-0.6-3.4-6.1-3.6-7.8-0.3-1.6 0.7-5.6 2.2-6.6 1.4-1 2.2 0.1 2.8 1.2 0 0 0.4 13.7-1.4 13.2z"/>
			</g>
		</g>
	</g>
</svg>