<svg version="1.2" xmlns="http://www.w3.org/2000/svg" viewBox="0 0 772 730" width="772" height="730">
	<title>vector-object</title>
	<defs>
		<linearGradient id="g1" x1="394.6" y1="32.8" x2="394.6" y2="718.9" gradientUnits="userSpaceOnUse">
			<stop offset="0" stop-color="#120648"/>
			<stop offset=".6" stop-color="#493eff"/>
			<stop offset="1" stop-color="#00ded3"/>
		</linearGradient>
		<linearGradient id="g2" x1="377.8" y1="17.4" x2="377.8" y2="698.7" gradientUnits="userSpaceOnUse">
			<stop offset="0" stop-color="#29db74"/>
			<stop offset=".3" stop-color="#25ca8b"/>
			<stop offset="1" stop-color="#1da1c9"/>
			<stop offset="1" stop-color="#1da1ca"/>
		</linearGradient>
		<linearGradient id="g3" x1="711.8" y1="810" x2="252.3" y2="239.3" gradientUnits="userSpaceOnUse">
			<stop offset="0" stop-color="#dae3fe"/>
			<stop offset="1" stop-color="#e9effd"/>
		</linearGradient>
		<linearGradient id="g4" x1="464.5" y1="184" x2="464.5" y2="562.9" gradientUnits="userSpaceOnUse">
			<stop offset="0" stop-color="#29db74"/>
			<stop offset=".3" stop-color="#25ca8b"/>
			<stop offset="1" stop-color="#1da1c9"/>
			<stop offset="1" stop-color="#1da1ca"/>
		</linearGradient>
		<linearGradient id="g5" x1="417.2" y1="157.5" x2="477.6" y2="157.5" gradientUnits="userSpaceOnUse">
			<stop offset="0" stop-color="#4f52ff"/>
			<stop offset="1" stop-color="#4042e2"/>
		</linearGradient>
		<linearGradient id="g6" x1="591.8" y1="337.7" x2="585.4" y2="251.1" gradientUnits="userSpaceOnUse">
			<stop offset="0" stop-color="#ff928e"/>
			<stop offset="1" stop-color="#fe7062"/>
		</linearGradient>
		<linearGradient id="g7" x1="574.1" y1="194.6" x2="634.6" y2="492" gradientUnits="userSpaceOnUse">
			<stop offset="0" stop-color="#00ded3"/>
			<stop offset=".6" stop-color="#493eff"/>
			<stop offset="1" stop-color="#120648"/>
		</linearGradient>
		<linearGradient id="g8" x1="524.2" y1="267.1" x2="486.7" y2="329.9" gradientUnits="userSpaceOnUse">
			<stop offset="0" stop-color="#ff928e"/>
			<stop offset="1" stop-color="#fe7062"/>
		</linearGradient>
		<linearGradient id="g9" x1="647.6" y1="309.8" x2="639.3" y2="199.3" gradientUnits="userSpaceOnUse">
			<stop offset="0" stop-color="#ff928e"/>
			<stop offset="1" stop-color="#fe7062"/>
		</linearGradient>
		<linearGradient id="g10" x1="625" y1="127.2" x2="702.2" y2="506.8" gradientUnits="userSpaceOnUse">
			<stop offset="0" stop-color="#00ded3"/>
			<stop offset=".6" stop-color="#493eff"/>
			<stop offset="1" stop-color="#120648"/>
		</linearGradient>
		<linearGradient id="g11" x1="531.3" y1="602.6" x2="603.4" y2="485.5" gradientUnits="userSpaceOnUse">
			<stop offset="0" stop-color="#ff928e"/>
			<stop offset="1" stop-color="#fe7062"/>
		</linearGradient>
		<linearGradient id="g12" x1="725.7" y1="272.5" x2="714.8" y2="125.4" gradientUnits="userSpaceOnUse">
			<stop offset="0" stop-color="#ff928e"/>
			<stop offset="1" stop-color="#fe7062"/>
		</linearGradient>
		<linearGradient id="g13" x1="695.6" y1="29.3" x2="798.4" y2="534.7" gradientUnits="userSpaceOnUse">
			<stop offset="0" stop-color="#00ded3"/>
			<stop offset=".6" stop-color="#493eff"/>
			<stop offset="1" stop-color="#120648"/>
		</linearGradient>
		<linearGradient id="g14" x1="714.5" y1="452.2" x2="753.9" y2="321" gradientUnits="userSpaceOnUse">
			<stop offset="0" stop-color="#ff928e"/>
			<stop offset="1" stop-color="#fe7062"/>
		</linearGradient>
		<linearGradient id="g15" x1="289.4" y1="141.2" x2="289.4" y2="268.9" gradientUnits="userSpaceOnUse">
			<stop offset="0" stop-color="#00ded3"/>
			<stop offset=".6" stop-color="#493eff"/>
			<stop offset="1" stop-color="#120648"/>
		</linearGradient>
		<linearGradient id="g16" x1="183.1" y1="177.6" x2="183.1" y2="261.4" gradientUnits="userSpaceOnUse">
			<stop offset="0" stop-color="#29db74"/>
			<stop offset=".3" stop-color="#25ca8b"/>
			<stop offset="1" stop-color="#1da1c9"/>
			<stop offset="1" stop-color="#1da1ca"/>
		</linearGradient>
		<linearGradient id="g17" x1="221.7" y1="177.6" x2="221.7" y2="261.4" gradientUnits="userSpaceOnUse">
			<stop offset="0" stop-color="#29db74"/>
			<stop offset=".3" stop-color="#25ca8b"/>
			<stop offset="1" stop-color="#1da1c9"/>
			<stop offset="1" stop-color="#1da1ca"/>
		</linearGradient>
		<linearGradient id="g18" x1="259.8" y1="177.6" x2="259.8" y2="261.4" gradientUnits="userSpaceOnUse">
			<stop offset="0" stop-color="#29db74"/>
			<stop offset=".3" stop-color="#25ca8b"/>
			<stop offset="1" stop-color="#1da1c9"/>
			<stop offset="1" stop-color="#1da1ca"/>
		</linearGradient>
		<linearGradient id="g19" x1="279.3" y1="177.6" x2="279.3" y2="261.4" gradientUnits="userSpaceOnUse">
			<stop offset="0" stop-color="#29db74"/>
			<stop offset=".3" stop-color="#25ca8b"/>
			<stop offset="1" stop-color="#1da1c9"/>
			<stop offset="1" stop-color="#1da1ca"/>
		</linearGradient>
		<linearGradient id="g20" x1="298.4" y1="177.6" x2="298.4" y2="261.4" gradientUnits="userSpaceOnUse">
			<stop offset="0" stop-color="#29db74"/>
			<stop offset=".3" stop-color="#25ca8b"/>
			<stop offset="1" stop-color="#1da1c9"/>
			<stop offset="1" stop-color="#1da1ca"/>
		</linearGradient>
		<linearGradient id="g21" x1="317.9" y1="177.6" x2="317.9" y2="261.4" gradientUnits="userSpaceOnUse">
			<stop offset="0" stop-color="#29db74"/>
			<stop offset=".3" stop-color="#25ca8b"/>
			<stop offset="1" stop-color="#1da1c9"/>
			<stop offset="1" stop-color="#1da1ca"/>
		</linearGradient>
		<linearGradient id="g22" x1="337.4" y1="177.6" x2="337.4" y2="261.4" gradientUnits="userSpaceOnUse">
			<stop offset="0" stop-color="#29db74"/>
			<stop offset=".3" stop-color="#25ca8b"/>
			<stop offset="1" stop-color="#1da1c9"/>
			<stop offset="1" stop-color="#1da1ca"/>
		</linearGradient>
		<linearGradient id="g23" x1="395.5" y1="177.6" x2="395.5" y2="261.4" gradientUnits="userSpaceOnUse">
			<stop offset="0" stop-color="#29db74"/>
			<stop offset=".3" stop-color="#25ca8b"/>
			<stop offset="1" stop-color="#1da1c9"/>
			<stop offset="1" stop-color="#1da1ca"/>
		</linearGradient>
		<linearGradient id="g24" x1="183.1" y1="221" x2="183.1" y2="261.4" gradientUnits="userSpaceOnUse">
			<stop offset="0" stop-color="#00ded3"/>
			<stop offset=".6" stop-color="#493eff"/>
			<stop offset="1" stop-color="#120648"/>
		</linearGradient>
		<linearGradient id="g25" x1="202.7" y1="208.6" x2="202.7" y2="261.4" gradientUnits="userSpaceOnUse">
			<stop offset="0" stop-color="#00ded3"/>
			<stop offset=".6" stop-color="#493eff"/>
			<stop offset="1" stop-color="#120648"/>
		</linearGradient>
		<linearGradient id="g26" x1="221.8" y1="230.8" x2="221.8" y2="261.4" gradientUnits="userSpaceOnUse">
			<stop offset="0" stop-color="#00ded3"/>
			<stop offset=".6" stop-color="#493eff"/>
			<stop offset="1" stop-color="#120648"/>
		</linearGradient>
		<linearGradient id="g27" x1="241.3" y1="197.5" x2="241.3" y2="261.4" gradientUnits="userSpaceOnUse">
			<stop offset="0" stop-color="#00ded3"/>
			<stop offset=".6" stop-color="#493eff"/>
			<stop offset="1" stop-color="#120648"/>
		</linearGradient>
		<linearGradient id="g28" x1="259.8" y1="186.8" x2="259.8" y2="261.4" gradientUnits="userSpaceOnUse">
			<stop offset="0" stop-color="#00ded3"/>
			<stop offset=".6" stop-color="#493eff"/>
			<stop offset="1" stop-color="#120648"/>
		</linearGradient>
		<linearGradient id="g29" x1="279.4" y1="238.7" x2="279.4" y2="261.4" gradientUnits="userSpaceOnUse">
			<stop offset="0" stop-color="#00ded3"/>
			<stop offset=".6" stop-color="#493eff"/>
			<stop offset="1" stop-color="#120648"/>
		</linearGradient>
		<linearGradient id="g30" x1="298.5" y1="215.9" x2="298.5" y2="261.4" gradientUnits="userSpaceOnUse">
			<stop offset="0" stop-color="#00ded3"/>
			<stop offset=".6" stop-color="#493eff"/>
			<stop offset="1" stop-color="#120648"/>
		</linearGradient>
		<linearGradient id="g31" x1="318" y1="208.6" x2="318" y2="261.4" gradientUnits="userSpaceOnUse">
			<stop offset="0" stop-color="#00ded3"/>
			<stop offset=".6" stop-color="#493eff"/>
			<stop offset="1" stop-color="#120648"/>
		</linearGradient>
		<linearGradient id="g32" x1="337.5" y1="219.5" x2="337.5" y2="261.4" gradientUnits="userSpaceOnUse">
			<stop offset="0" stop-color="#00ded3"/>
			<stop offset=".6" stop-color="#493eff"/>
			<stop offset="1" stop-color="#120648"/>
		</linearGradient>
		<linearGradient id="g33" x1="357" y1="191.7" x2="357" y2="261.4" gradientUnits="userSpaceOnUse">
			<stop offset="0" stop-color="#00ded3"/>
			<stop offset=".6" stop-color="#493eff"/>
			<stop offset="1" stop-color="#120648"/>
		</linearGradient>
		<linearGradient id="g34" x1="376.1" y1="197.5" x2="376.1" y2="261.4" gradientUnits="userSpaceOnUse">
			<stop offset="0" stop-color="#00ded3"/>
			<stop offset=".6" stop-color="#493eff"/>
			<stop offset="1" stop-color="#120648"/>
		</linearGradient>
		<linearGradient id="g35" x1="395.6" y1="205.5" x2="395.6" y2="261.4" gradientUnits="userSpaceOnUse">
			<stop offset="0" stop-color="#00ded3"/>
			<stop offset=".6" stop-color="#493eff"/>
			<stop offset="1" stop-color="#120648"/>
		</linearGradient>
		<linearGradient id="g36" x1="-569.3" y1="634.8" x2="-528.2" y2="634.8" gradientUnits="userSpaceOnUse">
			<stop offset="0" stop-color="#09005d"/>
			<stop offset="1" stop-color="#1a0f91"/>
		</linearGradient>
		<linearGradient id="g37" x1="-565.4" y1="623.2" x2="-553.5" y2="623.2" gradientUnits="userSpaceOnUse">
			<stop offset="0" stop-color="#febbba"/>
			<stop offset="1" stop-color="#ff928e"/>
		</linearGradient>
		<linearGradient id="g38" x1="-644.5" y1="637.4" x2="-620.7" y2="637.4" gradientUnits="userSpaceOnUse">
			<stop offset="0" stop-color="#09005d"/>
			<stop offset="1" stop-color="#1a0f91"/>
		</linearGradient>
		<linearGradient id="g39" x1="-632.2" y1="617" x2="-617.9" y2="617" gradientUnits="userSpaceOnUse">
			<stop offset="0" stop-color="#febbba"/>
			<stop offset="1" stop-color="#ff928e"/>
		</linearGradient>
		<linearGradient id="g40" x1="-517.2" y1="463.6" x2="-638.5" y2="662.4" gradientUnits="userSpaceOnUse">
			<stop offset="0" stop-color="#4f52ff"/>
			<stop offset="1" stop-color="#4042e2"/>
		</linearGradient>
		<linearGradient id="g41" x1="234.6" y1="193.5" x2="261.8" y2="396.9" gradientUnits="userSpaceOnUse">
			<stop offset="0" stop-color="#4f52ff"/>
			<stop offset="1" stop-color="#4042e2"/>
		</linearGradient>
		<linearGradient id="g42" x1="348.1" y1="380.3" x2="399.6" y2="296.9" gradientUnits="userSpaceOnUse">
			<stop offset="0" stop-color="#febbba"/>
			<stop offset="1" stop-color="#ff928e"/>
		</linearGradient>
		<linearGradient id="g43" x1="372.7" y1="204.8" x2="353.1" y2="242.3" gradientUnits="userSpaceOnUse">
			<stop offset="0" stop-color="#ff928e"/>
			<stop offset="1" stop-color="#fe7062"/>
		</linearGradient>
		<linearGradient id="g44" x1="398.3" y1="168" x2="210.8" y2="550.4" gradientUnits="userSpaceOnUse">
			<stop offset="0" stop-color="#e1473d"/>
			<stop offset="1" stop-color="#e9605a"/>
		</linearGradient>
		<linearGradient id="g45" x1="-562.1" y1="365" x2="-556" y2="332.7" gradientUnits="userSpaceOnUse">
			<stop offset="0" stop-color="#febbba"/>
			<stop offset="1" stop-color="#ff928e"/>
		</linearGradient>
		<linearGradient id="g46" x1="-545.4" y1="305.7" x2="-580.6" y2="332.5" gradientUnits="userSpaceOnUse">
			<stop offset="0" stop-color="#febbba"/>
			<stop offset="1" stop-color="#ff928e"/>
		</linearGradient>
		<linearGradient id="g47" x1="-570.2" y1="284.4" x2="-537.5" y2="326.5" gradientUnits="userSpaceOnUse">
			<stop offset="0" stop-color="#4f52ff"/>
			<stop offset="1" stop-color="#4042e2"/>
		</linearGradient>
		<linearGradient id="g48" x1="-549.8" y1="300" x2="-584.9" y2="326.9" gradientUnits="userSpaceOnUse">
			<stop offset="0" stop-color="#febbba"/>
			<stop offset="1" stop-color="#ff928e"/>
		</linearGradient>
		<linearGradient id="g49" x1="436.9" y1="190" x2="416.3" y2="250" gradientUnits="userSpaceOnUse">
			<stop offset="0" stop-color="#ff928e"/>
			<stop offset="1" stop-color="#fe7062"/>
		</linearGradient>
		<linearGradient id="g50" x1="-540.3" y1="171.9" x2="-532.8" y2="86.6" gradientUnits="userSpaceOnUse">
			<stop offset="0" stop-color="#febbba"/>
			<stop offset="1" stop-color="#ff928e"/>
		</linearGradient>
		<linearGradient id="g51" x1="26.2" y1="173.3" x2="33.7" y2="88.1" gradientUnits="userSpaceOnUse">
			<stop offset="0" stop-color="#febbba"/>
			<stop offset="1" stop-color="#ff928e"/>
		</linearGradient>
		<linearGradient id="g52" x1="207.4" y1="449.8" x2="151.9" y2="465" gradientUnits="userSpaceOnUse">
			<stop offset="0" stop-color="#09005d"/>
			<stop offset="1" stop-color="#1a0f91"/>
		</linearGradient>
		<linearGradient id="g53" x1="143.6" y1="395.8" x2="104.4" y2="437.2" gradientUnits="userSpaceOnUse">
			<stop offset="0" stop-color="#09005d"/>
			<stop offset="1" stop-color="#1a0f91"/>
		</linearGradient>
	</defs>
	<style>
		.s0 { opacity: .7;fill: url(#g1) } 
		.s1 { opacity: .9;fill: url(#g2) } 
		.s2 { fill: url(#g3) } 
		.s3 { fill: #91b3fa } 
		.s4 { fill: #bdd0fb } 
		.s5 { fill: #2c325e } 
		.s6 { fill: url(#g4) } 
		.s7 { opacity: .7;fill: url(#g5) } 
		.s8 { opacity: .5;fill: #ffffff } 
		.s9 { fill: url(#g6) } 
		.s10 { fill: url(#g7) } 
		.s11 { opacity: .7;fill: #ffffff } 
		.s12 { opacity: .8;fill: #ffffff } 
		.s13 { fill: url(#g8) } 
		.s14 { fill: url(#g9) } 
		.s15 { fill: url(#g10) } 
		.s16 { fill: url(#g11) } 
		.s17 { fill: url(#g12) } 
		.s18 { fill: url(#g13) } 
		.s19 { fill: url(#g14) } 
		.s20 { fill: url(#g15) } 
		.s21 { opacity: .4;fill: #ffffff } 
		.s22 { fill: url(#g16) } 
		.s23 { fill: #ffffff } 
		.s24 { fill: url(#g17) } 
		.s25 { fill: url(#g18) } 
		.s26 { fill: url(#g19) } 
		.s27 { fill: url(#g20) } 
		.s28 { fill: url(#g21) } 
		.s29 { fill: url(#g22) } 
		.s30 { fill: url(#g23) } 
		.s31 { fill: #336cf2 } 
		.s32 { fill: url(#g24) } 
		.s33 { fill: url(#g25) } 
		.s34 { fill: url(#g26) } 
		.s35 { fill: url(#g27) } 
		.s36 { fill: url(#g28) } 
		.s37 { fill: url(#g29) } 
		.s38 { fill: url(#g30) } 
		.s39 { fill: url(#g31) } 
		.s40 { fill: url(#g32) } 
		.s41 { fill: url(#g33) } 
		.s42 { fill: url(#g34) } 
		.s43 { fill: url(#g35) } 
		.s44 { fill: #7d97f4 } 
		.s45 { fill: url(#g36) } 
		.s46 { fill: url(#g37) } 
		.s47 { fill: url(#g38) } 
		.s48 { fill: url(#g39) } 
		.s49 { fill: url(#g40) } 
		.s50 { fill: url(#g41) } 
		.s51 { fill: url(#g42) } 
		.s52 { fill: url(#g43) } 
		.s53 { fill: url(#g44) } 
		.s54 { fill: url(#g45) } 
		.s55 { fill: url(#g46) } 
		.s56 { fill: url(#g47) } 
		.s57 { fill: url(#g48) } 
		.s58 { fill: url(#g49) } 
		.s59 { fill: url(#g50) } 
		.s60 { fill: url(#g51) } 
		.s61 { fill: url(#g52) } 
		.s62 { fill: url(#g53) } 
	</style>
	<g id="Vector Object">
		<g id="Group 1632" style="opacity: .3">
			<path id="Path 5473" class="s0" d="m31.1 375.6c-11.5-18.6-9.3-43.1 0-62.9 9.4-19.8 24.9-35.9 40.2-51.6 62.3-63.9 47.9-195.2 146-223.9 76.9-22.4 157.7 48.2 236 47.4 63.1-0.6 127.8-0.7 187.1 20.9 59.4 21.5 113.2 69.4 123.7 131.7 9.9 59-20.2 117.8-58.4 163.8-38.2 46-85.4 84.5-119.8 133.5-30.6 43.5-50.5 94.4-86 134-35.5 39.6-95.3 65.7-142.2 40.5-37.2-20-53.4-64.5-84.1-93.6-28.7-27.1-68.1-39.2-101.6-60-47.1-29.4-43.2-62.2-59.5-107.3-13.9-38.1-61-39.4-81.4-72.5z"/>
			<path id="Path 5474" class="s1" d="m403.5 74.6q16.4-5.5 33.2-10.4c49.1-14.4 118.1-59.8 171-43.2 67.2 21.1 112.9 94.9 101.3 163.8-7.1 42-32.2 79.2-41 120.9-8.5 40.7-0.9 83 9.6 123.3 10.5 40.3 23.8 80.2 27 121.7 3.1 41.5-5.4 85.9-33.7 116.7-28.3 30.7-79.4 42.6-113.7 18.6-21-14.7-32.4-39.2-50-57.7-44.6-46.9-119.5-47.6-183.4-35.5-63.9 12.2-129 33.9-192.5 19.9-40.9-9.1-81.4-38.3-86.1-79.5-3.3-29.8 12.4-58.1 27.4-84.1 42-72.5 68-154 114.4-224.1 52.2-78.8 128.5-121 216.5-150.4z"/>
		</g>
		<g id="Group 1631">
			<path id="Path 6693" class="s2" d="m585.5 585c-10.6 11.1-20.6 18.2-28.5 23.9-92.7 66.5-202.5 47.1-225.8 42.4-34.5-7-101-20.5-149.2-77.1-72.8-85.7-61.5-220.6-5-309.7 10.4-16.3 64.9-106.7 175.9-121.2 67.1-8.8 145.4 8.9 202 56.4 119 99.7 110.5 301 30.6 385.3z"/>
			<g id="Group 1590">
				<g id="Group 1583">
					<g id="Group 1578" style="opacity: .3">
						<path id="Path 6694" class="s3" d="m214.4 561.8c-0.1 1.1-1.1 1.9-2.2 1.8-2.4-0.1-4.8-0.4-7.2-0.7-1.1-0.2-1.9-1.2-1.8-2.4 0.2-1.2 1.3-2 2.4-1.8 2.3 0.3 4.6 0.5 6.9 0.7 1.1 0 2 1 2 2.2q0 0.1-0.1 0.2zm-18.2-3q0 0.1 0 0.2c-0.4 1.1-1.5 1.8-2.7 1.5-2.3-0.7-4.6-1.5-6.8-2.3-1.1-0.4-1.7-1.6-1.3-2.8 0.4-1 1.7-1.6 2.8-1.2q3.2 1.2 6.5 2.2c1 0.3 1.7 1.3 1.5 2.4zm-17.1-7.1q-0.1 0.4-0.2 0.7c-0.6 1.1-1.9 1.4-2.9 0.9-2.1-1.2-4.2-2.5-6.2-3.8-1-0.6-1.2-2-0.6-2.9 0.7-1 2-1.3 2.9-0.6q2.9 1.9 5.9 3.5c0.8 0.5 1.2 1.4 1.1 2.2zm-15.1-10.6q-0.1 0.6-0.5 1c-0.8 0.9-2.1 1-3 0.2-1.8-1.6-3.6-3.3-5.2-5-0.8-0.9-0.8-2.2 0.1-3 0.8-0.8 2.2-0.8 3 0.1 1.5 1.6 3.2 3.2 4.9 4.7 0.6 0.5 0.8 1.3 0.7 2zm-12.4-13.8c-0.1 0.5-0.3 1.1-0.8 1.4-1 0.7-2.3 0.5-3-0.5-1.4-2-2.7-4-3.9-6.1-0.6-1-0.3-2.3 0.7-2.9 1-0.6 2.3-0.2 2.9 0.8 1.2 1.9 2.4 3.9 3.8 5.7 0.3 0.5 0.4 1.1 0.3 1.6zm-9-16.2c-0.1 0.7-0.5 1.4-1.2 1.7-1.1 0.4-2.4-0.1-2.8-1.2-0.9-2.2-1.8-4.5-2.5-6.8-0.4-1.1 0.2-2.3 1.3-2.6 1.2-0.4 2.4 0.2 2.7 1.3 0.7 2.2 1.5 4.4 2.4 6.5q0.2 0.6 0.1 1.1zm7.4-77.6q0 0.5-0.3 0.9c-1.3 1.9-2.5 3.9-3.6 5.9-0.5 1-1.8 1.4-2.8 0.8-1.1-0.5-1.4-1.8-0.9-2.9 1.2-2.1 2.4-4.2 3.8-6.2 0.6-0.9 1.9-1.2 2.9-0.6 0.7 0.5 1 1.3 0.9 2.1zm-12.6 59.9c-0.1 0.9-0.8 1.6-1.7 1.8-1.1 0.2-2.2-0.6-2.4-1.8-0.5-2.3-0.8-4.7-1-7.1-0.1-1.2 0.8-2.2 2-2.3 1.1-0.1 2.2 0.7 2.3 1.9 0.2 2.3 0.5 4.6 0.8 6.8q0.1 0.4 0 0.7zm4.2-43.4q0 0.2-0.1 0.4c-0.8 2.2-1.5 4.4-2.2 6.6-0.3 1.1-1.5 1.7-2.6 1.4-1.1-0.3-1.8-1.5-1.5-2.6 0.7-2.3 1.5-4.6 2.3-6.9 0.4-1.1 1.6-1.6 2.7-1.2 1 0.3 1.5 1.3 1.4 2.3zm-5.3 25c-0.1 1-1.1 1.8-2.2 1.7-1.1 0-2-1-2-2.2 0.2-2.4 0.4-4.8 0.7-7.2q0 0 0 0c0.2-1.2 1.3-2 2.4-1.8 1.2 0.2 2 1.2 1.8 2.4q-0.4 3.4-0.6 6.8 0 0.1-0.1 0.3z"/>
						<path id="Path 6695" class="s3" d="m159.4 421.9q-0.1 0.7-0.6 1.2-1.2 1.1-2.3 2.4c-0.7 0.9-2.1 0.9-3 0.2-0.8-0.8-0.9-2.2-0.1-3q1.1-1.3 2.3-2.6c0.8-0.8 2.2-0.9 3 0 0.6 0.5 0.8 1.2 0.7 1.8z"/>
					</g>
					<g id="Group 1579" style="opacity: .3">
						<path id="Path 6696" class="s3" d="m218.9 396.6c-0.1 1-1 1.8-2.1 1.8q-1.6 0-3.3 0c-1.2 0.1-2.2-0.8-2.2-2 0-1.2 0.9-2.2 2-2.2q1.8-0.1 3.5-0.1c1.2 0 2.1 1 2.1 2.1q0 0.2 0 0.4z"/>
						<path id="Path 6697" class="s3" d="m300.5 492.3q-0.2 1.5-0.5 2.9c-0.2 1.2-1.3 1.9-2.5 1.7-1.1-0.2-1.9-1.3-1.6-2.5q0.6-3.3 1-6.7c0.1-1.1 1.2-2 2.3-1.9 1.2 0.2 2 1.2 1.9 2.4q-0.2 2.1-0.6 4.1zm-3.4 13.8q0 0.1-0.1 0.3c-0.7 2.2-1.6 4.5-2.5 6.6-0.5 1.1-1.8 1.6-2.8 1.1-1.1-0.4-1.6-1.7-1.1-2.8q1.3-3.1 2.4-6.3c0.4-1.1 1.6-1.7 2.7-1.3 1 0.4 1.6 1.4 1.4 2.4zm4.5-29.1c-0.2 1-1 1.8-2.1 1.8-1.1 0-2.1-0.9-2.1-2.1q-0.1-3.3-0.5-6.7c-0.1-1.2 0.7-2.2 1.9-2.3 1.1-0.2 2.2 0.7 2.3 1.8 0.3 2.4 0.4 4.8 0.5 7.1q0 0.2 0 0.4zm-12.2 45.5q-0.1 0.4-0.3 0.8c-1.2 2-2.6 4-4 5.9-0.7 1-2 1.2-2.9 0.5-1-0.7-1.2-2.1-0.5-3 1.3-1.8 2.6-3.7 3.8-5.6 0.6-1 1.9-1.3 2.9-0.7 0.8 0.4 1.1 1.3 1 2.1zm9.7-63.5c-0.1 0.8-0.7 1.5-1.6 1.7-1.1 0.3-2.3-0.4-2.6-1.5-0.5-2.2-1.2-4.4-1.9-6.5-0.4-1.1 0.2-2.3 1.3-2.7 1.1-0.4 2.3 0.2 2.7 1.3 0.8 2.3 1.5 4.6 2 6.9q0.2 0.4 0.1 0.8zm-6.4-17c-0.1 0.6-0.5 1.2-1.1 1.5-1.1 0.6-2.4 0.1-2.9-0.9-1-2-2.1-4-3.3-5.9-0.6-1-0.3-2.3 0.7-2.9 1-0.6 2.3-0.3 2.9 0.7 1.3 2 2.4 4.1 3.5 6.2 0.2 0.4 0.3 0.9 0.2 1.3zm-9.9-15.3c-0.1 0.5-0.4 1-0.8 1.3-0.9 0.8-2.2 0.7-3-0.2q-2.1-2.7-4.5-5.1c-0.8-0.8-0.8-2.2 0-3 0.9-0.8 2.2-0.8 3.1 0 1.6 1.7 3.2 3.5 4.7 5.4 0.4 0.4 0.5 1.1 0.5 1.6zm-13.1-12.7q-0.1 0.6-0.4 1c-0.7 0.9-2.1 1.1-3 0.4q-2.7-2.1-5.5-4c-1-0.6-1.2-1.9-0.6-2.9 0.6-1 2-1.3 2.9-0.6 2 1.3 4 2.7 5.8 4.1 0.7 0.5 0.9 1.3 0.8 2zm-15.5-9.5q0 0.3-0.2 0.6c-0.5 1-1.7 1.5-2.8 1q-3-1.5-6.2-2.6c-1.1-0.4-1.7-1.7-1.3-2.8 0.4-1.1 1.7-1.6 2.8-1.2 2.2 0.8 4.4 1.7 6.5 2.7 0.9 0.5 1.4 1.4 1.2 2.3zm-17.2-5.9q0 0.1 0 0.1c-0.3 1.2-1.4 1.9-2.6 1.6q-2.4-0.5-4.8-0.9-0.9-0.1-1.8-0.3c-1.2-0.1-2-1.2-1.8-2.4 0.1-1.1 1.2-1.9 2.4-1.8q0.9 0.2 1.8 0.3 2.6 0.4 5.2 1c1.1 0.2 1.8 1.3 1.6 2.4z"/>
						<path id="Path 6698" class="s3" d="m278.2 536.9q-0.1 0.7-0.6 1.2-1.2 1.2-2.5 2.4c-0.8 0.8-2.2 0.8-3-0.1-0.8-0.8-0.8-2.2 0.1-3q1.2-1.1 2.4-2.3c0.8-0.8 2.1-0.8 3 0 0.5 0.5 0.7 1.2 0.6 1.8z"/>
					</g>
					<g id="Group 1582">
						<g id="Group 1580">
							<path id="Path 6699" class="s3" d="m241.8 537.4c-0.4 0.3-0.8 0.2-1.2-0.1l-9.1-7.9c-5.4 1.7-11.1 2.5-16.9 2.3l-6.7 10c-0.3 0.3-0.7 0.5-1.1 0.4l-14-3.7c-0.4-0.2-0.7-0.5-0.7-0.9l-0.9-12.1c-5.1-2.7-9.7-6.2-13.5-10.3l-11.9 2.3c-0.4 0.1-0.8-0.1-1-0.5l-7.3-12.5c-0.2-0.4-0.2-0.9 0.1-1.2l7.9-9.1c-1.6-5.4-2.4-11.1-2.2-16.9l-10-6.7c-0.4-0.3-0.5-0.7-0.4-1.1l3.7-14c0.1-0.4 0.5-0.7 0.9-0.8l12-0.8c2.8-5.1 6.3-9.7 10.4-13.5l-2.3-11.9c-0.1-0.4 0.1-0.8 0.5-1l12.5-7.3c0.4-0.2 0.8-0.2 1.1 0.1l9.2 7.9c5.4-1.6 11.1-2.4 16.9-2.2l6.7-10c0.2-0.4 0.7-0.6 1.1-0.4l14 3.7c0.4 0.1 0.7 0.5 0.7 0.9l0.9 12c5.1 2.8 9.6 6.3 13.5 10.4l11.9-2.3c0.4-0.1 0.8 0.1 1 0.4l7.3 12.6c0.2 0.3 0.1 0.8-0.2 1.1l-7.9 9.2c1.7 5.3 2.5 11 2.3 16.8l10 6.8c0.3 0.2 0.5 0.7 0.4 1.1l-3.7 14c-0.1 0.4-0.5 0.7-0.9 0.7l-12.1 0.9c-2.7 5.1-6.2 9.6-10.3 13.5l2.3 11.8c0.1 0.5-0.1 0.9-0.5 1.1z"/>
						</g>
						<g id="Group 1581">
							<path id="Path 6700" fill-rule="evenodd" class="s4" d="m230.6 481.1c-1.2 7-7.3 12.3-14.6 12.2-8-0.1-14.5-6.7-14.4-14.7 0.1-3.9 1.6-7.5 4.4-10.3 2.8-2.7 6.5-4.1 10.4-4.1 8 0.1 14.5 6.7 14.3 14.8q0 1.1-0.1 2.1zm-25.4-4.1q-0.2 0.8-0.2 1.6c-0.1 6.2 4.9 11.3 11 11.3 6.2 0.1 11.3-4.8 11.3-11 0.1-6.1-4.8-11.2-11-11.3-2.9 0-5.8 1.1-7.9 3.2-1.7 1.7-2.9 3.8-3.2 6.2z"/>
						</g>
						<path id="Path 6701" class="s4" d="m251.4 484.1q-0.3 1.9-0.8 3.6-0.1 0.6-0.3 1.2-0.9 2.7-2.1 5.3 0 0 0 0.1-0.1 0.1-0.1 0.2-0.1 0.2-0.2 0.4c-0.2 0.3-0.6 0.5-0.9 0.4q-0.1 0-0.3-0.1c-0.4-0.2-0.6-0.7-0.3-1.1 1.1-2.2 1.9-4.4 2.6-6.8 3.1-11.7-0.3-23.6-7.9-31.9-4.2-4.6-9.8-8.1-16.3-9.8q-1.7-0.5-3.4-0.8c-7.8-1.2-15.6 0.2-22.5 4.2-7.9 4.6-13.5 11.9-15.8 20.7-4.9 18.2 6 36.9 24.1 41.8q1.7 0.4 3.4 0.7c4.9 0.8 10 0.5 14.8-0.9q0.2 0 0.4 0c0.3 0 0.5 0.3 0.6 0.6 0.2 0.4-0.1 0.9-0.5 1-5.1 1.5-10.4 1.8-15.6 1q-1.8-0.3-3.5-0.8c-19.1-5.1-30.5-24.7-25.4-43.8 2.5-9.2 8.4-17 16.7-21.8 7.2-4.1 15.4-5.6 23.5-4.3q1.8 0.3 3.6 0.7c9.3 2.5 17 8.4 21.8 16.7 4.2 7.2 5.7 15.4 4.4 23.5z"/>
					</g>
				</g>
				<g id="Group 1589">
					<g id="Group 1584" style="opacity: .3">
						<path id="Path 6702" class="s3" d="m258.2 642.3c-0.1 0.5-0.6 1-1.2 1q-1.6 0.3-3.3 0.4c-0.7 0-1.4-0.5-1.4-1.3-0.1-0.7 0.5-1.3 1.2-1.4q1.6-0.1 3.2-0.3c0.7 0 1.4 0.5 1.5 1.2q0 0.2 0 0.4z"/>
						<path id="Path 6703" class="s3" d="m248.1 642.6c-0.1 0.6-0.7 1.1-1.4 1.1q-2.9-0.2-5.7-0.6-0.6-0.1-1.2-0.2c-0.7-0.2-1.2-0.9-1.1-1.6 0.1-0.7 0.8-1.2 1.5-1q0.6 0.1 1.2 0.2 2.7 0.4 5.5 0.6c0.7 0 1.2 0.6 1.2 1.4q0 0 0 0.1zm-13.4-2.5q0 0.1-0.1 0.2c-0.2 0.7-0.9 1.1-1.6 0.9-2.2-0.7-4.4-1.5-6.5-2.5-0.7-0.3-1-1.1-0.7-1.7 0.3-0.7 1.1-1 1.8-0.7q3 1.4 6.2 2.4c0.6 0.2 1 0.8 0.9 1.4zm-12.4-5.6q-0.1 0.3-0.2 0.5c-0.4 0.6-1.2 0.8-1.8 0.4-2-1.2-3.9-2.5-5.7-4-0.6-0.4-0.7-1.3-0.2-1.8 0.4-0.6 1.3-0.7 1.8-0.2q2.6 2 5.5 3.8c0.4 0.3 0.7 0.8 0.6 1.3zm-10.7-8.5q0 0.4-0.3 0.7c-0.6 0.6-1.4 0.5-1.9 0-1.6-1.6-3.1-3.4-4.5-5.3-0.5-0.5-0.4-1.4 0.2-1.8 0.6-0.4 1.4-0.3 1.8 0.3 1.4 1.7 2.8 3.4 4.4 5 0.3 0.3 0.4 0.7 0.3 1.1zm-8.2-10.8c-0.1 0.4-0.3 0.7-0.6 0.9-0.7 0.4-1.5 0.2-1.8-0.5-1.2-2-2.2-4.1-3.2-6.2-0.2-0.7 0.1-1.4 0.7-1.7 0.7-0.3 1.5 0 1.8 0.7q1.3 3 2.9 5.9 0.3 0.4 0.2 0.9zm-5.3-12.5c-0.1 0.5-0.5 0.9-1 1-0.7 0.2-1.4-0.2-1.6-0.9-0.6-2.2-1.2-4.5-1.5-6.8-0.1-0.7 0.4-1.4 1.1-1.5 0.7-0.1 1.4 0.4 1.5 1.1q0.5 3.3 1.4 6.5 0.1 0.3 0.1 0.6zm-2.2-13.5c-0.1 0.6-0.6 1.1-1.2 1.1-0.8 0.1-1.4-0.5-1.4-1.2-0.1-2.3 0-4.7 0.2-7 0.1-0.7 0.7-1.3 1.4-1.2 0.8 0.1 1.3 0.7 1.2 1.4q-0.3 3.4-0.2 6.7 0 0.1 0 0.2zm3.1-20.1q0 0.1-0.1 0.2-0.9 2.8-1.6 5.6-0.1 0.4-0.2 0.8c-0.1 0.8-0.8 1.2-1.5 1.1-0.7-0.2-1.2-0.9-1-1.6q0.1-0.5 0.2-0.9 0.7-3 1.7-5.8c0.2-0.7 0.9-1.1 1.6-0.8 0.6 0.2 1 0.8 0.9 1.4z"/>
					</g>
					<g id="Group 1585" style="opacity: .3">
						<path id="Path 6704" class="s3" d="m305.9 595.4c-0.1 0.7-0.7 1.2-1.4 1.1-0.8-0.1-1.2-0.8-1.1-1.5q0.4-3.3 0.5-6.5c0-0.8 0.6-1.3 1.4-1.3 0.7 0 1.3 0.6 1.2 1.3 0 2.3-0.2 4.6-0.5 6.9zm-1.4 6.5q0 0.1-0.1 0.2c-0.6 2.2-1.3 4.4-2.2 6.5-0.2 0.7-1 1-1.7 0.7-0.6-0.3-1-1-0.7-1.7q1.2-3 2.1-6.2c0.2-0.7 0.9-1.1 1.6-0.9 0.7 0.1 1.1 0.8 1 1.4zm1.7-19.9c-0.1 0.6-0.6 1-1.2 1.1-0.7 0.1-1.3-0.5-1.4-1.2q-0.3-3.3-1-6.5c-0.2-0.7 0.3-1.4 1-1.5 0.7-0.2 1.4 0.3 1.5 1q0.8 3.3 1.1 6.8 0 0.1 0 0.3zm-6.8 32.3q0 0.3-0.1 0.5c-1.2 2-2.4 3.9-3.7 5.8-0.5 0.5-1.3 0.7-1.9 0.2-0.6-0.4-0.7-1.2-0.3-1.8q2-2.6 3.6-5.5c0.3-0.6 1.1-0.9 1.8-0.5 0.5 0.3 0.7 0.8 0.6 1.3zm3.9-45.4c-0.1 0.5-0.4 0.9-0.9 1-0.7 0.3-1.4-0.1-1.6-0.7q-1.1-3.1-2.6-6.1c-0.3-0.6-0.1-1.4 0.6-1.7 0.6-0.4 1.4-0.1 1.8 0.6q1.5 3 2.6 6.3 0.1 0.3 0.1 0.6zm-6-12c0 0.4-0.2 0.7-0.5 0.9-0.6 0.4-1.5 0.2-1.9-0.4q-1.8-2.7-3.9-5.2c-0.4-0.6-0.4-1.4 0.2-1.8 0.5-0.5 1.4-0.4 1.8 0.1 1.5 1.7 2.9 3.6 4.1 5.5 0.2 0.3 0.3 0.6 0.2 0.9zm-8.6-10.2q-0.1 0.4-0.4 0.7c-0.4 0.5-1.3 0.6-1.8 0.1q-2.4-2.3-5.1-4.2c-0.6-0.4-0.7-1.2-0.3-1.8 0.5-0.6 1.3-0.7 1.9-0.3 1.8 1.3 3.6 2.8 5.3 4.3 0.3 0.4 0.4 0.8 0.4 1.2z"/>
						<path id="Path 6705" class="s3" d="m291.6 625.2q-0.1 0.4-0.4 0.7-1.1 1.2-2.3 2.4c-0.6 0.5-1.4 0.5-1.9-0.1-0.5-0.5-0.5-1.3 0.1-1.8q1.1-1.1 2.2-2.3c0.5-0.5 1.3-0.5 1.9-0.1 0.3 0.4 0.4 0.8 0.4 1.2z"/>
					</g>
					<g id="Group 1588">
						<g id="Group 1586">
							<path id="Path 6706" class="s3" d="m266.6 626.3c-0.2 0.1-0.5 0.1-0.7-0.1l-6.2-5.3c-3.6 1.1-7.4 1.7-11.3 1.5l-4.5 6.7c-0.1 0.3-0.4 0.4-0.7 0.3l-9.4-2.5c-0.2-0.1-0.4-0.3-0.4-0.6l-0.6-8c-3.4-1.9-6.5-4.2-9.1-7l-7.9 1.6c-0.3 0-0.6-0.1-0.7-0.3l-4.9-8.4c-0.1-0.3-0.1-0.6 0.1-0.8l5.3-6.1c-1.1-3.6-1.6-7.4-1.5-11.3l-6.7-4.5c-0.2-0.2-0.3-0.5-0.3-0.7l2.5-9.4c0.1-0.3 0.3-0.5 0.6-0.5l8.1-0.6c1.8-3.4 4.2-6.4 6.9-9l-1.5-8c-0.1-0.2 0-0.5 0.3-0.7l8.4-4.8c0.2-0.2 0.5-0.1 0.7 0.1l6.1 5.2c3.7-1.1 7.5-1.6 11.3-1.5l4.6-6.7c0.1-0.2 0.4-0.3 0.7-0.2l9.3 2.5c0.3 0 0.5 0.3 0.5 0.6l0.6 8c3.4 1.8 6.5 4.2 9.1 7l7.9-1.6c0.3 0 0.6 0.1 0.7 0.3l4.9 8.4c0.1 0.3 0.1 0.6-0.1 0.8l-5.3 6.1c1.1 3.6 1.6 7.4 1.5 11.3l6.7 4.5c0.2 0.2 0.3 0.5 0.3 0.7l-2.5 9.4c-0.1 0.3-0.3 0.5-0.6 0.5l-8.1 0.6c-1.8 3.4-4.2 6.4-6.9 9l1.5 7.9c0.1 0.3 0 0.6-0.3 0.7z"/>
						</g>
						<g id="Group 1587">
							<path id="Path 6707" fill-rule="evenodd" class="s4" d="m259.3 588.6c-0.4 2.1-1.3 4-2.9 5.5-1.9 1.9-4.4 2.9-7 2.9-5.5-0.1-9.9-4.6-9.8-10.1 0.1-5.5 4.6-9.9 10-9.8 2.7 0.1 5.2 1.1 7 3 1.9 1.9 2.8 4.4 2.8 7.1q0 0.7-0.1 1.4zm-17-2.7q-0.1 0.5-0.1 1c-0.1 4.1 3.2 7.4 7.2 7.4 1.9 0.1 3.8-0.7 5.2-2 1.4-1.4 2.2-3.2 2.2-5.2 0-1.9-0.7-3.8-2.1-5.1-1.3-1.4-3.2-2.2-5.1-2.3-3.7 0-6.7 2.7-7.3 6.2z"/>
						</g>
						<path id="Path 6708" class="s4" d="m273.8 590.8q-0.2 1.2-0.6 2.4-0.6 2.5-1.7 4.7l-0.1 0.2c-0.3 0.6-0.9 0.8-1.4 0.7q-0.2 0-0.4-0.1c-0.7-0.3-0.9-1.1-0.6-1.7q1.1-2.2 1.7-4.4 0-0.2 0.1-0.3c0.9-3.6 0.9-7.3 0-10.8q-0.7-2.9-2.2-5.5 0 0 0-0.1-0.1 0-0.1-0.1c-3-5.1-7.7-8.7-13.4-10.3q-1.1-0.3-2.3-0.4c-5-0.8-10 0.1-14.5 2.7-5.1 2.9-8.7 7.7-10.3 13.4-1.5 5.7-0.7 11.6 2.3 16.7 2.9 5.1 7.7 8.8 13.4 10.3q1.1 0.3 2.2 0.5c3.2 0.5 6.4 0.3 9.5-0.6q0.3-0.1 0.6 0c0.5 0 0.9 0.4 1.1 0.9 0.2 0.7-0.2 1.4-0.9 1.6-3.5 1-7.2 1.2-10.7 0.7q-1.3-0.2-2.5-0.6c-6.4-1.7-11.7-5.7-15-11.5-3.3-5.7-4.2-12.3-2.5-18.7 1.7-6.4 5.8-11.7 11.5-15 5-2.9 10.7-3.9 16.3-3q1.2 0.2 2.4 0.5c12.4 3.3 20.1 15.4 18.1 27.8z"/>
					</g>
				</g>
			</g>
			<g id="Group 1593">
				<g id="Group 1591">
					<path id="Path 6709" class="s5" d="m329.2 142c61.9-4.7 223.1 8.9 270.7 14.5 11.1 1.3 19.8 11.6 20.7 24.6 7.8 108.1 4.6 344.2 3.1 428.1-0.3 17.5-12.2 31.6-27.1 32.4-71.6 3.5-232.1-0.8-275.9-2.5-8.9-0.3-15.9-8.6-16.2-19-2.6-97.7 2.8-373.5 4.5-453.5 0.3-13.1 9.1-23.8 20.2-24.6z"/>
					<path id="Path 6710" class="s3" d="m346.1 170.4c50.9-3.3 198.8 7.8 242.9 12.4 10.7 1.1 19 11.4 19.4 23.9 2.2 78.5-6.5 278.4-9.5 344.3-0.6 12.6-9.1 22.8-19.8 23.8-59.9 5.6-199.1-0.5-239.9-3.3-9.9-0.7-17.7-10.1-18.1-21.7-2.3-79.4 5.1-294.1 7.5-358.7 0.4-11.1 8-20.1 17.5-20.7z"/>
					<path id="Path 6711" class="s6" d="m356.1 184.5c46.5-3 181.8 7.3 222.1 11.6 9.8 1 17.4 10.6 17.7 22.2 2.1 73-5.9 259-8.7 320.3-0.5 11.7-8.2 21.2-18.1 22.2-54.7 5.2-182-0.6-219.4-3.2-9-0.6-16.2-9.3-16.5-20.1-2.1-73.9 4.7-273.6 6.8-333.7 0.4-10.4 7.3-18.7 16.1-19.3z"/>
					<path id="Path 6712" class="s7" d="m421 151.3c17.6-0.7 44.2 1.9 53 2.9 1.7 0.2 3.1 1.7 3.5 3.7l0.1 0.5c0.4 2.9-1.6 5.6-4.1 5.5-13.1-0.9-42.2-2.7-52.5-3.3-2.1-0.2-3.8-2.2-3.8-4.6 0-2.5 1.7-4.6 3.8-4.7z"/>
				</g>
				<g id="Group 1592">
					<rect id="Rectangle 685" class="s8" x="400" y="460.8" width="131.6" height="39" rx="13"></rect>
					<rect id="Rectangle 686" class="s8" x="400.6" y="509.8" width="131.6" height="19.5" rx="10"></rect>
				</g>
			</g>
			<g id="Group 1595">
				<path id="Ellipse 341" class="s9" d="m481.8 413.8c-16.5 16.6-43.2 16.6-59.7 0-16.5-16.5-16.5-43.2 0-59.7 16.5-16.5 43.2-16.5 59.7 0 16.5 16.5 16.5 43.2 0 59.7z"/>
				<path id="Ellipse 342" class="s10" d="m480.8 412.9c-15.9 15.9-41.8 15.9-57.7 0-16-16-16-41.8 0-57.8 15.9-16 41.8-16 57.7 0 16 16 16 41.8 0 57.8z"/>
				<path id="Path 6713" class="s11" d="m418 369.1q-0.4 0-0.7-0.1c-0.6-0.3-0.9-1.2-0.6-1.8 6.4-13.4 19.6-21.9 34.4-22.3 2.4 0 4.8 0.2 7.1 0.5 0.7 0.1 1.2 0.8 1.1 1.6-0.1 0.7-0.8 1.2-1.6 1.1q-3.2-0.5-6.5-0.4c-13.8 0.3-26.1 8.2-32 20.6-0.3 0.5-0.7 0.8-1.2 0.8z"/>
				<path id="Ellipse 343" class="s12" d="m477.3 409.3c-13.5 13.5-35.4 13.5-48.9 0-13.5-13.5-13.5-35.4 0-48.9 13.5-13.5 35.4-13.5 48.9 0 13.5 13.5 13.5 35.4 0 48.9z"/>
				<g id="Group 1594">
					<path id="Path 6714" class="s13" d="m450 410.6l-0.1-3.7c-3.9-0.1-7.8-1-10.6-2.1-1-0.4-1.5-1.5-1.2-2.5l0.9-3.6c0.3-1.3 1.7-2 2.9-1.5 2.8 1.1 6.2 2 9.8 1.9 3.8-0.1 6.6-1.4 6.5-4.1-0.1-2.3-2.3-3.7-7.5-5-7.6-1.9-13-5-13.1-11.6-0.2-6 4.1-10.6 11.6-12l-0.1-3.7c0-1.2 1-2.2 2.2-2.3h2.2c1.2 0 2.2 0.9 2.2 2.1l0.1 3.4c3.6 0.1 6.3 0.6 8.4 1.3 1.1 0.4 1.7 1.5 1.4 2.6l-0.8 3.3c-0.3 1.2-1.7 1.9-2.9 1.5-1.9-0.7-4.7-1.4-8.2-1.3-4.5 0.1-5.7 2-5.7 3.6 0.1 2.1 2.8 3.4 8.6 5.1 8.4 2.3 11.9 5.7 12.1 11.9 0.1 5.7-4 10.9-12.2 12.4l0.1 4.2c0 1.2-0.9 2.2-2.1 2.2l-2.2 0.1c-1.3 0-2.3-1-2.3-2.2z"/>
				</g>
			</g>
			<g id="Group 1597">
				<path id="Ellipse 344" class="s14" d="m542.4 369.8c-21 21.1-55.1 21.1-76.2 0-21.1-21-21.1-55.1 0-76.2 21.1-21.1 55.2-21.1 76.2 0 21.1 21.1 21.1 55.2 0 76.2z"/>
				<path id="Ellipse 345" class="s15" d="m541.2 368.6c-20.4 20.3-53.4 20.3-73.7 0-20.4-20.4-20.4-53.3 0-73.7 20.3-20.4 53.3-20.4 73.7 0 20.3 20.4 20.3 53.3 0 73.7z"/>
				<path id="Path 6715" class="s11" d="m460.9 312.3q-0.3 0-0.6-0.1c-0.6-0.3-0.9-1.1-0.6-1.8 8.1-16.9 24.8-27.7 43.6-28.1 3-0.1 6 0.1 8.9 0.6 0.7 0.1 1.2 0.8 1.1 1.5-0.1 0.8-0.8 1.3-1.5 1.1-2.8-0.4-5.6-0.6-8.5-0.5-17.7 0.3-33.5 10.5-41.2 26.6-0.2 0.4-0.7 0.7-1.2 0.7z"/>
				<path id="Ellipse 346" class="s12" d="m536.7 364c-17.3 17.3-45.2 17.3-62.4 0-17.3-17.2-17.3-45.1 0-62.4 17.2-17.2 45.1-17.2 62.4 0 17.2 17.3 17.2 45.2 0 62.4z"/>
				<g id="Group 1596">
					<path id="Path 6716" class="s16" d="m501.9 365.7l-0.1-4.8c-5.1-0.1-10-1.2-13.6-2.6-1.2-0.5-1.9-1.9-1.6-3.3l1.1-4.5c0.5-1.6 2.2-2.5 3.8-1.9 3.5 1.4 7.9 2.5 12.5 2.4 4.8-0.1 8.4-1.8 8.3-5.2-0.1-3-2.9-4.7-9.6-6.4-9.6-2.4-16.6-6.4-16.8-14.8-0.1-7.6 5.3-13.5 14.9-15.3l-0.1-4.8c0-1.5 1.2-2.8 2.7-2.8l2.9-0.1c1.5 0 2.8 1.2 2.8 2.7l0.1 4.3c4.6 0.1 8 0.8 10.7 1.7 1.4 0.5 2.2 1.9 1.8 3.3l-1 4.2c-0.4 1.6-2.1 2.5-3.6 2-2.5-0.9-6-1.8-10.5-1.7-5.8 0.1-7.3 2.5-7.3 4.6 0.1 2.7 3.5 4.4 11 6.5 10.7 3 15.2 7.3 15.4 15.2 0.1 7.3-5.1 13.9-15.6 15.8l0.2 5.3c0 1.6-1.2 2.9-2.8 2.9h-2.8c-1.5 0.1-2.8-1.1-2.8-2.7z"/>
				</g>
			</g>
			<g id="Group 1599">
				<path id="Ellipse 347" class="s17" d="m628.2 307.8c-28.1 28-73.4 28-101.5 0-28.1-28.1-28.1-73.5 0-101.5 28.1-28.1 73.4-28.1 101.5 0 28.1 28 28.1 73.4 0 101.5z"/>
				<path id="Ellipse 348" class="s18" d="m626.5 306.1c-27.1 27.1-71 27.1-98.1 0-27.2-27.1-27.2-71 0-98.1 27.1-27.2 71-27.2 98.1 0 27.1 27.1 27.1 71 0 98.1z"/>
				<path id="Path 6717" class="s11" d="m519.6 230.7q-0.3 0-0.5-0.1c-0.7-0.3-1-1.1-0.6-1.7 10.7-22.4 32.7-36.7 57.5-37.2 4-0.1 8 0.2 11.8 0.8 0.8 0.1 1.2 0.8 1.1 1.5-0.1 0.7-0.7 1.2-1.5 1.1-3.7-0.6-7.5-0.9-11.3-0.8-23.8 0.5-45 14.2-55.3 35.7-0.2 0.4-0.7 0.7-1.2 0.7z"/>
				<path id="Ellipse 349" class="s12" d="m620.5 300c-23 23-60.1 23-83 0-23-22.9-23-60.1 0-83 22.9-23 60-23 83 0 23 22.9 23 60.1 0 83z"/>
				<g id="Group 1598">
					<path id="Path 6718" class="s19" d="m574.2 302.3l-0.2-6.4c-6.6-0.1-13.3-1.6-18-3.5-1.7-0.7-2.6-2.6-2.1-4.3l1.5-6c0.5-2.2 2.9-3.4 5-2.6 4.7 1.9 10.4 3.3 16.6 3.2 6.4-0.2 11.2-2.5 11.1-6.9-0.1-4-3.9-6.3-12.8-8.5-12.8-3.2-22.1-8.6-22.3-19.8-0.2-10.1 7-18 19.8-20.3l-0.2-6.4c0-2.1 1.6-3.8 3.7-3.8l3.7-0.1c2.1 0 3.8 1.6 3.8 3.7l0.1 5.7c6.2 0.1 10.7 1.1 14.3 2.2 1.8 0.6 2.9 2.6 2.4 4.5l-1.4 5.5c-0.5 2.1-2.7 3.3-4.8 2.6-3.3-1.2-8-2.4-14-2.2-7.6 0.1-9.7 3.3-9.6 6.2 0 3.4 4.6 5.7 14.6 8.6 14.2 3.9 20.2 9.6 20.5 20.2 0.2 9.7-6.8 18.5-20.7 21l0.2 7.1c0 2.1-1.6 3.8-3.7 3.8l-3.7 0.1c-2.1 0.1-3.8-1.6-3.8-3.6z"/>
				</g>
			</g>
			<g id="Group 1626">
				<rect id="Rectangle 687" class="s20" x="162.6" y="141.2" width="253.6" height="127.7" rx="21"></rect>
				<rect id="Rectangle 688" class="s21" x="167.9" y="157" width="240.5" height="109.7" rx="21"></rect>
				<g id="Group 1612">
					<g id="Group 1600" style="opacity: .7">
						<path id="Rectangle 689" class="s22" d="m175.8 177.6h14.5v83.8h-14.5z"/>
					</g>
					<g id="Group 1601" style="opacity: .7">
						<path id="Rectangle 690" class="s23" d="m195.3 177.6h14.6v83.8h-14.6z"/>
					</g>
					<g id="Group 1602" style="opacity: .7">
						<path id="Rectangle 691" class="s24" d="m214.4 177.6h14.6v83.8h-14.6z"/>
					</g>
					<g id="Group 1603" style="opacity: .7">
						<path id="Rectangle 692" class="s23" d="m234 177.6h14.5v83.8h-14.5z"/>
					</g>
					<g id="Group 1604" style="opacity: .7">
						<path id="Rectangle 693" class="s25" d="m252.5 177.6h14.5v83.8h-14.5z"/>
					</g>
					<g id="Group 1605" style="opacity: .7">
						<path id="Rectangle 694" class="s26" d="m272 177.6h14.5v83.8h-14.5z"/>
					</g>
					<g id="Group 1606" style="opacity: .7">
						<path id="Rectangle 695" class="s27" d="m291.1 177.6h14.6v83.8h-14.6z"/>
					</g>
					<g id="Group 1607" style="opacity: .7">
						<path id="Rectangle 696" class="s28" d="m310.6 177.6h14.6v83.8h-14.6z"/>
					</g>
					<g id="Group 1608" style="opacity: .7">
						<path id="Rectangle 697" class="s29" d="m330.1 177.6h14.5v83.8h-14.5z"/>
					</g>
					<g id="Group 1609" style="opacity: .7">
						<path id="Rectangle 698" class="s23" d="m349.6 177.6h14.6v83.8h-14.6z"/>
					</g>
					<g id="Group 1610" style="opacity: .7">
						<path id="Rectangle 699" class="s23" d="m368.7 177.6h14.6v83.8h-14.6z"/>
					</g>
					<g id="Group 1611" style="opacity: .7">
						<path id="Rectangle 700" class="s30" d="m388.3 177.6h14.5v83.8h-14.5z"/>
					</g>
				</g>
				<path id="Path 6719" class="s31" d="m162.6 167.9v-18.9c0-4.4 3.5-8 7.9-8h237.7c4.4 0 8.1 3.6 8.1 8v18.9z"/>
				<g id="Group 1625">
					<g id="Group 1699">
						<g id="Group 1613">
							<path id="Rectangle 701" class="s32" d="m175.9 221h14.5v40.4h-14.5z"/>
						</g>
						<g id="Group 1614">
							<path id="Rectangle 702" class="s33" d="m195.4 208.6h14.5v52.8h-14.5z"/>
						</g>
						<g id="Group 1615">
							<path id="Rectangle 703" class="s34" d="m214.5 230.8h14.6v30.6h-14.6z"/>
						</g>
						<g id="Group 1616">
							<path id="Rectangle 704" class="s35" d="m234 197.5h14.6v63.9h-14.6z"/>
						</g>
						<g id="Group 1617">
							<path id="Rectangle 705" class="s36" d="m252.6 186.8h14.5v74.6h-14.5z"/>
						</g>
						<g id="Group 1618">
							<path id="Rectangle 706" class="s37" d="m272.1 238.7h14.5v22.7h-14.5z"/>
						</g>
						<g id="Group 1619">
							<path id="Rectangle 707" class="s38" d="m291.2 215.9h14.5v45.5h-14.5z"/>
						</g>
						<g id="Group 1620">
							<path id="Rectangle 708" class="s39" d="m310.7 208.6h14.6v52.8h-14.6z"/>
						</g>
						<g id="Group 1621">
							<path id="Rectangle 709" class="s40" d="m330.2 219.5h14.5v41.9h-14.5z"/>
						</g>
						<g id="Group 1622">
							<path id="Rectangle 710" class="s41" d="m349.7 191.7h14.5v69.7h-14.5z"/>
						</g>
						<g id="Group 1623">
							<path id="Rectangle 711" class="s42" d="m368.8 197.5h14.6v63.9h-14.6z"/>
						</g>
						<g id="Group 1624">
							<path id="Rectangle 712" class="s43" d="m388.3 205.5h14.6v55.9h-14.6z"/>
						</g>
					</g>
				</g>
			</g>
			<g id="Group 1630">
				<path id="Path 6720" class="s44" d="m296.7 642.4c0.6 0.9-0.1 2.1-1.2 2.2-5.3 0.3-20.1 1-38.8-0.1-1.1 0-1.9-0.9-2-1.9q0-0.3 0-0.6c2 0.7 5.4 1.3 11.3 1.1 9.9-0.5 22.5-1.5 29.7-2.1q0.6 0.7 1 1.4z"/>
				<path id="Path 6721" class="s45" d="m254.7 642c0-3.3 0.6-9.3 5-15.6h6.3c0 0 22.6 5.9 29.7 14.6-7.2 0.6-19.8 1.6-29.7 2.1-5.9 0.2-9.3-0.4-11.3-1.1z"/>
				<path id="Path 6722" class="s46" d="m270.5 616l-2.1 11.5c-0.2 1.1-1 2.1-2.1 2.4-1.8 0.6-3.5 0.6-4.8 0.4-1.3-0.2-2.2-1.2-2.3-2.5l-0.6-11.8z"/>
				<g id="Group 1627">
					<path id="Path 6723" class="s44" d="m195.5 653.9c-1.2 2-3.3 3.3-5.7 3.4-2.2 0.1-5-0.1-7.6-1.5-2.1-1.2-3.2-3.7-2.7-6.1q0 0 0 0c0.6 2.2 2 4.3 5.1 4.9 5.2 1 8.6 0.8 10.9-0.7z"/>
					<path id="Path 6724" class="s47" d="m203 629.4c-1 6.3-3.1 17.1-7.5 24.5-2.3 1.5-5.7 1.7-10.9 0.7-3.1-0.6-4.5-2.7-5.1-4.9 1.6-8.5 6.6-30.3 14.6-30.1h5.3c0 0 4.8 2.7 3.6 9.8z"/>
				</g>
				<path id="Path 6725" class="s48" d="m206 611.3l-4.3 12.3c-0.3 0.9-1.1 1.6-2.1 1.7-2.1 0.3-4.4-0.6-6.1-1.5-1.3-0.6-2-2.1-1.6-3.5l2.9-11.6z"/>
				<path id="Path 6726" class="s49" d="m297.5 455.8c0 0-26.1 163-25.7 163.9 0 0-7.2 3.3-15 0.4 0 0 2.3-87.1 7.9-120.6 0 0-44.5 77.9-58.7 116.8 0 0-7.4-0.9-13.5-4.9 0 0 48-140.3 60.8-158.9z"/>
				<path id="Path 6727" class="s50" d="m265.7 499q-0.3 0-0.5-0.2c-0.5-0.3-0.7-0.9-0.4-1.4l9.8-15.6c0.1-0.3 0.4-0.4 0.7-0.5l7.1-1.4c0.6-0.1 1.2 0.2 1.3 0.8 0.1 0.6-0.3 1.1-0.9 1.2l-6.7 1.4-9.5 15.2c-0.2 0.3-0.5 0.5-0.9 0.5z"/>
				<path id="Path 6728" class="s51" d="m415.4 300.2l-9.1 2.8c0 2.8 0.5 5.5-0.3 8.5-0.5 2.3-2 4.2-4 5.5-2.1 1.2-4.7 2.8-7.1 3.9-4.3 2.2-7.9 0.3-7.9 0.3-4.6 22.7-14.2 36.6-25.4 44.9-1.9-12.4-6.2-19.8-8.8-23.4 18.5-8.4 28.1-26 31.3-33 1-2.1 2.7-3.8 4.8-4.8 10.7-4.9 28.3-8.8 28.3-8.8 0.9 3.1-1.8 4.1-1.8 4.1z"/>
				<path id="Path 6729" class="s52" d="m305.5 375.7c2.3 16.7 2.3 43.3-7 82.2-0.2 1-1.1 1.8-2.1 1.9-5.9 0.5-25.7 1.6-44.7-2.7-0.8-0.1-1.3-1.1-1-1.9l0.2-0.4c1.6-3.7 2.3-7.7 2.1-11.8-0.7-12.2-4-39.9-11-58.9-9.7 16.3-8.1 28.8-2.6 38-2.6 3.8-5.6 9-8.2 15.4-33.7-19.8-21.6-59-14.1-76.3 2.5-5.6 7.2-9.9 13.1-11.8 27.7-9.2 61.2-8.1 71.4-7.5q2.8 0.2 5.5 1.1c19.1 6.6 34.1 4.9 45.7-0.3 2.6 3.6 6.9 11 8.8 23.4-21 15.6-47.4 11.5-56.1 9.6z"/>
				<path id="Path 6730" class="s53" d="m305.6 377c-0.5 0-1-0.4-1.1-0.9-2.1-16.4-6.5-23.4-6.5-23.5-0.4-0.5-0.2-1.2 0.3-1.5 0.5-0.3 1.1-0.1 1.4 0.4 0.2 0.3 4.7 7.5 6.9 24.3 0.1 0.6-0.3 1.1-0.9 1.2q-0.1 0-0.1 0z"/>
				<path id="Path 6731" class="s54" d="m276.8 323.9l0.8 19.7c0.1 1.7-0.8 3.3-2.4 4-9.4 4.6-16.3 1.9-19.1 0.3-0.9-0.5-1.3-1.4-1-2.3 1.7-6.1 3.6-26.4 3.6-26.4z"/>
				<g id="Group 1628">
					<path id="Path 6732" class="s55" d="m277.2 293.2c0 0 6.1 14.2 6.6 21.6 0.4 7.4 2 12.2-6.6 13.7-8.6 1.5-15.8-2.8-19.7-10.2 0 0-6.1-11.4-4.8-16 1.4-4.7 24.5-9.1 24.5-9.1z"/>
					<path id="Path 6733" class="s56" d="m258.2 313c-0.3 0-0.6 0.4-0.5 0.7l1.4 6.4c0 0.4-0.2 0.7-0.5 0.7-1.3 0.3-4.8 0.5-9.4-2-4.4-2.4-2.7-4.2-1.6-4.9 0.4-0.2 0.4-0.7 0.1-1-6.4-5.2-7.6-11.5-4.7-13.9 1.7-1.4 2.9-1.2 3.7-0.7 0.4 0.2 0.9-0.1 0.9-0.5 0.2-7.3 7.2-11.6 17.8-13.6 7.4-1.3 10.2-4 11.2-5.6 0.3-0.5 0.9-0.4 1 0.1 0.2 0.5 0.9 0.6 1.1 0.1l0.4-0.7c0.1-0.2 0.5-0.3 0.8-0.2 4.2 1.9 7.1 8.8 3.9 14.1-3.4 5.5-18.9 8.6-22.8 10.3-3.1 1.2-0.7 6.5 0.5 8.9 0.3 0.6 0 1.3-0.6 1.6l-0.5 0.2z"/>
					<path id="Path 6734" class="s57" d="m259.7 318.3c-3.3-0.3-9.4-7.9-5.4-10.4 4-2.5 6.4 6.5 6.4 6.5z"/>
				</g>
				<path id="Path 6735" class="s58" d="m391.7 319.3q-0.3 0-0.6-0.2c-0.5-0.4-0.6-1-0.2-1.5 0.7-0.8 6.6-8.1 8.9-9.4 0.8-0.4 1.2-0.8 1.3-1.2 0 0 0.1-0.1 0-0.3l-6.6 1.3-3.9 3.3c-0.4 0.4-1.1 0.4-1.5-0.1-0.3-0.4-0.3-1.1 0.1-1.5l4.1-3.5q0.2-0.1 0.5-0.2l7.7-1.5c0.4-0.1 0.8 0.1 1.1 0.4q0.9 1.3 0.6 2.6c-0.3 1-1 1.8-2.3 2.6-1.5 0.8-5.9 5.9-8.4 8.8-0.2 0.3-0.5 0.4-0.8 0.4z"/>
				<path id="Path 6736" class="s59" d="m231.2 437.5c2.6-6.4 5.6-11.6 8.2-15.4 8.2 13.8 23.2 23.7 23.2 23.7 1.5-1.9 25.7 5 25.7 5l-27.8 0.6c-12.2-2.1-21.9-9.6-29.3-13.9z"/>
				<path id="Path 6737" class="s60" d="m294.3 447.8c0 0-12.7 7.3-20.6 8.2-14.5 1.6-14-9.4-14-9.4 1.4 1.1 34.6 1.2 34.6 1.2z"/>
				<g id="Group 1629">
					<path id="Path 6738" class="s61" d="m262.5 446.5c0-1.7 1.4-3.1 3.1-3.1h68.9c1.7-0.1 3.1 1.3 3.1 3 0 1.7-1.4 3.1-3.1 3.1h-68.9q-0.1 0-0.2 0c-1.6 0-2.9-1.4-2.9-3z"/>
					<path id="Path 6739" class="s62" d="m400.8 393.8l-20.6 51.5c-1 2.5-3.5 4.2-6.2 4.2h-71.4l26.6-55.7c1.8-3.8 5.7-6.2 9.9-6.2h57.4c3.3 0 5.5 3.2 4.3 6.2z"/>
					<path id="Path 6740" class="s44" d="m362.6 410.6c2.4 0.7 3.3 4.5 2.1 8.3-1.3 3.8-4.2 6.3-6.6 5.5-2.4-0.7-3.3-4.4-2-8.3 1.2-3.8 4.1-6.3 6.5-5.5z"/>
				</g>
			</g>
		</g>
	</g>
</svg>