<svg version="1.2" xmlns="http://www.w3.org/2000/svg" viewBox="0 0 1164 668" width="1164" height="668">
	<title>stars</title>
	<defs>
		<linearGradient id="g1" x1="151.9" y1="430.1" x2="227.5" y2="473.7" gradientUnits="userSpaceOnUse">
			<stop offset="0" stop-color="#4cd6f0"/>
			<stop offset="1" stop-color="#4cd6f0" stop-opacity="0"/>
		</linearGradient>
		<linearGradient id="g2" x1="283.7" y1="196.3" x2="359.3" y2="240" gradientUnits="userSpaceOnUse">
			<stop offset="0" stop-color="#4cd6f0"/>
			<stop offset="1" stop-color="#4cd6f0" stop-opacity="0"/>
		</linearGradient>
		<linearGradient id="g3" x1="607.6" y1="325.8" x2="683.2" y2="369.5" gradientUnits="userSpaceOnUse">
			<stop offset="0" stop-color="#4cd6f0"/>
			<stop offset="1" stop-color="#4cd6f0" stop-opacity="0"/>
		</linearGradient>
		<linearGradient id="g4" x1="527.2" y1="473.9" x2="602.8" y2="517.6" gradientUnits="userSpaceOnUse">
			<stop offset="0" stop-color="#4cd6f0"/>
			<stop offset="1" stop-color="#4cd6f0" stop-opacity="0"/>
		</linearGradient>
		<linearGradient id="g5" x1="346.9" y1="351" x2="422.5" y2="394.7" gradientUnits="userSpaceOnUse">
			<stop offset="0" stop-color="#4cd6f0"/>
			<stop offset="1" stop-color="#4cd6f0" stop-opacity="0"/>
		</linearGradient>
		<linearGradient id="g6" x1="412.2" y1="194.2" x2="451.6" y2="145.3" gradientUnits="userSpaceOnUse">
			<stop offset="0" stop-color="#ffffff"/>
			<stop offset=".1" stop-color="#ffffff" stop-opacity=".9"/>
			<stop offset=".2" stop-color="#ffffff" stop-opacity=".7"/>
			<stop offset=".4" stop-color="#ffffff" stop-opacity=".5"/>
			<stop offset=".5" stop-color="#ffffff" stop-opacity=".3"/>
			<stop offset=".6" stop-color="#ffffff" stop-opacity=".2"/>
			<stop offset=".8" stop-color="#ffffff" stop-opacity=".1"/>
			<stop offset=".9" stop-color="#ffffff" stop-opacity="0"/>
			<stop offset="1" stop-color="#ffffff" stop-opacity="0"/>
		</linearGradient>
		<clipPath clipPathUnits="userSpaceOnUse" id="cp1">
			<path d="m435.88 195.94c-12.61 3.62-25.74-3.66-29.35-16.28-3.62-12.61 3.65-25.74 16.27-29.35 12.62-3.62 25.74 3.65 29.36 16.27 3.62 12.62-3.66 25.74-16.28 29.36z"/>
		</clipPath>
		<linearGradient id="g7" x1="410.5" y1="162.2" x2="454.3" y2="187.7" gradientUnits="userSpaceOnUse">
			<stop offset="0" stop-color="#61c6f2"/>
			<stop offset=".2" stop-color="#57bbeb"/>
			<stop offset=".5" stop-color="#3f9eda"/>
			<stop offset=".8" stop-color="#1870bd"/>
			<stop offset=".9" stop-color="#1269b9"/>
		</linearGradient>
		<linearGradient id="g8" x1="553.4" y1="68" x2="564.9" y2="79.6" gradientUnits="userSpaceOnUse">
			<stop offset="0" stop-color="#ffffff"/>
			<stop offset=".1" stop-color="#ffffff" stop-opacity=".9"/>
			<stop offset=".3" stop-color="#ffffff" stop-opacity=".8"/>
			<stop offset=".6" stop-color="#ffffff" stop-opacity=".5"/>
			<stop offset=".9" stop-color="#ffffff" stop-opacity=".1"/>
			<stop offset="1" stop-color="#ffffff" stop-opacity="0"/>
		</linearGradient>
		<linearGradient id="g9" x1="382.5" y1="189.1" x2="476" y2="162.3" gradientUnits="userSpaceOnUse">
			<stop offset="0" stop-color="#29db74"/>
			<stop offset=".3" stop-color="#25ca8b"/>
			<stop offset="1" stop-color="#1da1c9"/>
			<stop offset="1" stop-color="#1da1ca"/>
		</linearGradient>
	</defs>
	<style>
		.s0 { fill: url(#g1) } 
		.s1 { fill: url(#g2) } 
		.s2 { fill: url(#g3) } 
		.s3 { fill: url(#g4) } 
		.s4 { fill: url(#g5) } 
		.s5 { fill: #8de1fd } 
		.s6 { fill: url(#g6) } 
		.s7 { fill: url(#g7) } 
		.s8 { fill: #5a9cd4 } 
		.s9 { opacity: .7;fill: url(#g8) } 
		.s10 { fill: #c4c4c4 } 
		.s11 { fill: none } 
		.s12 { fill: url(#g9) } 
	</style>
	<g id="Pattern">
		<g id="Group 841" style="opacity: .3">
			<path id="Path 3878" class="s0" d="m157.4 428.7l70.1 44.8c0 0 0.1 0.1 0 0.2 0 0.1-0.1 0.1-0.2 0.1l-73.8-38.3c-1.9-1-2.7-3.4-1.7-5.3 1-1.9 3.4-2.6 5.3-1.7q0.1 0.1 0.3 0.2z"/>
			<path id="Path 3879" class="s1" d="m289.2 195l70.1 44.8c0 0 0.1 0.1 0 0.2 0 0.1-0.1 0.1-0.2 0.1l-73.8-38.4c-1.9-0.9-2.7-3.3-1.7-5.2 1-1.9 3.4-2.7 5.3-1.7q0.1 0.1 0.3 0.2z"/>
			<path id="Path 3880" class="s2" d="m613.1 324.5l70.1 44.8c0 0 0.1 0.1 0 0.2 0 0.1-0.1 0.1-0.2 0l-73.8-38.3c-1.9-1-2.7-3.3-1.7-5.2 1-1.9 3.4-2.7 5.3-1.7q0.1 0.1 0.3 0.2z"/>
			<path id="Path 3881" class="s3" d="m532.7 472.6l70.1 44.7c0.1 0.1 0.1 0.2 0 0.3 0 0-0.1 0.1-0.2 0l-73.8-38.3c-1.9-1-2.7-3.3-1.7-5.2 1-2 3.4-2.7 5.3-1.7q0.2 0.1 0.3 0.2z"/>
			<path id="Path 3882" class="s4" d="m352.4 349.7l70.1 44.8c0 0 0.1 0.1 0 0.2 0 0.1-0.1 0.1-0.2 0l-73.8-38.3c-1.9-1-2.7-3.3-1.7-5.2 1-1.9 3.4-2.7 5.3-1.7q0.1 0.1 0.3 0.2z"/>
		</g>
		<g id="Group 847">
			<g id="Group 842">
				<path id="Path 3883" fill-rule="evenodd" class="s5" d="m926.5 212.5c-9.1 5.6-18.8 6.4-21.5 1.9-2.7-4.5 2.5-12.7 11.7-18.2 9.1-5.5 18.8-6.3 21.5-1.8 2.7 4.5-2.5 12.6-11.7 18.1zm-9.4-15.6c-8.4 5.1-13.2 12.5-10.7 16.6 2.5 4.2 11.3 3.4 19.7-1.7 8.4-5 13.2-12.5 10.7-16.6-2.5-4.1-11.3-3.3-19.7 1.7z"/>
			</g>
			<g id="Group 843">
				<path id="Path 3884" fill-rule="evenodd" class="s5" d="m929.4 217.3c-14.5 8.8-29.9 10.2-34.2 3-4.3-7.1 4-20.1 18.6-28.9 14.5-8.8 29.9-10.1 34.2-2.9 4.3 7.1-4 20.1-18.6 28.8zm-15-24.8c-13.3 8-20.9 19.9-17 26.5 4 6.5 18 5.3 31.4-2.7 13.3-8.1 20.9-20 17-26.5-4-6.5-18-5.3-31.4 2.7z"/>
			</g>
			<g id="Group 844">
				<path id="Path 3885" fill-rule="evenodd" class="s5" d="m932.3 222.2c-19.9 12-41 13.8-46.9 4-5.9-9.8 5.5-27.6 25.5-39.6 19.9-12 41-13.9 46.9-4.1 5.9 9.9-5.5 27.6-25.5 39.7zm-20.5-34.1c-18.3 11-28.8 27.3-23.3 36.3 5.4 8.9 24.6 7.3 42.9-3.7 18.3-11.1 28.7-27.3 23.3-36.3-5.4-9-24.7-7.3-42.9 3.7z"/>
			</g>
			<g id="Group 845">
				<path id="Path 3886" fill-rule="evenodd" class="s5" d="m935.2 227c-25.3 15.3-52.1 17.6-59.6 5.1-7.5-12.4 7-35 32.4-50.3 25.3-15.3 52.1-17.6 59.6-5.2 7.5 12.5-7 35.1-32.4 50.4zm-26.1-43.3c-23.2 14-36.5 34.7-29.6 46.1 6.9 11.4 31.4 9.3 54.6-4.7 23.2-14 36.5-34.7 29.6-46.1-6.9-11.4-31.4-9.3-54.6 4.7z"/>
			</g>
			<g id="Group 846">
				<path id="Path 3887" fill-rule="evenodd" class="s5" d="m938.1 231.8c-30.7 18.5-63.2 21.3-72.3 6.2-9.1-15.1 8.5-42.5 39.3-61 30.7-18.6 63.2-21.4 72.3-6.3 9.1 15.1-8.5 42.5-39.3 61.1zm-31.6-52.5c-28.2 17-44.3 42.1-36 55.9 8.4 13.8 38.1 11.3 66.2-5.7 28.2-17 44.3-42.1 36-55.9-8.4-13.9-38.1-11.3-66.2 5.7z"/>
			</g>
		</g>
		<g id="Group 910" style="opacity: .8">
			<g id="Group 860">
				<path id="Ellipse 67" class="s6" d="m458.3 169.4c2.1 16.2-9.3 30.9-25.4 33-16.1 2-30.9-9.3-33-25.5-2-16.1 9.3-30.8 25.5-32.9 16.1-2.1 30.8 9.3 32.9 25.4z"/>
				<g id="Group 859">
					<g id="Group 857">
						<g id="Group 856" clip-path="url(#cp1)">
							<path id="Ellipse 68" class="s7" d="m435.9 195.9c-12.6 3.7-25.8-3.6-29.4-16.2-3.6-12.7 3.7-25.8 16.3-29.4 12.6-3.6 25.7 3.7 29.4 16.3 3.6 12.6-3.7 25.7-16.3 29.3z"/>
							<g id="Group 855" style="opacity: .5">
								<path id="Path 3893" class="s8" d="m430.7 147.3c2.1 3.6 1.7 8.5-1 11.7-2 2.5-5.2 4.1-6.6 7-1 2.1-0.9 4.6-0.7 6.9 0.3 2.4 0.5 4.8-0.3 7-0.8 2.2-3.1 4.1-5.4 3.6-2-0.5-3.2-2.5-3.8-4.4-0.6-1.9-0.8-4-1.8-5.8-0.7-1.3-1.9-2.3-2.9-3.4-1.1-1.1-2.1-2.2-2.6-3.7-1-2.8-0.2-5.4 1.8-7.6 1.7-1.9 4.1-4.3 6.2-5.6-0.1 1.3-0.8 2.5-0.6 3.9 0.1 1.4 1 2.8 2.4 3 1.1 0.1 2.2-0.5 3-1.2 2.7-2.3 4.2-5.8 4-9.3z"/>
								<path id="Path 3894" class="s8" d="m443.6 150.3c7.9 12.1-0.6 24.3-8 30.5-2.9 2.4-7.3 0.8-8.1-2.9-1.1-5.2 0-8.1 1.6-9.7 1.5-1.5 3.5-2.5 4.6-4.3 1-1.7 1.1-3.8 1.1-5.7-0.1-2-0.3-4 0.2-5.9 1.2-5 6.2-5.6 8.6-2z"/>
								<path id="Path 3895" class="s8" d="m402.6 173.9c1.4-1 2.5-0.7 3.7 0.5 1.1 1.3 1.6 2.9 2.1 4.5 1.5 5.2 4.7 9.7 10.3 10.7 3.9 0.6 7.9 0.6 11.7-0.4 11-2.9 21.4-15.6 19.4-27.3-0.1-0.9-0.2-2.5-0.8-3.2 4.3 5.6 6.1 9.8 4.9 16.8-0.5 2.8-1.7 5.5-3.6 7.7-13.2 15.3-28.7 13.2-32.8 11.6-4.2-1.5-7.1-4.8-9.8-8.4-2.6-3.5-4.5-8-5.1-12.5z"/>
							</g>
						</g>
					</g>
					<path id="Path 3896" class="s9" d="m428.9 172.7c-4.2 6.8-10.6 10.2-14.3 7.5-3.7-2.7-3.3-10.4 0.9-17.2 4.2-6.9 10.6-10.2 14.3-7.5 3.7 2.7 3.3 10.4-0.9 17.2z"/>
					<g id="Group 858" style="opacity: .5">
						<path id="Path 3897" class="s10" d="m452.2 166.6c3.6 12.6-3.7 25.7-16.3 29.3-4.1 1.2-8.3 1.2-12.2 0.3 2.2 0 4.4-0.3 6.7-0.9 12.6-3.7 19.8-16.8 16.2-29.4-2.4-8.5-9.2-14.5-17.2-16.5 10.3 0 19.8 6.8 22.8 17.2z"/>
					</g>
				</g>
			</g>
			<g id="Group 874">
				<path id="Path 3943" class="s11" d="m452.2 166.5q0-0.3-0.1-0.6c6.1-1 10.1-1.1 10.4-0.1 0.3 1-3.3 3.1-9.4 5.5q-0.2-2.4-0.9-4.8z"/>
				<path id="Path 3944" class="s11" d="m406.7 179.6q0.7 2.5 1.9 4.7c-7.5 1.4-12.4 1.7-12.8 0.6-0.3-1.1 3.9-3.4 10.7-6.1q0.1 0.4 0.2 0.8z"/>
				<path id="Path 3945" class="s11" d="m428.1 171.6c9.2-2.6 17.7-4.6 24-5.7q0.1 0.3 0.1 0.6 0.7 2.4 0.9 4.8c-5.8 2.4-13.9 5.2-22.9 7.7-8.1 2.4-15.7 4.2-21.6 5.3q-1.2-2.2-1.9-4.7-0.1-0.4-0.2-0.8c5.7-2.2 13.2-4.8 21.6-7.2z"/>
				<path id="Path 3946" class="s11" d="m431.1 182c8-2.4 15.5-4.8 22-7.2-0.7 9.6-7.3 18.2-17.1 21-9.8 2.8-19.9-0.9-25.6-8.6 6.3-1.4 13.3-3.1 20.7-5.2z"/>
				<path id="Path 3947" class="s11" d="m427.3 168.7c-7.8 2.2-15.1 4.6-21.4 6.9-1.3-11.2 5.7-22.1 17-25.4 11.3-3.2 23.1 2.4 28 12.7-7.1 1.4-15.1 3.4-23.6 5.8z"/>
				<path id="Path 3948" class="s12" d="m475.9 161.9c0.7 2.5-8.5 7.6-22.8 12.9-6.5 2.4-14 4.8-22 7.2-7.4 2.1-14.4 3.8-20.7 5.2-15.9 3.3-27.2 4.2-28 1.5-0.7-2.5 8.9-7.7 23.5-13.1q0.2 1.6 0.6 3.2c-6.8 2.7-11 5-10.7 6.1 0.4 1.1 5.3 0.8 12.8-0.6 5.9-1.1 13.5-2.9 21.6-5.3 9-2.5 17.1-5.3 22.9-7.7 6.1-2.4 9.7-4.5 9.4-5.5-0.3-1-4.3-0.9-10.4 0.1q-0.5-1.5-1.2-3c14.3-2.9 24.3-3.4 25-1z"/>
			</g>
		</g>
	</g>
</svg>